<svg width="38" height="51" viewBox="0 0 38 51" fill="none" xmlns="http://www.w3.org/2000/svg">
<path d="M37.3022 22.6578L35.2353 24.7758C34.9401 25.0713 34.5874 25.2191 34.1773 25.2191C33.7672 25.2191 33.4145 25.0713 33.1192 24.7758L31.4953 23.1503V40.981C31.4953 43.608 30.5685 45.8409 28.7148 47.6798C26.8612 49.5187 24.6385 50.4382 22.0467 50.4382H15.7476C13.123 50.4382 10.8921 49.5187 9.05489 47.6798C7.21767 45.8409 6.29905 43.608 6.29905 40.981H12.5981C12.5981 41.8676 12.9016 42.6147 13.5085 43.2222C14.1155 43.8296 14.8618 44.1334 15.7476 44.1334H22.0467C22.8997 44.1334 23.6379 43.8296 24.2612 43.2222C24.8845 42.6147 25.1962 41.8676 25.1962 40.981V23.1503L23.5722 24.7758C23.277 25.0713 22.9243 25.2191 22.5142 25.2191C22.1041 25.2191 21.7514 25.0713 21.4562 24.7758L19.3401 22.6578C19.0448 22.3622 18.8972 22.0092 18.8972 21.5988C18.8972 21.1883 19.0448 20.8353 19.3401 20.5398L26.8202 13.0528C27.1155 12.7573 27.624 12.6095 28.3457 12.6095C29.0347 12.6095 29.5432 12.7737 29.8713 13.1021L37.3514 20.5398C37.6139 20.8353 37.7451 21.1883 37.7451 21.5988C37.7451 22.0092 37.5975 22.3622 37.3022 22.6578ZM22.0467 6.30477H15.7476C14.8618 6.30477 14.1155 6.61673 13.5085 7.24063C12.9016 7.86454 12.5981 8.60338 12.5981 9.45716V27.2878L14.1729 25.6624C14.4681 25.3668 14.8208 25.2191 15.2309 25.2191C15.641 25.2191 15.9937 25.3668 16.289 25.6624L18.405 27.7804C18.7003 28.0759 18.848 28.4289 18.848 28.8394C18.848 29.2499 18.7003 29.6029 18.405 29.8984L10.9741 37.3853C10.6789 37.6809 10.1703 37.8286 9.44858 37.8286C8.72681 37.8286 8.20189 37.6644 7.87382 37.3361L0.442902 29.8984C0.147634 29.6029 0 29.2499 0 28.8394C0 28.4289 0.147634 28.0759 0.442902 27.7804L2.55899 25.6624C2.85426 25.3668 3.20694 25.2191 3.61703 25.2191C4.02713 25.2191 4.37981 25.3668 4.67508 25.6624L6.29905 27.2878V9.45716C6.29905 6.83017 7.21767 4.59723 9.05489 2.75834C10.8921 0.919446 13.123 0 15.7476 0H22.0467C24.6385 0 26.8612 0.919446 28.7148 2.75834C30.5685 4.59723 31.4953 6.83017 31.4953 9.45716H25.1962C25.1962 8.60338 24.8845 7.86454 24.2612 7.24063C23.6379 6.61673 22.8997 6.30477 22.0467 6.30477Z" fill="#D2DAEA"/>
</svg>
