<svg width="38" height="18" viewBox="0 0 38 18" fill="none" xmlns="http://www.w3.org/2000/svg">
<path d="M25.9639 16.3299C26.1951 15.5325 26.1055 14.8028 25.7201 14.2602C25.3663 13.7632 24.7687 13.4754 24.0499 13.4424L10.4302 13.2647C10.3889 13.2654 10.3481 13.2557 10.3115 13.2365C10.275 13.2172 10.2438 13.1891 10.2211 13.1546C10.199 13.1182 10.1848 13.0775 10.1794 13.0352C10.1739 12.993 10.1774 12.9501 10.1896 12.9092C10.2142 12.8424 10.2573 12.7839 10.3138 12.7405C10.3703 12.697 10.4379 12.6705 10.5089 12.6639L24.2481 12.4862C25.8758 12.4091 27.6451 11.0928 28.2648 9.47759L29.0496 7.42992C29.0849 7.34645 29.0926 7.25386 29.0716 7.1657C28.6446 5.2621 27.6071 3.55022 26.1172 2.29081C24.6273 1.03141 22.7665 0.293503 20.8184 0.189489C18.8703 0.0854743 16.9415 0.621054 15.326 1.71465C13.7104 2.80825 12.4965 4.39992 11.8693 6.24724C11.0592 5.64502 10.054 5.36583 9.04939 5.46402C8.47316 5.52255 7.91633 5.70466 7.41688 5.99794C6.91743 6.29122 6.4871 6.68877 6.15526 7.16348C5.82341 7.63818 5.59785 8.17887 5.49396 8.74867C5.39007 9.31847 5.41029 9.90398 5.55325 10.4653C4.06545 10.5074 2.65281 11.1284 1.61574 12.196C0.578665 13.2636 -0.00100622 14.6937 1.31121e-06 16.1821C1.31121e-06 16.4573 0.0220193 16.7341 0.0550463 17.0109C0.0647455 17.0751 0.0969644 17.1338 0.145944 17.1764C0.194924 17.219 0.257472 17.2429 0.322407 17.2436H25.4544C25.5975 17.2436 25.7312 17.1414 25.7752 16.9999L25.9639 16.3283V16.3299ZM30.2999 7.57932C30.1788 7.57932 30.0467 7.57932 29.924 7.59662C29.8359 7.59662 29.7589 7.66268 29.7243 7.75075L29.1943 9.59711C28.9615 10.3945 29.0496 11.1242 29.4365 11.6684C29.7903 12.1654 30.388 12.4516 31.1067 12.4862L34.0068 12.6639C34.0948 12.6639 34.1719 12.7048 34.2159 12.774C34.2375 12.8106 34.2515 12.8512 34.2572 12.8933C34.2629 12.9355 34.2601 12.9783 34.249 13.0193C34.2242 13.0864 34.1809 13.1451 34.1241 13.1885C34.0673 13.232 33.9994 13.2584 33.9281 13.2647L30.9085 13.4408C29.2698 13.5179 27.513 14.8358 26.8934 16.451L26.6716 17.014C26.6276 17.1273 26.7047 17.2374 26.8273 17.2374H37.2025C37.2627 17.2383 37.3215 17.2194 37.3698 17.1836C37.4181 17.1478 37.4533 17.097 37.4699 17.0392C37.6445 16.3975 37.7451 15.7228 37.7451 15.0261C37.7397 13.0542 36.9532 11.1648 35.5578 9.77142C34.1624 8.37809 32.2718 7.59439 30.2999 7.5919" fill="#D2DAEA"/>
</svg>
