<svg width="38" height="50" viewBox="0 0 38 50" fill="none" xmlns="http://www.w3.org/2000/svg">
<path d="M17.3775 0.5H25.3285V37.307C21.2497 38.081 18.2549 38.391 15.0027 38.391C5.29492 38.391 0.235352 34.0021 0.235352 25.5851C0.235352 17.478 5.60493 12.2118 13.9187 12.2118C15.2094 12.2118 16.1901 12.3151 17.3775 12.6251V0.5ZM17.3775 19.0261C16.5132 18.7341 15.6048 18.5943 14.6927 18.6127C10.6645 18.6127 8.34241 21.0908 8.34241 25.429C8.34241 29.6639 10.5632 31.986 14.642 31.986C15.5194 31.986 16.2428 31.9354 17.3775 31.7793V19.024V19.0261ZM37.9805 12.7791V31.212C37.9805 37.5623 37.5165 40.6098 36.1224 43.2419C34.8317 45.7727 33.1276 47.3734 29.6161 49.1282L22.2324 45.6166C25.7439 43.9652 27.448 42.5185 28.532 40.2977C29.6688 38.0263 30.0294 35.3922 30.0294 28.4745V12.7771H37.9805V12.7791ZM30.0294 0.542551H37.9805V8.70026H30.0294V0.542551Z" fill="#D2DAEA"/>
</svg>
