<svg width="35" height="52" viewBox="0 0 35 52" fill="none" xmlns="http://www.w3.org/2000/svg">
<g clip-path="url(#clip0)">
<path d="M8.62648 52C13.3888 52 17.2539 48.1349 17.2539 43.3726V34.7451H8.62648C3.86412 34.7451 -0.000976562 38.6102 -0.000976562 43.3726C-0.000976562 48.1349 3.86412 52 8.62648 52Z" fill="#D2DAEA"/>
<path d="M-0.000976562 26.1177C-0.000976562 21.3553 3.86412 17.4902 8.62648 17.4902H17.2539V34.7451H8.62648C3.86412 34.7451 -0.000976562 30.88 -0.000976562 26.1177Z" fill="#D2DAEA"/>
<path d="M0 8.86281C0 4.10045 3.8651 0.235352 8.62745 0.235352H17.2549V17.4903H8.62745C3.8651 17.4903 0 13.6252 0 8.86281Z" fill="#D2DAEA"/>
<path d="M17.2549 0.235352H25.8823C30.6447 0.235352 34.5098 4.10045 34.5098 8.86281C34.5098 13.6252 30.6447 17.4903 25.8823 17.4903H17.2549V0.235352Z" fill="#D2DAEA"/>
<path d="M34.5098 26.1177C34.5098 30.88 30.6447 34.7451 25.8823 34.7451C21.12 34.7451 17.2549 30.88 17.2549 26.1177C17.2549 21.3553 21.12 17.4902 25.8823 17.4902C30.6447 17.4902 34.5098 21.3553 34.5098 26.1177Z" fill="#D2DAEA"/>
</g>
<defs>
<clipPath id="clip0">
<rect width="34.5098" height="51.7647" fill="white" transform="translate(0 0.235352)"/>
</clipPath>
</defs>
</svg>
