<svg width="38" height="43" viewBox="0 0 38 43" fill="none" xmlns="http://www.w3.org/2000/svg">
<path d="M0 0L3.39536 38.4088L18.87 42.8021L34.2829 38.4088L37.7451 0H0ZM30.6097 9.11089L30.3628 11.5391L30.2753 12.5423H12.1976L12.6194 17.3884H29.8586L29.6888 18.6385L28.5982 31.0984L28.5108 31.9318L18.8906 34.5864V34.6018H18.8288L18.8134 34.607V34.6018H18.8082L9.10575 31.9267L8.51927 24.4878H13.2059L13.5403 28.2535L18.8082 29.6786H18.8288L24.0762 28.2587L24.6627 22.1573H18.8134V22.1522H8.27234L7.09939 9.11089L7.01194 7.86078H30.692L30.6097 9.11089Z" fill="#D9E0EE"/>
</svg>
