<svg width="39" height="40" viewBox="0 0 39 40" fill="none" xmlns="http://www.w3.org/2000/svg">
<path d="M12.5682 30.2615C4.85087 24.4607 2.42762 14.1736 6.07931 5.45634C5.73793 5.8461 5.40461 6.24931 5.08473 6.67133C-1.8692 15.9262 -0.299391 28.853 8.60068 35.5435C17.4981 42.234 30.3522 40.1534 37.3115 30.8985C37.6301 30.4765 37.9217 30.0451 38.2026 29.6083C30.8401 35.5354 20.2869 36.0636 12.5722 30.2628L12.5682 30.2615ZM17.0572 24.2914C23.4615 29.1056 32.6532 27.7374 37.9795 21.3372C33.1276 24.8854 25.7624 24.6637 20.0208 20.348C14.2791 16.0324 12.0225 9.0126 14.0843 3.36774C9.41515 10.2625 10.653 19.4758 17.0572 24.2914ZM23.7504 15.3913C28.1238 18.6801 34.6988 17.324 38.4902 12.378C34.9891 14.9585 29.9665 15.0056 26.1817 12.1576C22.3916 9.31097 21.0395 4.47252 22.5529 0.39209C18.8515 5.4093 19.3743 12.1012 23.7491 15.3913H23.7504Z" fill="#D2DAEA"/>
</svg>
