<svg width="38" height="39" viewBox="0 0 38 39" fill="none" xmlns="http://www.w3.org/2000/svg">
<path d="M0 0.656738V38.4019H37.7451V0.656738H0ZM20.2206 29.9766C20.2206 33.6509 18.0503 35.4421 14.9085 35.4421C12.0709 35.4421 10.4237 33.9727 9.58793 32.1992L12.4761 30.4509C13.033 31.4392 13.456 32.275 14.6717 32.275C15.6828 32.275 16.5135 31.8192 16.5135 30.0457V18.1813H20.2206V29.9766ZM28.5911 35.3578C25.2977 35.3578 23.1694 33.8716 22.1306 31.8192L25.023 30.1451C25.7813 31.387 26.7712 32.2143 28.5195 32.2143C29.9888 32.2143 30.8423 31.5639 30.8423 30.5504C30.8423 29.3346 29.9636 28.9041 28.3417 28.1913L27.4554 27.8105C24.8958 26.7219 23.1989 25.3537 23.1989 22.4647C23.1989 19.8048 25.2252 17.8619 28.3922 17.8619C30.6477 17.8619 32.2679 18.5629 33.4348 20.6153L30.6679 22.3939C30.0596 21.3045 29.4041 20.8773 28.388 20.8773C27.3492 20.8773 26.6903 21.5362 26.6903 22.3939C26.6903 23.458 27.3492 23.8885 28.8691 24.5474L29.7555 24.9274C32.7708 26.2198 34.4685 27.5392 34.4685 30.5015C34.4694 33.6947 31.9612 35.3578 28.5911 35.3578Z" fill="#D2DAEA"/>
</svg>
