<svg width="38" height="44" viewBox="0 0 38 44" fill="none" xmlns="http://www.w3.org/2000/svg">
<path d="M18.8726 0.235352L0 11.1286V32.9151L18.8726 43.8083L37.7451 32.9151V11.1286L18.8726 0.235352ZM29.7658 30.3552C29.7658 31.6351 28.593 32.6972 26.9898 32.6972C25.8442 32.6972 24.537 32.2343 23.7201 31.2266L12.8268 18.2619V30.3534C12.8268 31.6624 11.7919 32.6954 10.5138 32.6954H10.3758C9.06682 32.6954 8.03377 31.6061 8.03377 30.3534V13.6885C8.03377 12.4086 9.17756 11.3465 10.7571 11.3465C11.9299 11.3465 13.2625 11.8094 14.0795 12.8171L24.9183 25.7818V13.6885C24.9183 12.3795 26.0076 11.3465 27.2604 11.3465H27.3965C28.7037 11.3465 29.7386 12.4358 29.7386 13.6885V30.3552H29.7658Z" fill="#D2DAEA"/>
</svg>
