<svg width="49" height="25" viewBox="0 0 49 25" fill="none" xmlns="http://www.w3.org/2000/svg">
<path d="M24.2715 24.1933C11.0805 24.1933 0.396484 18.7817 0.396484 12.0967C0.396484 5.41167 11.0805 0 24.2715 0C37.4624 0 48.1465 5.41167 48.1465 12.0967C48.1465 18.7817 37.4624 24.1933 24.2715 24.1933ZM13.9455 8.37615C15.0199 8.37615 15.7561 8.5751 16.1142 8.99292C16.4723 9.39083 16.5519 10.1071 16.3728 11.0422C16.1739 12.0967 15.7959 12.7731 15.2189 13.2108C14.6618 13.6485 13.8063 13.8674 12.6523 13.8674H10.9214L11.9759 8.37615H13.9455ZM6.98201 19.4183H9.84701L10.5235 15.9366H12.9707C14.045 15.9366 14.9204 15.8172 15.6168 15.5983C16.3132 15.3596 16.9498 14.9816 17.5268 14.4444C18.0043 14.0067 18.3823 13.5292 18.6808 12.992C18.9792 12.4747 19.198 11.8778 19.2975 11.2411C19.6159 9.68927 19.397 8.47562 18.641 7.6201C17.865 6.74469 16.6713 6.32688 15.0199 6.32688H9.52867L6.98201 19.4183V19.4183ZM21.4065 2.8451L18.8598 15.9366H21.685L23.1573 8.43583H25.4254C26.1417 8.43583 26.6192 8.55521 26.838 8.79396C27.0569 9.03271 27.0967 9.47042 26.9773 10.1071L25.8433 15.9366H28.7282L29.902 9.82854C30.1607 8.595 29.9617 7.69969 29.3648 7.12271C28.7679 6.58552 27.6737 6.32688 26.082 6.32688H23.5552L24.2715 2.8451H21.4065V2.8451ZM36.209 8.37615C37.3033 8.37615 38.0195 8.5751 38.3776 8.99292C38.7358 9.39083 38.8153 10.1071 38.6363 11.0422C38.4373 12.0967 38.0593 12.7731 37.5022 13.2108C36.9252 13.6485 36.0697 13.8674 34.9158 13.8674H33.2246L34.2194 8.37615H36.209V8.37615ZM29.2454 19.4183H32.1104L32.7869 15.9366H35.2142C36.3085 15.9366 37.2038 15.8172 37.9001 15.5983C38.5965 15.3596 39.1934 14.9816 39.7902 14.4444C40.2677 14.0067 40.6657 13.5292 40.9442 12.992C41.2426 12.4747 41.4615 11.8778 41.5809 11.2411C41.8793 9.68927 41.6604 8.47562 40.9044 7.6201C40.1882 6.74469 38.9347 6.32688 37.2834 6.32688H31.812L29.2454 19.4183V19.4183Z" fill="#D2DAEA"/>
</svg>
