<svg width="39" height="38" viewBox="0 0 39 38" fill="none" xmlns="http://www.w3.org/2000/svg">
<path d="M32.8378 9.43628C34.2693 9.43628 35.6422 10.0049 36.6544 11.0172C37.6667 12.0294 38.2353 13.4023 38.2353 14.8338V21.9677C38.2353 22.6765 38.0957 23.3783 37.8245 24.0332C37.5532 24.6881 37.1557 25.2831 36.6544 25.7843C36.1532 26.2855 35.5582 26.6831 34.9034 26.9543C34.2485 27.2256 33.5466 27.3652 32.8378 27.3652H19.3628C19.3628 28.1012 19.9667 29.177 20.7027 29.177H28.7991V32.3476C28.7991 33.7791 28.2304 35.152 27.2182 36.1642C26.2059 37.1764 24.833 37.7451 23.4015 37.7451H15.3241C13.8925 37.7451 12.5197 37.1764 11.5074 36.1642C10.4952 35.152 9.92651 33.7791 9.92651 32.3476V25.2704C9.92651 24.5624 10.0663 23.8615 10.3377 23.2077C10.6092 22.5538 11.0071 21.9601 11.5086 21.4604C12.01 20.9607 12.6052 20.5649 13.2599 20.2957C13.9147 20.0265 14.6161 19.8892 15.3241 19.8917H25.2322C25.9401 19.8917 26.6411 19.7519 27.2949 19.4804C27.9487 19.209 28.5424 18.8111 29.0421 18.3096C29.5418 17.8082 29.9376 17.213 30.2068 16.5583C30.476 15.9035 30.6133 15.202 30.6108 14.4941V9.43628H32.8378ZM24.7603 31.687C24.0054 31.687 23.4015 32.2532 23.4015 33.3667C23.4015 34.4802 24.0054 34.7066 24.7603 34.7066C24.9363 34.7066 25.1105 34.672 25.2731 34.6046C25.4357 34.5373 25.5834 34.4386 25.7078 34.3142C25.8323 34.1897 25.931 34.042 25.9983 33.8795C26.0656 33.7169 26.1003 33.5426 26.1003 33.3667C26.1003 32.2532 25.4964 31.687 24.7603 31.687ZM5.88779 28.3088C4.45627 28.3088 3.08338 27.7402 2.07114 26.7279C1.0589 25.7157 0.490234 24.3428 0.490234 22.9113V15.7775C0.490234 15.0686 0.629846 14.3668 0.901098 13.7119C1.17235 13.057 1.56993 12.462 2.07114 11.9608C3.08338 10.9486 4.45627 10.3799 5.88779 10.3799H19.3628C19.3628 9.64388 18.7589 8.56814 18.0228 8.56814H9.92651V5.39755C9.92651 3.96603 10.4952 2.59314 11.5074 1.58091C12.5197 0.568669 13.8925 0 15.3241 0H23.4015C24.1103 0 24.8122 0.139612 25.4671 0.410864C26.1219 0.682116 26.717 1.0797 27.2182 1.58091C27.7194 2.08212 28.117 2.67714 28.3882 3.332C28.6595 3.98686 28.7991 4.68874 28.7991 5.39755V12.4748C28.7991 13.1827 28.6593 13.8837 28.3878 14.5375C28.1164 15.1913 27.7185 15.785 27.217 16.2847C26.7156 16.7845 26.1204 17.1802 25.4656 17.4494C24.8109 17.7186 24.1094 17.8559 23.4015 17.8534H13.4934C12.7855 17.8534 12.0845 17.9932 11.4307 18.2647C10.7769 18.5361 10.1831 18.934 9.68344 19.4355C9.18373 19.9369 8.78794 20.5321 8.51875 21.1869C8.24955 21.8416 8.11226 22.5431 8.11475 23.251V28.3088H5.88779ZM13.9652 6.05809C14.7201 6.05809 15.3241 5.49191 15.3241 4.37843C15.3241 3.26495 14.7201 3.03848 13.9652 3.03848C13.2292 3.03848 12.6253 3.26495 12.6253 4.37843C12.6253 5.49191 13.2292 6.05809 13.9652 6.05809Z" fill="#D2DAEA"/>
</svg>
