<svg width="49" height="48" viewBox="0 0 49 48" fill="none" xmlns="http://www.w3.org/2000/svg">
<path d="M24.4785 3.59219e-05C15.0812 -0.0163231 6.23627 5.55598 2.17701 14.3763L13.5909 14.4035V15.6517C10.0763 15.2288 10.3858 17.0539 10.8833 18.991L18.376 37.7694L23.8831 24.86L21.355 18.8101C20.4367 17.1897 20.4173 15.392 16.6604 15.5613L16.7131 14.411L33.4532 14.4517V15.7407C31.4928 15.8557 29.1329 15.2478 30.3838 19.2624L37.1544 37.0473L40.8555 26.6646C42.0675 22.3122 40.9268 18.1296 39.4866 14.0281C38.6856 11.2765 39.0592 8.97862 42.6495 8.06707C37.1693 2.47309 30.7029 0.010878 24.4787 3.59219e-05H24.4785ZM47.246 16.4191L36.3929 44.7087C39.3901 42.1128 42.4633 41.1679 46.2238 33.9853C48.7259 28.011 48.4683 22.4765 47.246 16.419V16.4191ZM1.02823 16.8774C-0.0310807 25.2289 0.0658263 27.675 2.68807 34.4949C6.10621 41.0268 8.75686 42.4029 12.519 44.965L1.02818 16.8774H1.02823ZM24.9022 27.4741L16.8593 46.8796C22.5049 48.491 27.5564 48.2893 32.1808 46.4967L24.9022 27.4741V27.4741Z" fill="#D2DAEA"/>
</svg>
