<?xml version="1.0" encoding="utf-8"?>
<!-- Generator: Adobe Illustrator 22.1.0, SVG Export Plug-In . SVG Version: 6.00 Build 0)  -->
<svg version="1.1" id="Слой_1" xmlns="http://www.w3.org/2000/svg" xmlns:xlink="http://www.w3.org/1999/xlink" x="0px" y="0px"
	 viewBox="0 0 371.8 49.4" style="enable-background:new 0 0 371.8 49.4;" xml:space="preserve">
<style type="text/css">
	.st0{opacity:0.85;fill:#FFFFFF;enable-background:new    ;}
</style>
<path class="st0" d="M24.9,47.8c-8,0-14.2-2.1-18.5-6.2C2.1,37.5,0,31.7,0,24.3c0-7.8,2.1-13.8,6.3-18C10.4,2.1,16.6,0,24.8,0
	c2.7,0,5.1,0.2,7.3,0.6c2.3,0.4,4.5,1,6.7,1.7v10.2c-4.2-1.7-8.6-2.6-13.2-2.6c-4.8,0-8.3,1.2-10.6,3.5c-2.2,2.3-3.3,5.9-3.3,10.9
	c0,4.7,1.2,8.1,3.5,10.4c2.4,2.2,5.9,3.3,10.6,3.3c4.7,0,9-0.8,13.1-2.5v10.2C34.7,47.1,30,47.8,24.9,47.8z M66.7,47.8
	c-6.1,0-10.9-1.5-14.5-4.5c-3.5-3-5.3-7.4-5.3-13.2c0-5.6,1.5-9.9,4.5-13c3.1-3.2,7.5-4.8,13.3-4.8c5.3,0,9.5,1.4,12.5,4.2
	s4.5,6.5,4.5,11.2v6.1H57.7c0.5,2.2,1.7,3.8,3.6,4.7c1.9,0.9,4.6,1.4,8.1,1.4c1.9,0,3.8-0.2,5.7-0.5c2-0.3,3.6-0.8,4.9-1.3v7.6
	C76.7,47.1,72.3,47.8,66.7,47.8z M71.8,27.1v-1.5c0-3.6-2.2-5.5-6.6-5.5c-2.7,0-4.7,0.6-5.8,1.7c-1.1,1.1-1.7,2.9-1.7,5.3H71.8z
	 M91.4,13h10.7l0.4,3c3.5-2.5,7.2-3.7,11.4-3.7c2.2,0,4,0.3,5.3,1c1.3,0.7,2.4,1.7,3.2,3c1.7-1.2,3.6-2.2,5.5-2.9
	c2-0.7,4.3-1.1,6.8-1.1c3.9,0,6.8,1,8.7,3.1c1.9,2.1,2.9,5.2,2.9,9.4v22.3h-11.4v-21c0-1.9-0.4-3.2-1.2-4c-0.8-0.9-2-1.3-3.8-1.3
	c-1.2,0-2.3,0.2-3.3,0.7c-1,0.4-1.9,1.1-2.6,1.9c0.1,0.7,0.2,1.8,0.2,3.2v20.4h-10.8V26c0-1.8-0.3-3.1-0.9-4s-1.8-1.2-3.4-1.2
	c-2,0-4.1,1-6.3,3.1v23.2H91.4V13z M175.2,47.8c-6.1,0-10.9-1.5-14.5-4.5c-3.5-3-5.3-7.4-5.3-13.2c0-5.6,1.5-9.9,4.5-13
	c3.1-3.2,7.5-4.8,13.3-4.8c5.3,0,9.5,1.4,12.5,4.2s4.5,6.5,4.5,11.2v6.1h-24.2c0.5,2.2,1.7,3.8,3.6,4.7s4.6,1.4,8.1,1.4
	c1.9,0,3.8-0.2,5.7-0.5c2-0.3,3.6-0.8,4.9-1.3v7.6C185.1,47.1,180.7,47.8,175.2,47.8z M180.3,27.1v-1.5c0-3.6-2.2-5.5-6.6-5.5
	c-2.7,0-4.7,0.6-5.8,1.7c-1.1,1.1-1.7,2.9-1.7,5.3H180.3z M199.8,13h10.8l0.4,3c1.5-1.1,3.3-1.9,5.4-2.6c2.2-0.7,4.4-1.1,6.6-1.1
	c4.4,0,7.6,1.1,9.6,3.2c2.1,2.1,3.1,5.4,3.1,9.8v21.9h-11.6v-21c0-1.9-0.4-3.3-1.3-4.1c-0.8-0.8-2.3-1.2-4.3-1.2
	c-1.2,0-2.5,0.3-3.8,0.9c-1.3,0.6-2.4,1.3-3.2,2.2v23.3h-11.6V13z M260.3,47.8c-4.1,0-7.2-1.1-9.3-3.2c-2-2.1-3-5.1-3-9V21.7h-4.6
	V13h4.6V5.8l11.6-3.1V13h8.3l-0.5,8.8h-7.8v13.1c0,1.6,0.4,2.8,1.2,3.5c0.8,0.6,2,0.9,3.7,0.9c1.4,0,2.8-0.2,4.2-0.7v7.8
	C266.5,47.3,263.7,47.8,260.3,47.8z M275.4,38.6h9.3v8.5h-9.3V38.6z M306.6,47.8c-4.1,0-7.2-1.1-9.5-3.4c-2.2-2.3-3.3-5.6-3.3-10V13
	h11.6v20.8c0,1.9,0.5,3.3,1.4,4.2c0.9,0.9,2.3,1.3,4.2,1.3c1.3,0,2.6-0.3,3.9-0.8c1.2-0.6,2.3-1.3,3.2-2.2V13h11.6v34.1h-10.8
	l-0.4-2.9C315.3,46.6,311.3,47.8,306.6,47.8z M350.2,47.8c-3.5,0-6.4-0.9-8.7-2.7c-2.3-1.9-3.4-4.5-3.4-8c0-3.6,1.2-6.3,3.6-8.3
	c2.4-2,6-3,10.7-3h9.5v-0.8c0-1.8-0.6-3-1.8-3.7c-1.2-0.7-3.3-1.1-6.4-1.1c-3.9,0-7.7,0.6-11.4,1.8v-7.5c1.7-0.7,3.8-1.2,6.3-1.7
	s5-0.6,7.6-0.6c5.4,0,9.6,1.1,12.5,3.3s4.4,5.6,4.4,10.2v21.3h-10.2l-0.6-2.9C359.6,46.6,355.6,47.8,350.2,47.8z M353.9,40.7
	c3.5,0,6.1-1.1,8-3.3v-4.8h-8.2c-1.7,0-3,0.3-3.9,1c-0.8,0.7-1.2,1.7-1.2,3.1C348.5,39.3,350.3,40.7,353.9,40.7z"/>
</svg>
