<svg width="372" height="132" viewBox="0 0 372 132" fill="none" xmlns="http://www.w3.org/2000/svg">
<path fill-rule="evenodd" clip-rule="evenodd" d="M102.05 63.7494C102.105 63.3475 101.915 62.6192 100.709 62.9212C99.2008 63.2986 95.4608 67.9233 98.2106 69.9105C100.96 71.8978 103.25 68.6037 103.289 68.4579C103.32 68.3412 103.918 68.0534 104.213 67.9241C104.655 67.0526 105.629 65.2086 105.987 64.8044C106.002 64.7873 106.019 64.7685 106.037 64.7483C106.552 64.1713 108.183 62.3435 108.045 60.0416C107.902 57.6588 109.251 51.4557 109.369 51.0183C109.374 50.9967 109.383 50.9653 109.395 50.9251C109.622 50.1495 110.817 46.0612 107.499 44.578C105.609 43.7329 105.29 44.0424 104.759 44.557C104.31 44.9924 103.709 45.5747 101.877 45.7285C97.8794 46.0641 96.4497 46.15 96.1971 45.926C96.0985 45.8386 96.1645 45.5811 96.2685 45.1754C96.4311 44.5413 96.6864 43.545 96.5516 42.2697C96.3304 40.1786 94.7109 36.306 90.3779 32.6442C88.3483 30.929 87.1294 29.2595 85.7841 27.4168C84.2573 25.3256 82.5676 23.0112 79.3451 20.1537C80.005 18.6633 81.1716 15.2038 80.5592 13.2892C79.9469 11.3745 79.5352 10.3056 79.4059 10.0104C79.6724 9.40454 80.1706 8.08965 80.0311 7.67714C79.9757 7.51329 79.8516 7.25215 79.7119 6.95806C79.412 6.32661 79.0399 5.54324 79.1198 5.24476C79.2371 4.80727 78.4012 4.427 77.9246 4.4556C77.8492 4.46013 77.7654 4.46636 77.6775 4.47289C77.21 4.50765 76.6239 4.55122 76.534 4.39559C76.4272 4.21068 75.5418 4.59863 75.3178 4.85121C75.2469 4.93116 75.061 5.08988 74.8303 5.28675C74.3323 5.71191 73.6257 6.315 73.4192 6.68699C73.1171 7.23124 72.8149 7.77548 72.4451 7.98899C72.3569 8.03992 72.1868 8.13113 71.9683 8.24829C71.2706 8.62234 70.0796 9.26086 69.4867 9.69707C69.2306 9.68056 68.6075 9.71158 68.1637 9.9678C67.609 10.2881 66.8484 11.9599 66.6921 12.5432C66.397 12.6725 65.7832 13.0186 65.6895 13.3686C65.6671 13.4523 65.6076 13.5888 65.5314 13.764C65.2087 14.5053 64.5847 15.9389 65.1892 16.9858C64.8027 17.4553 64.0434 18.4606 64.0977 18.7252C64.152 18.9899 64.5543 19.1602 64.7487 19.2123C64.7347 20.0421 64.9485 21.2665 65.9153 19.5249C66.2071 19.603 66.8139 19.6719 66.9077 19.3219L67.2985 17.8636C67.6577 18.2724 68.3529 19.1777 68.2591 19.5277C68.2084 19.717 67.9499 20.0262 67.6753 20.3548C67.3153 20.7855 66.9276 21.2494 66.9438 21.5197C66.9576 21.749 66.7984 21.6787 66.584 21.5841C66.3527 21.4819 66.0571 21.3514 65.8449 21.5379C65.5178 21.8254 65.429 22.3122 65.4255 22.5196C65.0106 22.5126 64.2797 22.7127 64.6754 23.569C64.4775 23.7244 64.1457 24.1461 64.4019 24.5898C64.7221 25.1446 62.7615 21.9621 62.548 21.5923C62.3345 21.2225 61.4204 21.1339 61.0897 21.2015C60.7589 21.2692 60.7904 19.402 61.0534 19.0036C61.3165 18.6052 62.4077 16.8657 62.301 16.6808C62.1943 16.4959 62.5746 15.66 62.7986 15.4074C63.0226 15.1548 63.2466 14.9023 63.1398 14.7174C63.0544 14.5694 63.1563 14.4613 63.218 14.4257C63.034 13.7512 62.6447 12.3652 62.5593 12.2173C62.5153 12.1411 62.5872 11.8306 62.6692 11.4761C62.7863 10.9703 62.9241 10.375 62.7756 10.2434C62.6493 10.1314 62.6982 9.94908 62.7665 9.69388C62.8349 9.43867 62.9228 9.11055 62.8747 8.7069C62.8677 8.64841 62.8608 8.58339 62.8534 8.51301C62.7583 7.61208 62.5706 5.83467 60.875 5.67027C60.0997 5.5951 59.4176 5.06702 58.6629 4.48269C57.6381 3.68919 56.4792 2.79197 54.771 2.78432C54.7059 3.02737 54.9178 3.63642 56.2865 4.12821C57.6552 4.61999 58.4054 5.16485 58.6093 5.3758C57.8897 5.33928 56.3765 5.30895 56.0807 5.47975C55.9363 5.56311 55.4986 5.4964 54.9549 5.41352C54.106 5.28414 52.9988 5.11538 52.3463 5.41693C51.49 5.81269 50.8731 6.63729 50.6717 7.00012C50.2402 7.24922 49.2857 7.97292 48.9189 8.87498C48.8332 9.08584 48.7169 9.28851 48.6061 9.48143C48.1247 10.3201 47.749 10.9746 50.4527 11.3179C50.7599 11.9212 51.4753 13.2174 51.8795 13.5758C52.0598 13.7357 52.2389 13.975 52.4326 14.2339C52.7814 14.7001 53.1778 15.2299 53.7153 15.4744L53.559 16.0577C52.4765 15.8197 50.0044 15.3241 48.7752 15.2448C48.1573 15.2049 47.7517 15.2219 47.4117 15.2362C46.9061 15.2574 46.5456 15.2726 45.8481 15.0857C44.6815 14.7731 43.3195 15.1896 42.9496 15.4031C42.7791 15.5016 41.993 15.1693 41.0733 14.7804C39.9982 14.3259 38.7404 13.7942 38.0696 13.7829C37.4796 13.773 36.9646 13.2215 36.4338 12.6531C35.8446 12.0221 35.236 11.3703 34.4838 11.4154C33.3401 11.4841 28.1099 9.34281 25.6377 8.26361L25.6873 7.49538L23.8592 7.31814L23.5961 7.71656C22.7897 7.03159 20.2744 5.76366 16.6639 6.17169L5.29965 2.50144C4.86054 1.02917 3.32811 -1.3404 0.711238 0.959374C0.234672 0.987979 -0.465985 1.26914 0.437643 1.98017C0.345534 3.10169 1.12646 5.0094 4.98705 3.66808L13.1431 6.47869C12.5138 6.88316 11.679 7.74316 13.3748 7.94747L16.38 7.81491C16.1786 8.17774 16.3299 9.05189 17.3799 9.33323C17.3733 9.38789 17.3622 9.45006 17.3503 9.5167C17.2853 9.88082 17.1966 10.3782 17.6897 10.5103C17.819 10.8055 18.2896 11.4213 19.1375 11.5235C19.7878 11.6018 20.4969 11.4606 21.0916 11.3422C21.4662 11.2676 21.7954 11.202 22.036 11.206C21.9283 11.8024 21.8744 12.9758 22.5202 12.8988C23.1411 12.8247 23.8589 13.4238 24.3386 13.8241C24.4826 13.9443 24.6052 14.0466 24.6972 14.1073C24.7651 14.1521 24.8804 14.2233 25.0259 14.3131C25.734 14.75 27.1565 15.6277 27.3012 16.0554C27.3059 16.0693 27.3108 16.0841 27.3161 16.0998C27.5079 16.6704 28.1049 18.4464 29.4963 18.3629C30.1792 18.3219 30.1254 18.3688 29.9855 18.4906C29.8326 18.6237 29.5768 18.8464 30.0692 19.1416C30.4443 19.3665 30.7225 19.4912 30.9166 19.5782C31.2103 19.7098 31.3115 19.7552 31.2644 19.9308C31.1863 20.2225 31.457 21.5454 32.108 22.0324C32.759 22.5195 38.842 26.6502 41.3525 25.4473C41.4581 29.331 42.2018 38.9604 44.4888 45.8252C45.0981 47.6542 47.4024 49.2939 50.6974 50.7387L102.722 51.239C103.119 51.2229 103.481 51.1589 103.797 51.1031C104.751 50.9342 105.282 50.8402 105.098 52.3747C105.034 52.9028 104.985 53.5222 104.933 54.1679C104.779 56.1136 104.605 58.2984 103.962 58.9475C103.105 59.812 103.258 61.5724 103.326 61.9032C103.394 62.2339 103.451 63.1871 103.227 63.4396C103.048 63.6417 102.367 63.7303 102.05 63.7494Z" fill="#EBB385"/>
<path d="M10.4941 123.997V124.87H26.7619L56.3496 85.784L62.4637 92.7715V123.123L52.965 123.997V124.87H79.8232V123.997L70.8705 123.123V51.2832L79.8232 50.4097V49.5363H52.965V50.4097L62.4637 51.2832V90.8063L32.7668 56.5238C31.6022 55.1409 31.0199 54.0127 31.0199 53.1392C31.0199 52.4114 31.6022 51.8655 32.7668 51.5015C33.8585 51.1376 36.0285 50.4689 39.4495 50.1049L39.7708 49.5363H17.2632V50.4097C21.4848 51.1376 24.3599 51.8291 25.8884 52.4842C27.3442 53.1392 28.9091 54.413 30.5832 56.3055L50.5631 79.2332L19.0101 120.503C17.7727 121.886 16.6445 122.832 15.6255 123.342C14.5337 123.779 12.9688 123.997 10.9308 123.997H10.4941Z" fill="#EBB385"/>
<path fill-rule="evenodd" clip-rule="evenodd" d="M82.141 49.6659L81.0567 50.9761H71.0305V84.4943H87.1891C88.936 84.4943 90.1733 84.2031 90.9012 83.6208C91.6291 83.0386 92.1386 81.9104 92.4297 80.2363L94.2858 71.3927H95.5959V99.3427H94.2858L92.4297 90.4992C92.1386 88.8251 91.6291 87.6969 90.9012 87.1146C90.1733 86.5323 88.936 86.2412 87.1891 86.2412H71.0305V123.69H95.4868C97.2336 123.69 98.5074 123.435 99.308 122.926C100.109 122.343 100.837 121.251 101.492 119.65L108.698 101.963L109.898 102.072L107.169 125H53.6709V124.127L62.6236 123.253V51.4128L53.6709 50.5394V49.6659H82.141Z" fill="#EBB385"/>
<path d="M141.846 80H139.893L125.721 62.0581L121.996 65.601V80H120.316V48.2042H121.996V62.6486L121.86 64.1021L122.723 63.0574L138.303 48.2042H140.256L126.811 61.0133L141.846 80ZM159.089 68.0538L159.044 80H157.408V68.0538L145.644 48.2042H147.325L157.681 65.5102L158.226 66.7366H158.271L158.771 65.5102L169.082 48.2042H170.763L159.089 68.0538ZM176.79 48.2042H178.471V80H176.79V48.2042ZM211.417 48.2042H213.188L199.107 81.4535L185.026 48.2042H186.798L198.699 76.2753L199.107 77.638L199.516 76.2753L211.417 48.2042ZM121.133 125V93.2042H139.711V94.7031H122.814V108.239H137.94V109.738H122.814V123.501H140.347V125H121.133ZM148.05 125L158.634 108.784L148.504 93.2042H150.367L159.133 106.695L159.724 107.921L160.314 106.695L168.945 93.4767H170.807L160.678 109.057L171.08 125H169.172L160.178 111.146L159.542 109.874L158.952 111.146L149.958 125H148.05ZM201.158 121.911L202.43 123.138C199.886 124.621 197.146 125.363 194.209 125.363C189.727 125.363 185.896 123.789 182.717 120.639C179.567 117.46 177.993 113.629 177.993 109.148C177.993 104.636 179.567 100.79 182.717 97.6102C185.896 94.4306 189.727 92.8408 194.209 92.8408C197.176 92.8408 199.901 93.5675 202.385 95.0211L201.204 96.3383C198.963 95.1271 196.631 94.5214 194.209 94.5214C190.211 94.5214 186.79 95.9598 183.943 98.8366C181.097 101.713 179.673 105.15 179.673 109.148C179.673 113.145 181.097 116.567 183.943 119.413C186.79 122.26 190.211 123.683 194.209 123.683C196.661 123.683 198.978 123.092 201.158 121.911ZM209.285 125V93.2042H210.966V123.501H228.499V125H209.285ZM256.923 114.734C256.923 118.096 255.939 120.715 253.971 122.593C252.033 124.44 249.519 125.363 246.431 125.363C243.372 125.363 240.874 124.44 238.936 122.593C237.028 120.715 236.074 118.096 236.074 114.734V93.2042H237.755V114.598C237.755 117.505 238.557 119.776 240.162 121.412C241.767 123.047 243.872 123.864 246.476 123.864C249.08 123.864 251.185 123.047 252.79 121.412C254.425 119.776 255.243 117.505 255.243 114.598V93.2042H256.923V114.734ZM280.104 95.7478L279.06 97.1105C277.334 95.4753 275.411 94.6577 273.291 94.6577C271.171 94.6577 269.566 95.2785 268.476 96.52C267.416 97.7616 266.887 99.2454 266.887 100.971C266.887 102.667 267.356 103.984 268.295 104.923C269.233 105.832 270.551 106.589 272.246 107.194L273.791 107.694C276.274 108.512 277.864 109.148 278.56 109.602C279.257 110.056 279.877 110.525 280.422 111.01C280.968 111.464 281.391 111.949 281.694 112.463C282.421 113.705 282.784 115.068 282.784 116.551C282.784 119.186 281.861 121.321 280.014 122.956C278.166 124.561 275.895 125.363 273.2 125.363C269.839 125.363 266.826 123.986 264.161 121.23L265.342 120.004C267.704 122.487 270.278 123.728 273.064 123.728C275.214 123.728 277.091 123.077 278.696 121.775C280.301 120.473 281.104 118.777 281.104 116.688C281.104 115.719 280.877 114.825 280.422 114.008C279.999 113.19 279.529 112.554 279.014 112.1C278.53 111.615 277.788 111.131 276.789 110.646C275.608 110.132 274.094 109.587 272.246 109.011C267.704 107.649 265.342 105.15 265.16 101.517C265.039 99.2757 265.66 97.3073 267.023 95.6116C268.385 93.8855 270.384 93.0225 273.019 93.0225C275.653 93.0225 278.015 93.9309 280.104 95.7478ZM290.615 93.2042H292.295V125H290.615V93.2042ZM325.241 93.2042H327.013L312.932 126.454L298.851 93.2042H300.622L312.523 121.275L312.932 122.638L313.341 121.275L325.241 93.2042ZM332.858 125V93.2042H351.436V94.7031H334.539V108.239H349.664V109.738H334.539V123.501H352.072V125H332.858Z" fill="#EBB385"/>
</svg>
