<?xml version="1.0" encoding="utf-8"?>
<!-- Generator: Adobe Illustrator 22.1.0, SVG Export Plug-In . SVG Version: 6.00 Build 0)  -->
<svg version="1.1" id="logo" xmlns="http://www.w3.org/2000/svg" xmlns:xlink="http://www.w3.org/1999/xlink" x="0px" y="0px"
	 viewBox="0 0 306.3457 42.2958" style="enable-background:new 0 0 306.3457 42.2958;" xml:space="preserve">
<style type="text/css">
	.st0{fill:#E7BB89;}
	.st1{fill:#E6480F;}
</style>
<g>
	<polygon class="st0" points="169.209,11.3929 165.651,7.8346 157.5515,15.8329 148.9058,6.6052 145.3478,10.1635 154.9257,20.2254 
		154.9257,35.802 159.9579,35.802 159.9579,20.5535 	"/>
	<polygon class="st0" points="206.1146,17.9911 205.8664,12.9651 188.8983,13.8025 188.8983,6.794 205.9573,5.9524 205.7091,0.9264 
		183.6499,2.0149 183.8661,6.3959 183.8661,14.0507 183.8072,14.054 183.8661,15.2485 183.8661,35.802 188.8983,35.802 
		188.8983,18.8409 	"/>
	<path class="st0" d="M233.2945,5.8547l0.2017,4.2206c0,0-4.6128,0-4.9987,3.6763c-0.5284,5.0344,6.8333,7.5937,6.9906,13.8315
		c0.2616,10.3756-12.563,8.4766-12.563,8.4766l-0.208-4.3271c0,0,6.8827,0.8128,7.5816-3.206
		c0.8782-5.0497-7.391-7.9152-6.5523-15.3062C224.6562,5.2025,233.2945,5.8547,233.2945,5.8547z"/>
	<polygon class="st0" points="25.1502,35.7053 24.0331,1.9326 19.0042,2.0992 19.7823,25.652 5.4196,2.0902 4.7021,2.0886 
		0.3874,2.082 0,35.8466 5.0321,35.8548 5.3106,11.5649 20.1205,35.8716 	"/>
	<path class="st0" d="M38.9347,36.449c-5.5187,0-9.2273-5.3909-9.2273-13.4126c0-9.4206,3.4776-14.823,9.5418-14.823
		c3.933,0,8.6212,2.3556,8.6212,13.5732C47.8704,35.0206,41.6212,36.449,38.9347,36.449z M39.2492,13.2456
		c-4.0706,0-4.5096,6.8472-4.5096,9.7908c0,2.8994,0.8764,8.3804,4.1951,8.3804c3.6218,0,3.9035-7.3714,3.9035-9.6303
		C42.8383,13.2456,40.2937,13.2439,39.2492,13.2456z"/>
	<path class="st0" d="M96.3192,36.2737c-7.9807,0-11.5534-8.6327-11.5534-17.1868C84.7658,6.9569,89.1313,0,96.7418,0
		c7.124,0,10.736,5.8561,10.736,17.4046C107.4778,34.4358,99.674,36.2737,96.3192,36.2737z M96.7418,5.0322
		c-6.2673,0-6.9438,9.8285-6.9438,14.0547c0,4.5146,1.3727,12.1546,6.5212,12.1546c5.5302,0,6.1264-9.6761,6.1264-13.8369
		C102.4456,6.3149,99.1908,5.0322,96.7418,5.0322z"/>
	<path class="st0" d="M69.2278,30.8435c-1.9051,0.2555-5.0387,0.2736-7.3337,0.1605c-0.0041-3.6234,0.1532-10.3248,0.4882-16.8104
		c3.2221,0.165,5.8643,0.3035,5.9282,0.3067l0.2621-5.0256c-0.2555-0.0131-2.7987-0.1458-5.8881-0.3039
		c0.1368-1.9583,0.2916-3.8118,0.466-5.4425L58.1478,3.191c-0.1884,1.756-0.3522,3.6984-0.4939,5.7247
		c-3.2025-0.1601-6.0642-0.2973-6.8464-0.3174l-0.1311,5.0289c0.738,0.0197,3.5284,0.154,6.6768,0.3116
		c-0.3809,7.3853-0.5127,14.7976-0.4882,17.7908c0.0164,2.2425,1.7822,4.1132,4.0231,4.259C61.9889,36.059,63.319,36.1,64.6753,36.1
		c1.8756,0,3.7971-0.0786,5.2173-0.267L69.2278,30.8435z"/>
	
		<rect x="121.8799" y="16.6245" transform="matrix(0.0065 -1 1 0.0065 118.7514 157.8072)" class="st0" width="33.8278" height="5.0324"/>
	<circle class="st0" cx="214.1498" cy="9.0008" r="2.9921"/>
	<rect x="211.6284" y="15.4111" class="st0" width="5.0322" height="20.4433"/>
	<path class="st0" d="M128.0095,14.7117c-2.1008-0.8707-6.6736,0.0041-10.5509,1.0332l0.0311-1.9358l-5.0322-0.0786l-0.3522,22.0846
		l5.0322,0.0786l0.2375-14.8959c3.4809-0.9775,6.8488-1.6565,8.2396-1.6717c0.7191,2.3474,0.8092,10.0087,0.4161,16.3726
		l5.0223,0.3112C132.2653,16.4742,129.284,15.2391,128.0095,14.7117z"/>
	<path class="st1" d="M284.6107,24.2844c0,0,16.9155-4.0703,21.735-16.8265c0,0-23.2005-3.6235-33.9051,8.0104
		c0.9695,4.1542,1.8028,9.3625,1.2663,18.477v0.0638c15.1333,10.5472,32.6388,7.1017,32.6388,7.1017
		C301.5262,28.3547,284.6107,24.2844,284.6107,24.2844z"/>
	<path class="st0" d="M257.9271,14.8624c-2.6823-1.0885-7.8538,0.2502-11.5919,1.5062l-0.3301-14.493l-5.0322,0.1147l0.7715,33.905
		l5.0322-0.1147l-0.3211-14.1158c3.6218-1.3084,7.2977-2.2143,8.9439-2.2143c0.0098,0,0.0197,0,0.0295,0
		c0.6552,2.4424,0.9632,10.0202,0.8354,16.353l5.0322,0.1016C261.6881,16.3907,259.3342,15.4341,257.9271,14.8624z"/>
</g>
</svg>
