<?xml version="1.0" encoding="utf-8"?>
<!-- Generator: Adobe Illustrator 22.1.0, SVG Export Plug-In . SVG Version: 6.00 Build 0)  -->
<svg version="1.1" id="Слой_1" xmlns="http://www.w3.org/2000/svg" xmlns:xlink="http://www.w3.org/1999/xlink" x="0px" y="0px"
	 viewBox="0 0 208.0797 194.3811" style="enable-background:new 0 0 208.0797 194.3811;" xml:space="preserve">
<style type="text/css">
	.st0{fill:#E7BB89;}
	.st1{fill:#E4BB88;}
	.st2{fill:none;stroke:#FFFFFF;stroke-width:0.9413;stroke-miterlimit:10;}
	.st3{fill:none;stroke:#FFFFFF;stroke-width:0.9414;stroke-miterlimit:10;}
	.st4{fill:#FFFFFF;}
	.st5{fill:#12100B;}
	.st6{fill:#E74910;}
</style>
<g>
	<g>
		<g>
			<path class="st0" d="M54.4914,192.6169v-8.1371h4.5463v0.8626h-3.3929v2.6122h2.8431v0.8516h-2.8431v2.947h3.6287v0.8638h-4.7821
				V192.6169z"/>
			<path class="st0" d="M61.898,194.3811v-2.782h0.6439c0.6036-0.9677,1.0263-1.9231,1.267-2.8676
				c0.2395-0.9432,0.3604-2.11,0.3604-3.4992v-0.7526h4.4424v7.1194h1.1216v2.782h-1.1216v-1.7643h-5.5922v1.7643H61.898z
				 M67.4559,191.5991v-6.2739h-2.1332v0.132c0,2.402-0.485,4.4485-1.4564,6.1419H67.4559z"/>
			<path class="st0" d="M72.1146,192.6169l3.228-8.1371h1.1436l3.1779,8.1371h-1.245l-0.8846-2.2493h-3.4503l-0.898,2.2493H72.1146z
				 M74.414,189.5038h2.7833l-1.3904-3.5139L74.414,189.5038z"/>
			<path class="st0" d="M88.2997,192.6169v-8.1371h1.1534v6.4731l3.9317-6.4731h1.1546v8.1371h-1.1546v-6.4755l-3.9317,6.4755
				H88.2997z"/>
			<path class="st0" d="M106.0353,192.6169v-7.2746h-2.8871v-0.8626h6.9276v0.8626h-2.8871v7.2746H106.0353z"/>
			<path class="st0" d="M112.2103,192.6169l3.228-8.1371h1.1436l3.1779,8.1371h-1.245l-0.8846-2.2493h-3.4503l-0.898,2.2493
				H112.2103z M114.5097,189.5038h2.7833l-1.3904-3.5139L114.5097,189.5038z"/>
			<path class="st0" d="M122.8839,192.6169v-8.1371h1.1534v3.4308h3.8707v-3.4308h1.1558v8.1371h-1.1558v-3.8438h-3.8707v3.8438
				H122.8839z"/>
			<path class="st0" d="M133.1067,192.6169v-8.1371h1.1534v7.1194h3.8706v-7.1194h1.1558v7.1194h1.0825v2.782h-1.0825v-1.7643
				H133.1067z"/>
			<path class="st0" d="M143.7094,192.6169v-8.1371h1.1534v3.4907h0.6219c0.6451,0,1.1143,0.0269,1.4075,0.0794
				c0.2932,0.0538,0.5718,0.1637,0.8357,0.3323c0.6231,0.3959,0.9347,0.9811,0.9347,1.7545c0,0.9053-0.3543,1.5798-1.0605,2.0233
				c-0.4839,0.3043-1.289,0.457-2.4143,0.457h-1.4784V192.6169z M144.8628,191.769h0.4081c0.7917,0,1.3428-0.1124,1.6543-0.3397
				c0.3885-0.2859,0.5828-0.6915,0.5828-1.2157c0-0.4911-0.1637-0.8467-0.4924-1.0667c-0.3274-0.2199-0.8565-0.3299-1.5859-0.3299
				h-0.5669V191.769z M149.5093,192.6169v-8.1371h1.1546v8.1371H149.5093z"/>
		</g>
		<polygon class="st0" points="133.5156,154.0851 130.8619,151.4311 124.8207,157.3968 118.3721,150.5141 115.7184,153.1681 
			122.8622,160.673 122.8622,172.2911 126.6156,172.2911 126.6156,160.9177 		"/>
		<polygon class="st0" points="166.8887,159.0065 166.7036,155.2577 154.0476,155.8824 154.0476,150.6549 166.7714,150.0272 
			166.5863,146.2784 150.133,147.0903 150.2943,150.358 150.2943,156.0674 150.2503,156.0699 150.2943,156.9609 150.2943,172.2911 
			154.0476,172.2911 154.0476,159.6403 		"/>
		<path class="st0" d="M187.1614,149.9543l0.1504,3.148c0,0-3.4406,0-3.7284,2.7421c-0.3941,3.755,5.0968,5.6639,5.2141,10.3165
			c0.1951,7.7388-9.3704,6.3224-9.3704,6.3224l-0.1552-3.2275c0,0,5.1336,0.6063,5.6549-2.3912
			c0.655-3.7664-5.5127-5.9037-4.8872-11.4164C180.7183,149.4679,187.1614,149.9543,187.1614,149.9543z"/>
		<polygon class="st0" points="18.7588,172.219 17.9255,147.0289 14.1746,147.1532 14.755,164.7205 4.0423,147.1465 
			3.5071,147.1453 0.2889,147.1404 0,172.3244 3.7533,172.3305 3.961,154.2134 15.0073,172.343 		"/>
		<path class="st0" d="M29.0402,172.7737c-4.1162,0-6.8824-4.0209-6.8824-10.0041c0-7.0266,2.5939-11.056,7.117-11.056
			c2.9335,0,6.4303,1.7569,6.4303,10.1238C35.7051,171.7083,31.044,172.7737,29.0402,172.7737z M29.2748,155.467
			c-3.0362,0-3.3636,5.1071-3.3636,7.3027c0,2.1626,0.6537,6.2507,3.129,6.2507c2.7014,0,2.9115-5.4981,2.9115-7.183
			C31.9517,155.467,30.0066,155.467,29.2748,155.467z"/>
		<path class="st0" d="M79.1494,172.6429c-5.9526,0-8.6173-6.4389-8.6173-12.8191c0-9.0474,3.2561-14.2364,8.9325-14.2364
			c5.3136,0,8.0077,4.3679,8.0077,12.9816C87.4723,171.2721,81.6516,172.6429,79.1494,172.6429z M79.4646,149.3409
			c-4.6746,0-5.1792,7.3308-5.1792,10.483c0,3.3673,1.0239,9.0657,4.864,9.0657c4.1248,0,4.5695-7.2171,4.5695-10.3205
			C83.7189,150.2975,81.2912,149.3409,79.4646,149.3409z"/>
		<path class="st0" d="M51.6349,168.5927c-1.4209,0.1906-3.7582,0.204-5.47,0.1198c-0.0031-2.7026,0.1142-7.701,0.3641-12.5384
			c2.4033,0.1231,4.374,0.2263,4.4217,0.2288l0.1955-3.7485c-0.1906-0.0098-2.0874-0.1087-4.3917-0.2266
			c0.102-1.4607,0.2175-2.8431,0.3476-4.0594l-3.7314-0.4008c-0.1405,1.3098-0.2627,2.7585-0.3684,4.2699
			c-2.3886-0.1194-4.5231-0.2217-5.1065-0.2367l-0.0977,3.7509c0.5504,0.0147,2.6317,0.1149,4.98,0.2325
			c-0.2841,5.5085-0.3824,11.0371-0.3641,13.2696c0.0122,1.6726,1.3293,3.0679,3.0007,3.1767
			c0.821,0.0525,1.8132,0.0831,2.8248,0.0831c1.399,0,2.8321-0.0586,3.8914-0.1992L51.6349,168.5927z"/>
		
			<rect x="98.2172" y="157.9833" transform="matrix(0.0065 -1 1 0.0065 -49.7443 269.6514)" class="st0" width="25.2311" height="3.7535"/>
		<circle class="st0" cx="172.8819" cy="152.3009" r="2.2317"/>
		<rect x="171.0012" y="157.0822" class="st0" width="3.7534" height="15.248"/>
		<path class="st0" d="M102.7863,156.5605c-1.567-0.6494-4.9776,0.0031-7.8696,0.7706l0.0232-1.4438l-3.7534-0.0587l-0.2627,16.4723
			l3.7534,0.0587l0.1772-11.1104c2.5963-0.7291,5.1083-1.2355,6.1456-1.2468c0.5364,1.7508,0.6036,7.4651,0.3103,12.2119
			l3.746,0.2321C105.9605,157.8751,103.7368,156.9539,102.7863,156.5605z"/>
		<path class="st0" d="M205.5341,156.6729c-2.0007-0.8119-5.8579,0.1866-8.646,1.1234l-0.2462-10.8098l-3.7534,0.0855
			l0.5755,25.2887l3.7534-0.0855l-0.2395-10.5285c2.7014-0.9759,5.4431-1.6516,6.671-1.6516c0.0073,0,0.0146,0,0.022,0
			c0.4887,1.8217,0.7184,7.4737,0.6231,12.1972l3.7534,0.0757C208.3393,157.8128,206.5836,157.0993,205.5341,156.6729z"/>
	</g>
	<g>
		<g>
			<path class="st0" d="M156.9769,42.2997c-2.0361-2.6408-4.1014-5.3337-5.8027-8.1142c-0.9078-0.4197-1.8641-0.8341-2.8525-1.2425
				c1.5865,3.662,4.2919,7.4995,6.804,11.0533c4.7058,6.6554,9.568,13.5325,4.2056,17.5812
				c-3.6525,2.7556-10.8526,1.9051-20.1094-8.7395c-6.1161-7.0336-13.4988-11.1703-19.2631-10.7751
				c-3.2379,0.2092-5.8748,1.8122-7.8381,4.7653c-5.2075,7.8367,3.1801,16.3046,6.8927,19.4873
				c11.6289,5.0617,17.3,12.5567,17.3,12.5567c-31.7192,5.4711-48.2165-16.5392-48.2165-16.5392
				c1.6561-0.2098,3.2567-0.3401,4.8252-0.4279l0.0105-0.0068c0.6059-0.7885,6.8925-13.4947,2.0218-21.8811
				c-2.2801-3.9199-6.3886-7.5057-10.3623-10.9727c-0.7708-0.6725-1.5451-1.3481-2.3101-2.0297H54.8625
				c-0.0027,0.0001-0.005,0.0018-0.0077,0.0019c1.6845,3.758,2.5316,25.1944-0.7115,28.4245
				c-3.243,3.2299-19.9582,1.301-19.9582,1.301s-0.0446-1.0164,0.0078-2.2329c-0.1338,1.5255-0.5099,8.5586,2.9881,16.2411
				c3.7453-1.5056,7.5498-4.1539,11.2472-6.7359c6.647-4.644,13.5231-9.446,20.6761-7.9737
				c5.1398,1.0648,8.7052,4.1869,9.7842,8.5663c1.0448,4.237,0.4182,13.1317-14.4209,26.0728
				c2.602,0.6013,5.2889,1.0735,8.0051,1.4455c3.8188-7.1727,8.5981-11.3676,14.2539-12.4934
				c6.7034-1.3167,12.9664,2.2257,16.2942,5.6634c2.0946,2.1675,3.4149,4.7508,4.0043,7.5432
				c1.3381-0.0842,2.4814-0.1635,3.3842-0.2234c15.4678-1.0246,25.2349-5.8729,32.2466-11.6366
				c-0.0521-0.376-0.0849-0.7509-0.1784-1.1284c-1.3395-5.3889-6.8875-9.8922-16.0451-13.0219
				c-8.115-2.7732-13.1113-7.5694-13.3632-12.8285l-0.005-0.1573c-0.0899-3.4972,1.9219-6.4754,5.2511-7.808
				c4.02-1.6129,10.6263-0.7767,17.1121,6.3841c7.6547,8.4561,14.8391,13.4055,20.4234,14.2229
				c3.0023-3.6371,5.8313-6.5857,9.3632-7.9829C165.5407,53.419,161.3794,48.0096,156.9769,42.2997z M63.435,37.415
				c-1.6757,0-3.0388-1.3631-3.0388-3.0388c0-1.675,1.3631-3.0381,3.0388-3.0381c1.6757,0,3.038,1.3631,3.038,3.0381
				C66.473,36.0519,65.1106,37.415,63.435,37.415z M85.579,74.8099c-1.675,0-3.0381-1.3631-3.0381-3.0387
				c0-1.675,1.3631-3.0381,3.0381-3.0381s3.038,1.3631,3.038,3.0381C88.6171,73.4468,87.254,74.8099,85.579,74.8099z
				 M113.3039,88.9068c-1.675,0-3.038-1.3631-3.038-3.0388c0-1.675,1.3631-3.0381,3.038-3.0381
				c1.6757,0,3.0388,1.3631,3.0388,3.0381C116.3426,87.5437,114.9796,88.9068,113.3039,88.9068z"/>
			<path class="st0" d="M98.4541,37.983c4.3213,7.425,2.351,17.9445-0.8555,23.8245c4.6626,0.0774,8.8917,0.6676,12.6962,1.59
				c-3.9133-5.4193-6.2138-12.3694-1.8138-18.9885c2.7176-4.0906,6.5885-6.41,11.1944-6.708
				c7.2201-0.4629,15.7582,4.119,22.8449,12.2694c8.1036,9.3188,12.9814,9.0191,14.1775,8.1185
				c1.8348-1.3854-1.1054-5.861-5.139-11.5671c-3.4355-4.8579-7.2001-10.1943-8.5075-15.5119
				c-3.1508-1.0195-6.6591-1.9231-10.6292-2.6075c-2.3729,3.7586-4.9963,6.2837-8.2449,6.2837c-0.324,0-0.6544-0.0251-0.992-0.0762
				c-1.7249-0.2636-3.1429-1.176-4.1007-2.6383c-0.835-1.2749-1.2753-2.9688-1.4445-4.9196
				c-0.7579-0.0179-1.5144-0.0372-2.3022-0.0372H88.4186C92.2681,30.3908,96.0826,33.9027,98.4541,37.983z M136.4906,33.6554
				c1.675,0,3.038,1.3631,3.038,3.038c0,1.6757-1.3631,3.0388-3.038,3.0388c-1.6757,0-3.0388-1.3631-3.0388-3.0388
				C133.4519,35.0185,134.8149,33.6554,136.4906,33.6554z M105.5536,30.4882c1.6757,0,3.0388,1.3631,3.0388,3.0388
				c0,1.6749-1.3631,3.038-3.0388,3.038s-3.0388-1.3631-3.0388-3.038C102.5148,31.8513,103.8779,30.4882,105.5536,30.4882z"/>
		</g>
		<path class="st0" d="M63.435,32.7997c-0.8692,0-1.5772,0.7072-1.5772,1.5765c0,0.8699,0.7079,1.5772,1.5772,1.5772
			s1.5765-0.7072,1.5765-1.5772C65.0114,33.507,64.3042,32.7997,63.435,32.7997z"/>
		<path class="st0" d="M105.5536,31.9498c-0.8692,0-1.5772,0.7072-1.5772,1.5772c0,0.8692,0.7079,1.5764,1.5772,1.5764
			s1.5772-0.7072,1.5772-1.5764C107.1308,32.657,106.4228,31.9498,105.5536,31.9498z"/>
		<path class="st1" d="M136.4906,38.2706c0.8692,0,1.5764-0.7072,1.5764-1.5772c0-0.8692-0.7072-1.5764-1.5764-1.5764
			c-0.87,0-1.5772,0.7072-1.5772,1.5764C134.9134,37.5634,135.6207,38.2706,136.4906,38.2706z"/>
		<path class="st0" d="M85.579,70.1947c-0.87,0-1.5765,0.7072-1.5765,1.5765c0,0.8699,0.7065,1.5772,1.5765,1.5772
			c0.8692,0,1.5765-0.7072,1.5765-1.5772C87.1555,70.9019,86.4483,70.1947,85.579,70.1947z"/>
		<path class="st0" d="M113.3039,84.2915c-0.8692,0-1.5764,0.7072-1.5764,1.5765c0,0.8699,0.7072,1.5772,1.5764,1.5772
			c0.87,0,1.5772-0.7072,1.5772-1.5772C114.8811,84.9988,114.1739,84.2915,113.3039,84.2915z"/>
		<path class="st0" d="M132.4259,55.1374c-5.0909-5.6224-9.8486-6.446-12.6058-5.3453c-1.7415,0.6973-2.7547,2.1587-2.7103,3.9106
			c0.1264,3.5332,4.2007,7.0973,10.6329,9.2953c10.1512,3.4698,16.3189,8.4749,18.3718,14.8815
			c2.6513-2.5899,4.8712-5.2474,6.906-7.7606C147.9446,68.7014,141.0909,64.7072,132.4259,55.1374z"/>
		<path class="st0" d="M134.6094,53.1603c-6.1042-6.7418-12.2062-7.575-15.8834-6.102c-2.8887,1.1566-4.6357,3.7313-4.5589,6.7195
			l0.0054,0.1674c0.2291,4.7904,4.946,9.2161,12.6174,11.8381c9.5291,3.2574,15.3241,8.0297,16.7581,13.8011
			c0.0456,0.1841,0.051,0.3663,0.0874,0.5501c0.5441-0.471,1.0589-0.9495,1.5708-1.429
			c-1.7746-6.2888-7.7592-11.2232-17.8211-14.6634c-6.9795-2.3859-11.2332-6.239-11.3786-10.3062
			c-0.0564-2.2391,1.216-4.0939,3.4041-4.9693c3.1-1.2429,8.3637-0.4131,13.8343,5.629
			c8.8106,9.7314,15.6218,13.571,20.5235,14.8054c0.434-0.538,0.8618-1.0673,1.2824-1.5854
			C149.2778,66.4689,142.1231,61.4608,134.6094,53.1603z"/>
		<path class="st0" d="M156.6113,36.9454c-1.1158-0.613-2.2973-1.2395-3.5637-1.8664c1.4724,2.221,3.1469,4.397,4.7963,6.5368
			c4.4204,5.7338,8.5981,11.1665,8.4893,16.6592c0.2892-0.0832,0.5738-0.1756,0.8739-0.2378
			c0.0013-0.0002,0.0025-0.0005,0.0038-0.0007c0.3097-0.0641,0.6353-0.0966,0.9568-0.1375
			c-0.0967-6.0127-4.5368-11.7915-8.8597-17.3981C158.4026,39.3266,157.4919,38.1403,156.6113,36.9454z"/>
		<path class="st0" d="M123.7876,30.6581c1.3765,0.2071,2.8074-0.9641,4.2287-2.8865c-2.0223-0.245-4.1367-0.4408-6.3758-0.566
			c0.1306,1.0512,0.3729,1.945,0.7868,2.577C122.7639,30.2965,123.1833,30.5669,123.7876,30.6581z"/>
		<path class="st0" d="M123.3519,33.5183c3.0401,0.4621,5.5646-1.753,7.8795-5.2992c-0.6433-0.1017-1.2761-0.2085-1.9424-0.2986
			c-1.7917,2.569-3.6642,4.138-5.668,3.8292c-0.9153-0.139-1.6084-0.5843-2.1177-1.3627c-0.5332-0.814-0.8488-1.918-0.9957-3.2289
			c-0.5868-0.0267-1.1681-0.0566-1.7703-0.0743c0.1632,1.7082,0.5508,3.1843,1.2706,4.2834
			C120.7889,32.5591,121.9453,33.3032,123.3519,33.5183z"/>
		<path class="st0" d="M86.9419,80.715c-5.2223,1.0389-9.6779,4.9304-13.2964,11.5732c0.6634,0.0835,1.3271,0.1535,1.9922,0.2255
			c3.2745-5.6913,7.2404-9.1138,11.6625-9.9932c5.5421-1.0906,10.7928,1.911,13.6061,4.8222
			c1.5774,1.6316,2.6208,3.5624,3.1389,5.6669c0.6516-0.0345,1.2698-0.069,1.8603-0.1041c-0.5641-2.536-1.777-4.8765-3.6784-6.8434
			C99.0933,82.8235,93.2021,79.4729,86.9419,80.715z"/>
		<path class="st0" d="M77.8173,64.8715c-0.9735-3.95-4.2304-6.775-8.9362-7.7502c-6.6888-1.3727-13.3659,3.287-19.8211,7.797
			c-3.7298,2.6057-7.5677,5.2745-11.4097,6.8299c0.2687,0.5408,0.5638,1.0829,0.8739,1.6263
			c3.9605-1.6368,7.8221-4.3173,11.5763-6.9395c5.6701-3.9601,11.0556-7.7217,16.3014-7.7217c0.7048,0,1.4071,0.0678,2.1068,0.2118
			c4.0429,0.8379,6.7156,3.1063,7.525,6.3883c1.5544,6.3023-3.9303,15.2026-15.0416,24.4746
			c0.7081,0.2029,1.4238,0.3956,2.1487,0.5775C78.1204,77.5313,78.8151,68.9187,77.8173,64.8715z"/>
		<path class="st2" d="M128.5195,88.5287"/>
		<g>
			<path class="st0" d="M95.5023,88.4133c-2.111-1.2924-7.7025-3.5951-14.0079,2.8711c-0.4947,0.5076-0.9174,1.0609-1.2957,1.6411
				c0.7228,0.0524,1.4376,0.0913,2.155,0.1327c0.144-0.1723,0.2637-0.3617,0.4223-0.5241c3.8604-3.9617,8.049-4.8824,11.7931-2.5956
				c1.3292,0.8135,2.4509,1.9948,3.2929,3.3204c0.6981-0.019,1.3861-0.0399,2.0499-0.0639
				C98.9058,91.2945,97.4024,89.5759,95.5023,88.4133z"/>
			<path class="st0" d="M80.7035,90.5143c6.8587-7.0362,13.0386-4.4715,15.3748-3.0435c2.219,1.3579,3.9642,3.409,5.0511,5.675
				c0.5989-0.0249,1.2075-0.0492,1.7708-0.0766c-0.4884-1.841-1.4063-3.5309-2.7874-4.9598
				c-2.6208-2.712-7.4974-5.5253-12.5975-4.5058c-3.9964,0.7946-7.6217,3.8891-10.676,9.039
				c0.719,0.0705,1.4343,0.1227,2.1512,0.1811C79.4743,92.0061,80.0163,91.2195,80.7035,90.5143z"/>
			<path class="st0" d="M93.9932,90.8809c-3.205-1.959-6.8353-1.1444-10.2487,2.2588c4.5359,0.2201,8.8927,0.2333,12.8067,0.1498
				C95.8489,92.3419,94.9926,91.4926,93.9932,90.8809z"/>
		</g>
		<path class="st0" d="M185.5842,58.4671c-0.5068-1.3317-1.4766-2.3069-2.8041-2.8192c-2.7635-1.0652-5.5931,0.3894-8.4984,3.1473
			c0.5118,0.2961,1.0057,0.6508,1.4836,1.063c1.8323-1.6935,3.5792-2.7639,5.1675-2.7639c0.4127,0,0.814,0.072,1.2041,0.2227
			c0.8647,0.3323,1.4456,0.9166,1.7758,1.7863c0.768,2.0208,0.172,5.2127-1.0593,8.7966c0.4428,0.4741,0.9023,0.9467,1.3912,1.4135
			C185.7981,65.0125,186.5803,61.0879,185.5842,58.4671z"/>
		<path class="st0" d="M182.8806,59.495c-0.2185-0.5742-0.57-0.9283-1.1409-1.1476c-1.3995-0.5446-3.2017,0.4677-5.1595,2.2725
			c1.6979,1.7031,3.3477,3.9775,5.4153,6.3252C183.0183,63.8421,183.5008,61.1271,182.8806,59.495z"/>
		<path class="st0" d="M66.5081,64.9402c0.9685,0,1.8063,0.252,2.481,0.8195c0.7098,0.5952,1.0689,1.3368,1.0982,2.2659
			c0.1636,5.0584-8.7542,13.7325-14.983,19.6977c0.5993,0.2513,1.1936,0.507,1.8147,0.7374
			c6.7185-6.4458,15.1395-14.8113,14.9563-20.4928c-0.0461-1.4238-0.6462-2.6609-1.736-3.5775
			c-4.5024-3.7851-12.4635,1.7218-20.8909,7.5526c-2.7237,1.8825-5.4927,3.7909-8.0942,5.3377
			c0.3666,0.4678,0.7542,0.9319,1.1597,1.3931c2.581-1.5505,5.2863-3.4179,7.9356-5.2501
			C56.3012,69.2367,62.5129,64.9402,66.5081,64.9402z"/>
		<path class="st0" d="M48.5938,71.0531c8.8115-6.0945,17.1133-11.8349,22.2561-7.5083c1.3368,1.1241,2.0725,2.6409,2.1286,4.3878
			c0.195,6.0325-8.0883,14.3948-14.8834,20.9293c0.5424,0.1866,1.0743,0.3838,1.6297,0.556
			c0.031-0.0256,0.0573-0.0515,0.0887-0.0771c11.0983-9.1363,16.6203-17.798,15.1488-23.7628
			c-0.7023-2.8468-3.0736-4.8255-6.6771-5.5722c-5.4366-1.1166-11.321,2.9807-17.5427,7.3266
			c-3.7679,2.6322-7.6363,5.3151-11.6533,7.0007c0.4256,0.689,0.8977,1.3758,1.3966,2.0597
			C43.0818,74.8567,45.8667,72.9377,48.5938,71.0531z"/>
		<path class="st0" d="M172.6595,42.988c-0.6064,0.1706-1.2116,0.2607-1.8176,0.2736c1.1961,4.3202,7.0006,5.9554,14.2498,6.9085
			c0.9551-0.3284,2.1625-0.7938,3.5013-1.4139C180.7637,47.9413,173.7271,46.7081,172.6595,42.988z"/>
		<path class="st0" d="M183.3841,51.0797c-7.0345-1.0669-12.5456-2.9631-13.709-7.7069c-0.0134-0.0555-0.0109-0.1087-0.023-0.164
			c-3.0305-0.3944-6.2807-2.4139-10.6509-4.9191c0.3934,0.514,0.7881,1.0264,1.1815,1.5365
			c4.4192,5.7316,8.9593,11.6387,9.0915,17.9731c0.7458-0.0355,1.5125-0.0322,2.3345,0.0659
			c0.5805,0.058,1.1137,0.2184,1.6301,0.419c3.2979-3.2156,6.5771-4.9631,9.939-3.6659c1.6281,0.6278,2.817,1.8231,3.4386,3.457
			c1.1325,2.9803,0.2344,7.3466-1.495,12.0375c1.9189,1.6946,4.2057,3.2745,7.0943,4.5034
			C192.2157,74.6162,195.8103,57.9858,183.3841,51.0797z"/>
		<g>
			<path class="st0" d="M196.8445,43.2309c0.2741-0.2692,0.5298-0.5637,0.7918-0.8495c-0.0866-0.0065-0.1737-0.0133-0.2603-0.0198
				c-6.6679-0.5011-13.476-1.0206-17.0003-2.9923c-0.6554,0.2599-1.3125,0.546-1.9729,0.8506
				c3.4151,2.6204,10.242,3.2702,17.5423,3.8262c0.2842-0.2509,0.5734-0.4937,0.8484-0.7616
				C196.811,43.2674,196.8269,43.248,196.8445,43.2309z"/>
			<path class="st0" d="M198.5278,41.3419c1.1057-1.382,2.0612-2.9265,2.7262-4.6864c0,0-9.1371-1.4807-19.47,2.1726
				c3.6001,1.519,10.0997,2.0136,15.6556,2.4311C197.8012,41.2864,198.1649,41.3144,198.5278,41.3419z"/>
			<path class="st0" d="M177.2942,40.7324c-0.8437,0.4224-1.6879,0.8791-2.5283,1.3834c-0.3466,0.2079-0.6877,0.3697-1.0271,0.5153
				c0.8835,3.3193,9.1393,4.4281,16.7609,5.1675c1.3816-0.7435,2.8125-1.67,4.1982-2.7427
				C187.3625,44.477,180.662,43.6873,177.2942,40.7324z"/>
		</g>
		<path class="st3" d="M128.5146,88.5039"/>
		<circle class="st4" cx="77.4679" cy="44.2341" r="7.5395"/>
		<circle class="st5" cx="77.4679" cy="44.2341" r="4.1431"/>
		<path class="st0" d="M95.9091,39.4621c4.5427,7.8209-0.011,19.0222-1.7719,22.3734c0.7446-0.0281,1.4742-0.0367,2.1986-0.0393
			c3.1762-5.4299,5.3552-16.0565,1.1634-23.2582c-2.4781-4.2646-6.6704-7.9572-10.7564-11.5233H83.95
			c0.4554,0.4005,0.912,0.7998,1.3677,1.1976C89.3589,31.7387,93.5374,35.3849,95.9091,39.4621z"/>
		<g>
			<path class="st0" d="M115.3324,23.5569c1.3394,0,2.6406,0.0237,3.9101,0.0664c1.7546-1.9518,3.7151-4.594,5.1586-7.8364
				c3.3174-7.45,2.6477-15.2398,2.6477-15.2398s-6.0476,4.2889-9.365,11.7387c-1.8307,4.1111-2.4448,8.319-2.6293,11.271
				L115.3324,23.5569L115.3324,23.5569z"/>
			<path class="st0" d="M105.7464,23.5569c1.8027-1.9708,3.8528-4.6817,5.3499-8.0436c3.317-7.4499,2.6477-15.2398,2.6477-15.2398
				s-6.0476,4.2888-9.3651,11.7388c-1.8876,4.2389-2.4828,8.583-2.6469,11.5445h4.0144V23.5569z"/>
			<path class="st0" d="M92.1866,23.5569c1.8617-1.9899,4.0365-4.7949,5.6044-8.3171C101.1084,7.7898,100.4392,0,100.4392,0
				s-6.0476,4.2889-9.3651,11.7387c-1.9488,4.3752-2.518,8.8551-2.6595,11.8181L92.1866,23.5569L92.1866,23.5569z"/>
		</g>
		<path class="st6" d="M110.4036,97.7337c-1.1808,0.0783-2.7671,0.1898-4.6706,0.3024v12.7422l-10.2825,12.1723h6.9822
			c1.8228,0,2.549,0.0707,3.5066-0.3693c0.933-0.4286,1.3163-0.8924,2.0002-1.7362c0.5094-0.6282,1.5465-0.8405,2.279-0.3479
			c0.5851,0.3933,0.8342,0.8538,0.8681,1.8484c0.0117,0.3394,0.3043,0.605,0.6437,0.605h4.1633
			c0.3575,0,0.6471-0.2896,0.6471-0.6469V97.0671C114.5908,97.3521,112.5683,97.5903,110.4036,97.7337z"/>
		<path class="st6" d="M81.0172,98.1128v12.5226l-10.2829,12.1725h6.9831c1.8224,0,2.549,0.0706,3.5066-0.3693
			c0.9325-0.4286,1.3159-0.8925,1.9998-1.7362c0.509-0.6282,1.547-0.8405,2.2794-0.3479c0.5851,0.3932,0.8338,0.8537,0.8681,1.8483
			c0.0117,0.3395,0.3039,0.6051,0.6437,0.6051h4.1629c0.3574,0,0.6471-0.2896,0.6471-0.6469V98.4632
			C88.3954,98.4585,84.7423,98.36,81.0172,98.1128z"/>
		<g>
			<path class="st0" d="M55.2914,76.0873c-0.8699,0-1.5765,0.7072-1.5765,1.5772c0,0.8692,0.7065,1.5765,1.5765,1.5765
				s1.5765-0.7072,1.5765-1.5765C56.8679,76.7946,56.1614,76.0873,55.2914,76.0873z"/>
			<path class="st0" d="M68.2786,66.6051c-2.8154-2.3647-10.8954,3.2251-17.3904,7.7183c-2.6077,1.804-5.2661,3.6429-7.821,5.1892
				c1.6257,1.7261,3.5412,3.388,5.8077,4.924c1.5629,1.0592,3.28,1.996,5.1134,2.8261c5.3881-5.1569,15.146-14.5427,14.9961-19.202
				C68.9651,67.4471,68.7474,66.9985,68.2786,66.6051z M55.2914,80.7025c-1.675,0-3.038-1.3631-3.038-3.038
				c0-1.6757,1.3631-3.0388,3.038-3.0388s3.038,1.3631,3.038,3.0388C58.3295,79.3395,56.9664,80.7025,55.2914,80.7025z"/>
		</g>
		<path class="st6" d="M34.3095,53.0145c0.0967-0.7876,0.9415-1.3651,1.7468-1.3001c3.5518,0.2867,12.8718,0.8971,14.2547-0.4608
			c2.2413-2.2008,1.6547-15.6139-0.1049-18.2492c-2.1809-3.2662-6.4993-4.1111-6.5683-5.5323
			c-0.0904-1.8638,10.0305-1.9308,10.9672-0.8875c1.8432,2.0529,2.9387,25.4698-0.4617,28.8564
			c-3.243,3.2299-19.9582,1.301-19.9582,1.301S34.0946,54.7638,34.3095,53.0145z"/>
		<path class="st0" d="M154.0793,44.743c-2.8138-3.9801-5.8639-8.3027-7.407-12.4562c-0.6972-0.2682-1.4146-0.5309-2.1545-0.7881
			c1.4205,4.8336,4.9005,9.7698,8.0905,14.2814c4.8778,6.8988,7.6393,11.239,4.8636,13.3349
			c-1.9519,1.4724-7.504,1.3794-15.9213-8.3009c-6.513-7.4907-14.2297-11.8609-20.8481-11.8609
			c-0.3177,0-0.632,0.0101-0.9442,0.0302c-4.1894,0.2712-7.7192,2.394-10.2069,6.1372c-4.3647,6.5667-1.4666,13.5741,2.7496,18.802
			c1.1861,0.3359,2.3375,0.696,3.4341,1.088c-4.2057-4.2885-9.4522-11.7199-4.6845-18.8939
			c2.1964-3.3047,5.1654-5.1001,8.8241-5.3362c6.1518-0.4101,13.943,3.8831,20.3175,11.2139
			c8.6764,9.9776,15.1752,10.9611,18.3647,8.557C162.9243,57.2534,158.6282,51.1765,154.0793,44.743z"/>
		<path class="st4" d="M88.0968,62.3329c0,0,16.4973,22.0104,48.2165,16.5392C136.3132,78.8721,120.7078,58.2015,88.0968,62.3329z"
			/>
	</g>
</g>
</svg>
