<svg width="168" height="145" viewBox="0 0 168 145" fill="none" xmlns="http://www.w3.org/2000/svg">
<g opacity="0.45">
<path fill-rule="evenodd" clip-rule="evenodd" d="M6 0C2.68629 0 0 2.68629 0 6V103C0 106.314 2.68629 109 6 109H152C155.314 109 158 106.314 158 103V6C158 2.68629 155.314 0 152 0H6ZM6 4C4.89543 4 4 4.89543 4 6V91C4 92.1046 4.89543 93 6 93H151C152.105 93 153 92.1046 153 91V6C153 4.89543 152.105 4 151 4H6Z" fill="white"/>
<mask id="mask0" mask-type="alpha" maskUnits="userSpaceOnUse" x="7" y="7" width="143" height="83">
<rect x="7" y="7" width="142.3" height="83" rx="2" fill="#C4C4C4"/>
</mask>
<g mask="url(#mask0)">
<circle opacity="0.75" cx="128" cy="96" r="42.5" stroke="#747474" stroke-width="15"/>
<circle opacity="0.75" cx="94" cy="85" r="42.5" stroke="#747474" stroke-width="15"/>
</g>
<path d="M59.562 130V114H95.5V130C95.5 132 96 136 100 136H79.562H55.562C59.562 136 59.5 132 59.562 130Z" fill="white"/>
</g>
<path d="M81.7203 39.2634V39.263C81.7188 39.2652 81.7173 39.2674 81.7158 39.2695C81.7141 39.2718 81.7123 39.274 81.7107 39.2763V39.2767C80.5604 40.8778 79.8825 42.8411 79.8825 44.9632C79.8825 45.2199 79.8669 45.441 79.873 45.6927V45.7192C79.0418 45.051 78 44.6345 76.8506 44.6345C74.1717 44.6345 72 46.8065 72 49.4858C72 51.8544 73.699 53.8201 75.9434 54.2457C75.9389 54.2466 75.935 54.2485 75.9305 54.2493C76.2285 54.3065 76.5359 54.3372 76.8506 54.3372C79.5295 54.3372 81.7203 52.1652 81.7203 49.4858V42.1619C81.714 42.0494 81.7107 41.9363 81.7107 41.8223C81.7107 41.7083 81.714 41.5952 81.7203 41.4828V41.3425H81.7295C81.8646 39.6172 82.7223 38.0169 84 37C83.1211 37.6236 82.3504 38.3894 81.7203 39.2634ZM73.8378 49.4858C73.8378 47.8216 75.1867 46.4725 76.8506 46.4725C78.5145 46.4725 79.8634 47.8216 79.8634 49.4858C79.8634 51.15 78.5145 52.4991 76.8506 52.4991C75.1867 52.4991 73.8378 51.15 73.8378 49.4858Z" fill="#FFFCFB"/>
<path fill-rule="evenodd" clip-rule="evenodd" d="M147 58C145.343 58 144 59.3431 144 61V97C144 98.6569 145.343 100 147 100H165C166.657 100 168 98.6569 168 97V61C168 59.3431 166.657 58 165 58H147ZM148.5 64C149.328 64 150 63.3284 150 62.5C150 61.6716 149.328 61 148.5 61C147.672 61 147 61.6716 147 62.5C147 63.3284 147.672 64 148.5 64ZM153 64.5C153 65.3284 152.328 66 151.5 66C150.672 66 150 65.3284 150 64.5C150 63.6716 150.672 63 151.5 63C152.328 63 153 63.6716 153 64.5ZM148.5 68C149.328 68 150 67.3284 150 66.5C150 65.6716 149.328 65 148.5 65C147.672 65 147 65.6716 147 66.5C147 67.3284 147.672 68 148.5 68Z" fill="#C4C4C4"/>
<path d="M16 145C16 142.791 17.7909 141 20 141H137C139.209 141 141 142.791 141 145H16Z" fill="#C4C4C4"/>
</svg>
