<svg width="158" height="158" viewBox="0 0 158 158" fill="none" xmlns="http://www.w3.org/2000/svg">
<circle opacity="0.1" cx="57.9639" cy="57.9639" r="40.9867" transform="rotate(-45 57.9639 57.9639)" fill="white"/>
<circle opacity="0.1" cx="99.7212" cy="99.7211" r="40.9867" transform="rotate(-45 99.7212 99.7211)" fill="white"/>
<circle opacity="0.06" cx="99.7212" cy="57.9639" r="40.9867" transform="rotate(45 99.7212 57.9639)" fill="white"/>
<circle opacity="0.08" cx="57.9639" cy="99.7212" r="40.9867" transform="rotate(45 57.9639 99.7212)" fill="white"/>
<circle opacity="0.1" cx="68.0239" cy="78.1065" r="22.4661" transform="rotate(-90 68.0239 78.1065)" fill="white"/>
<circle opacity="0.08" cx="89.8486" cy="78.1065" r="22.4661" transform="rotate(-90 89.8486 78.1065)" fill="white"/>
<path d="M90.8827 41.1349V41.1334C90.8773 41.1413 90.8719 41.1492 90.8664 41.1569C90.8602 41.1653 90.8536 41.1734 90.8477 41.1818V41.1833C86.6402 47.0397 84.1607 54.2211 84.1607 61.9829C84.1607 62.9217 84.1039 63.7307 84.1261 64.6513V64.7481C81.0857 62.304 77.2751 60.7805 73.0708 60.7805C63.2721 60.7805 55.3289 68.7251 55.3289 78.5254C55.3289 87.1888 61.5434 94.3788 69.7527 95.9356C69.7364 95.9388 69.7218 95.9457 69.7055 95.9489C70.7953 96.1582 71.92 96.2703 73.0708 96.2703C82.8695 96.2703 90.8827 88.3257 90.8827 78.5254V51.7365C90.86 51.3252 90.8477 50.9115 90.8477 50.4945C90.8477 50.0776 90.86 49.6639 90.8827 49.2526V48.7396H90.9166C91.4107 42.4287 94.5479 36.5754 99.2214 32.8558C96.0067 35.1367 93.1876 37.9379 90.8827 41.1349ZM62.0509 78.5254C62.0509 72.4382 66.9847 67.5036 73.0708 67.5036C79.157 67.5036 84.0908 72.4382 84.0908 78.5254C84.0908 84.6125 79.157 89.5471 73.0708 89.5471C66.9847 89.5471 62.0509 84.6125 62.0509 78.5254Z" fill="#FFFCFB"/>
</svg>
