<svg width="158" height="145" viewBox="0 0 158 145" fill="none" xmlns="http://www.w3.org/2000/svg">
<g opacity="0.45">
<path fill-rule="evenodd" clip-rule="evenodd" d="M6 0C2.68629 0 0 2.68629 0 6V103C0 106.314 2.68629 109 6 109H152C155.314 109 158 106.314 158 103V6C158 2.68629 155.314 0 152 0H6ZM6 4C4.89543 4 4 4.89543 4 6V91C4 92.1046 4.89543 93 6 93H151C152.105 93 153 92.1046 153 91V6C153 4.89543 152.105 4 151 4H6Z" fill="white"/>
<path d="M59.562 130V114H95.5V130C95.5 132 96 136 100 136H79.562H55.562C59.562 136 59.5 132 59.562 130Z" fill="white"/>
</g>
<path d="M16 145C16 142.791 17.7909 141 20 141H137C139.209 141 141 142.791 141 145H16Z" fill="#C4C4C4"/>
<circle cx="62.5" cy="48.5" r="19.5" transform="rotate(-90 62.5 48.5)" fill="#747474"/>
<circle cx="93.7002" cy="48.5" r="19.5" transform="rotate(-90 93.7002 48.5)" fill="#292929"/>
<rect x="62.0669" y="36.8" width="30.3333" height="4.33333" fill="#747474"/>
<rect x="64.6665" y="42.8666" width="26" height="4.33333" fill="#292929"/>
<rect x="66.3999" y="48.9333" width="21.6667" height="4.33333" fill="#747474"/>
<rect x="69" y="55" width="17.3333" height="4.33333" fill="#292929"/>
</svg>
