<svg width="360" height="73" viewBox="0 0 360 73" fill="none" xmlns="http://www.w3.org/2000/svg">
<path d="M5.088 0.575999C6.56 0.575999 7.632 0.895999 8.304 1.536C8.98667 2.16533 9.328 3.03467 9.328 4.144C9.328 4.80533 9.18933 5.42933 8.912 6.016C8.63467 6.592 8.17067 7.056 7.52 7.408C6.88 7.76 6.00533 7.936 4.896 7.936H3.856V12H1.44V0.575999H5.088ZM4.96 2.56H3.856V5.952H4.656C5.33867 5.952 5.87733 5.81867 6.272 5.552C6.67733 5.27467 6.88 4.832 6.88 4.224C6.88 3.11467 6.24 2.56 4.96 2.56ZM9.09375 12L12.3738 2.64H15.2858L18.5978 12H16.1338L15.5098 10H12.1978L11.5738 12H9.09375ZM14.9978 8.144L14.4378 6.272C14.3844 6.112 14.3204 5.904 14.2458 5.648C14.1711 5.38133 14.0964 5.10933 14.0218 4.832C13.9471 4.55467 13.8831 4.32 13.8298 4.128C13.7978 4.32 13.7444 4.55467 13.6698 4.832C13.5951 5.10933 13.5204 5.38133 13.4458 5.648C13.3711 5.91467 13.3124 6.12267 13.2698 6.272L12.6938 8.144H14.9978ZM28.5138 2.688V12H25.5858L21.6978 5.168H21.6338C21.6444 5.328 21.6551 5.552 21.6658 5.84C21.6871 6.11733 21.7031 6.42133 21.7138 6.752C21.7351 7.072 21.7511 7.38667 21.7618 7.696V12H19.7138V2.688H22.6578L26.5458 9.44H26.5778C26.5671 9.19467 26.5511 8.83733 26.5298 8.368C26.5084 7.888 26.4924 7.43467 26.4818 7.008V2.688H28.5138ZM30.1519 8.688V6.736H34.3439V8.688H30.1519ZM43.2601 12L42.4281 9.28H38.2681L37.4361 12H34.8281L38.8601 0.528H41.8201L45.8681 12H43.2601ZM41.8521 7.248L41.0201 4.592C40.9668 4.41067 40.8975 4.18133 40.8121 3.904C40.7268 3.62667 40.6415 3.344 40.5561 3.056C40.4708 2.768 40.4015 2.51733 40.3481 2.304C40.2948 2.51733 40.2201 2.784 40.1241 3.104C40.0388 3.41333 39.9535 3.712 39.8681 4C39.7935 4.27733 39.7348 4.47467 39.6921 4.592L38.8761 7.248H41.8521ZM52.947 9.312C52.947 10.112 52.643 10.784 52.035 11.328C51.427 11.8613 50.515 12.128 49.299 12.128C48.2217 12.128 47.283 11.936 46.483 11.552V9.536C46.963 9.76 47.4537 9.94667 47.955 10.096C48.467 10.2453 48.9523 10.32 49.411 10.32C49.8697 10.32 50.195 10.2347 50.387 10.064C50.5897 9.89333 50.691 9.69067 50.691 9.456C50.691 9.14667 50.531 8.90133 50.211 8.72C49.891 8.53867 49.4483 8.31467 48.883 8.048C48.499 7.87733 48.131 7.68533 47.779 7.472C47.427 7.248 47.139 6.96 46.915 6.608C46.691 6.24533 46.579 5.792 46.579 5.248C46.579 4.37333 46.8883 3.70667 47.507 3.248C48.1257 2.77867 48.9523 2.544 49.987 2.544C50.5417 2.544 51.0537 2.608 51.523 2.736C52.003 2.864 52.4723 3.01867 52.931 3.2L52.211 4.912C51.7843 4.74133 51.3843 4.608 51.011 4.512C50.6377 4.40533 50.2697 4.352 49.907 4.352C49.5443 4.352 49.2723 4.42667 49.091 4.576C48.9097 4.71467 48.819 4.90667 48.819 5.152C48.819 5.41867 48.963 5.648 49.251 5.84C49.539 6.02133 50.0137 6.256 50.675 6.544C51.4003 6.87467 51.9603 7.23733 52.355 7.632C52.7497 8.02667 52.947 8.58667 52.947 9.312ZM53.8855 12V10.72L55.0695 10.256V4.432L53.8855 3.936V2.688H58.5255V3.936L57.3575 4.432V10.256L58.5255 10.72V12H53.8855ZM58.9844 12L62.2644 2.64H65.1764L68.4884 12H66.0244L65.4004 10H62.0884L61.4644 12H58.9844ZM64.8884 8.144L64.3284 6.272C64.275 6.112 64.211 5.904 64.1364 5.648C64.0617 5.38133 63.987 5.10933 63.9124 4.832C63.8377 4.55467 63.7737 4.32 63.7204 4.128C63.6884 4.32 63.635 4.55467 63.5604 4.832C63.4857 5.10933 63.411 5.38133 63.3364 5.648C63.2617 5.91467 63.203 6.12267 63.1604 6.272L62.5844 8.144H64.8884ZM78.4044 2.688V12H75.4764L71.5884 5.168H71.5244C71.535 5.328 71.5457 5.552 71.5564 5.84C71.5777 6.11733 71.5937 6.42133 71.6044 6.752C71.6257 7.072 71.6417 7.38667 71.6524 7.696V12H69.6044V2.688H72.5484L76.4364 9.44H76.4684C76.4577 9.19467 76.4417 8.83733 76.4204 8.368C76.399 7.888 76.383 7.43467 76.3724 7.008V2.688H78.4044ZM87.7988 2.688C90.3801 2.688 91.6708 3.61067 91.6708 5.456C91.6708 6.064 91.5054 6.57067 91.1748 6.976C90.8548 7.37067 90.4494 7.69067 89.9588 7.936L92.7748 12H90.2148L88.0228 8.512H87.1428V12H84.8388V2.688H87.7988ZM87.1428 6.768H87.7028C88.2574 6.768 88.6734 6.672 88.9508 6.48C89.2281 6.27733 89.3668 5.96267 89.3668 5.536C89.3668 5.16267 89.2334 4.88533 88.9668 4.704C88.7001 4.52267 88.2788 4.432 87.7028 4.432H87.1428V6.768ZM93.8231 2.688H99.4391V4.48H96.1271V6.272H99.2151V8.064H96.1271V10.192H99.4391V12H93.8231V2.688ZM107.244 9.312C107.244 10.112 106.94 10.784 106.332 11.328C105.724 11.8613 104.812 12.128 103.596 12.128C102.519 12.128 101.58 11.936 100.78 11.552V9.536C101.26 9.76 101.751 9.94667 102.252 10.096C102.764 10.2453 103.249 10.32 103.708 10.32C104.167 10.32 104.492 10.2347 104.684 10.064C104.887 9.89333 104.988 9.69067 104.988 9.456C104.988 9.14667 104.828 8.90133 104.508 8.72C104.188 8.53867 103.745 8.31467 103.18 8.048C102.796 7.87733 102.428 7.68533 102.076 7.472C101.724 7.248 101.436 6.96 101.212 6.608C100.988 6.24533 100.876 5.792 100.876 5.248C100.876 4.37333 101.185 3.70667 101.804 3.248C102.423 2.77867 103.249 2.544 104.284 2.544C104.839 2.544 105.351 2.608 105.82 2.736C106.3 2.864 106.769 3.01867 107.228 3.2L106.508 4.912C106.081 4.74133 105.681 4.608 105.308 4.512C104.935 4.40533 104.567 4.352 104.204 4.352C103.841 4.352 103.569 4.42667 103.388 4.576C103.207 4.71467 103.116 4.90667 103.116 5.152C103.116 5.41867 103.26 5.648 103.548 5.84C103.836 6.02133 104.311 6.256 104.972 6.544C105.697 6.87467 106.257 7.23733 106.652 7.632C107.047 8.02667 107.244 8.58667 107.244 9.312ZM115.302 2.688V4.512H112.79V12H110.518V4.512H108.022V2.688H115.302ZM115.188 12L118.468 2.64H121.38L124.692 12H122.228L121.604 10H118.292L117.668 12H115.188ZM121.092 8.144L120.532 6.272C120.478 6.112 120.414 5.904 120.34 5.648C120.265 5.38133 120.19 5.10933 120.116 4.832C120.041 4.55467 119.977 4.32 119.924 4.128C119.892 4.32 119.838 4.55467 119.764 4.832C119.689 5.10933 119.614 5.38133 119.54 5.648C119.465 5.91467 119.406 6.12267 119.364 6.272L118.788 8.144H121.092ZM133.792 2.688V8.528C133.792 9.232 133.642 9.856 133.344 10.4C133.045 10.9333 132.597 11.3547 132 11.664C131.402 11.9733 130.65 12.128 129.744 12.128C128.453 12.128 127.466 11.808 126.784 11.168C126.101 10.5173 125.76 9.64267 125.76 8.544V2.688H128.064V8.272C128.064 8.99733 128.208 9.51467 128.496 9.824C128.794 10.1227 129.221 10.272 129.776 10.272C130.394 10.272 130.837 10.112 131.104 9.792C131.37 9.472 131.504 8.96 131.504 8.256V2.688H133.792ZM138.939 2.688C141.521 2.688 142.811 3.61067 142.811 5.456C142.811 6.064 142.646 6.57067 142.315 6.976C141.995 7.37067 141.59 7.69067 141.099 7.936L143.915 12H141.355L139.163 8.512H138.283V12H135.979V2.688H138.939ZM138.283 6.768H138.843C139.398 6.768 139.814 6.672 140.091 6.48C140.369 6.27733 140.507 5.96267 140.507 5.536C140.507 5.16267 140.374 4.88533 140.107 4.704C139.841 4.52267 139.419 4.432 138.843 4.432H138.283V6.768ZM143.844 12L147.124 2.64H150.036L153.348 12H150.884L150.26 10H146.948L146.324 12H143.844ZM149.748 8.144L149.188 6.272C149.134 6.112 149.07 5.904 148.996 5.648C148.921 5.38133 148.846 5.10933 148.772 4.832C148.697 4.55467 148.633 4.32 148.58 4.128C148.548 4.32 148.494 4.55467 148.42 4.832C148.345 5.10933 148.27 5.38133 148.196 5.648C148.121 5.91467 148.062 6.12267 148.02 6.272L147.444 8.144H149.748ZM163.264 2.688V12H160.336L156.448 5.168H156.384C156.394 5.328 156.405 5.552 156.416 5.84C156.437 6.11733 156.453 6.42133 156.464 6.752C156.485 7.072 156.501 7.38667 156.512 7.696V12H154.464V2.688H157.408L161.296 9.44H161.328C161.317 9.19467 161.301 8.83733 161.28 8.368C161.258 7.888 161.242 7.43467 161.232 7.008V2.688H163.264ZM171.99 2.688V4.512H169.478V12H167.206V4.512H164.71V2.688H171.99ZM176.886 12V10.72L178.07 10.256V4.432L176.886 3.936V2.688H181.526V3.936L180.358 4.432V10.256L181.526 10.72V12H176.886ZM191.904 2.688V12H188.976L185.088 5.168H185.024C185.035 5.328 185.046 5.552 185.056 5.84C185.078 6.11733 185.094 6.42133 185.104 6.752C185.126 7.072 185.142 7.38667 185.152 7.696V12H183.104V2.688H186.048L189.936 9.44H189.968C189.958 9.19467 189.942 8.83733 189.92 8.368C189.899 7.888 189.883 7.43467 189.872 7.008V2.688H191.904ZM204.787 2.688V4.512H202.275V12H200.003V4.512H197.507V2.688H204.787ZM214.246 2.688V12H211.942V8.08H208.502V12H206.198V2.688H208.502V6.24H211.942V2.688H214.246ZM216.495 2.688H222.111V4.48H218.799V6.272H221.887V8.064H218.799V10.192H222.111V12H216.495V2.688ZM232.312 4.384C231.608 4.384 231.064 4.65067 230.68 5.184C230.296 5.70667 230.104 6.432 230.104 7.36C230.104 8.30933 230.285 9.04 230.648 9.552C231.021 10.0533 231.597 10.304 232.376 10.304C232.781 10.304 233.181 10.256 233.576 10.16C233.971 10.0533 234.381 9.92 234.808 9.76V11.648C233.997 11.968 233.107 12.128 232.136 12.128C231.123 12.128 230.291 11.9307 229.64 11.536C229 11.1307 228.525 10.5707 228.216 9.856C227.907 9.13067 227.752 8.29333 227.752 7.344C227.752 6.40533 227.928 5.57867 228.28 4.864C228.632 4.13867 229.149 3.57333 229.832 3.168C230.515 2.752 231.347 2.544 232.328 2.544C232.797 2.544 233.277 2.60267 233.768 2.72C234.259 2.82667 234.733 2.98667 235.192 3.2L234.488 4.976C234.125 4.816 233.763 4.67733 233.4 4.56C233.048 4.44267 232.685 4.384 232.312 4.384ZM236.776 2.688H242.392V4.48H239.08V6.272H242.168V8.064H239.08V10.192H242.392V12H236.776V2.688ZM253.045 2.688V12H250.117L246.229 5.168H246.165C246.176 5.328 246.186 5.552 246.197 5.84C246.218 6.11733 246.234 6.42133 246.245 6.752C246.266 7.072 246.282 7.38667 246.293 7.696V12H244.245V2.688H247.189L251.077 9.44H251.109C251.098 9.19467 251.082 8.83733 251.061 8.368C251.04 7.888 251.024 7.43467 251.013 7.008V2.688H253.045ZM261.771 2.688V4.512H259.259V12H256.987V4.512H254.491V2.688H261.771ZM263.183 2.688H268.799V4.48H265.487V6.272H268.575V8.064H265.487V10.192H268.799V12H263.183V2.688ZM273.611 2.688C276.193 2.688 277.483 3.61067 277.483 5.456C277.483 6.064 277.318 6.57067 276.987 6.976C276.667 7.37067 276.262 7.69067 275.771 7.936L278.587 12H276.027L273.835 8.512H272.955V12H270.651V2.688H273.611ZM272.955 6.768H273.515C274.07 6.768 274.486 6.672 274.763 6.48C275.041 6.27733 275.179 5.96267 275.179 5.536C275.179 5.16267 275.046 4.88533 274.779 4.704C274.513 4.52267 274.091 4.432 273.515 4.432H272.955V6.768ZM292.64 7.328C292.64 8.288 292.48 9.13067 292.16 9.856C291.84 10.5707 291.339 11.1307 290.656 11.536C289.984 11.9307 289.109 12.128 288.032 12.128C286.976 12.128 286.107 11.9307 285.424 11.536C284.741 11.1307 284.235 10.5653 283.904 9.84C283.584 9.11467 283.424 8.272 283.424 7.312C283.424 6.352 283.589 5.51467 283.92 4.8C284.251 4.07467 284.757 3.51467 285.44 3.12C286.123 2.72533 286.992 2.528 288.048 2.528C289.115 2.528 289.984 2.73067 290.656 3.136C291.339 3.53067 291.84 4.08533 292.16 4.8C292.48 5.51467 292.64 6.35733 292.64 7.328ZM285.808 7.328C285.808 8.24533 285.984 8.96533 286.336 9.488C286.688 10.0107 287.253 10.272 288.032 10.272C288.832 10.272 289.397 10.0107 289.728 9.488C290.069 8.96533 290.24 8.24533 290.24 7.328C290.24 6.41067 290.069 5.69067 289.728 5.168C289.397 4.63467 288.837 4.368 288.048 4.368C287.259 4.368 286.688 4.63467 286.336 5.168C285.984 5.69067 285.808 6.41067 285.808 7.328ZM294.511 2.688H300.095V4.48H296.767V6.592H299.871V8.4H296.767V12H294.511V2.688ZM315.499 12H312.747L309.755 7.184L308.731 7.92V12H306.315V0.575999H308.731V5.808C308.891 5.584 309.051 5.36 309.211 5.136C309.371 4.912 309.531 4.688 309.691 4.464L312.779 0.575999H315.467L311.483 5.632L315.499 12ZM315.948 12V10.72L317.132 10.256V4.432L315.948 3.936V2.688H320.588V3.936L319.42 4.432V10.256L320.588 10.72V12H315.948ZM322.167 2.688H327.783V4.48H324.471V6.272H327.559V8.064H324.471V10.192H327.783V12H322.167V2.688ZM331.716 12L328.516 2.688H330.948L332.612 8.256C332.676 8.45867 332.75 8.72533 332.836 9.056C332.921 9.376 332.985 9.664 333.028 9.92C333.081 9.65333 333.15 9.36533 333.236 9.056C333.332 8.736 333.406 8.47467 333.46 8.272L335.108 2.688H337.524L334.308 12H331.716ZM338.443 10.88C338.443 10.3893 338.577 10.048 338.843 9.856C339.11 9.65333 339.435 9.552 339.819 9.552C340.193 9.552 340.513 9.65333 340.779 9.856C341.046 10.048 341.179 10.3893 341.179 10.88C341.179 11.3493 341.046 11.6907 340.779 11.904C340.513 12.1067 340.193 12.208 339.819 12.208C339.435 12.208 339.11 12.1067 338.843 11.904C338.577 11.6907 338.443 11.3493 338.443 10.88Z" fill="#E74910"/>
<path d="M8.176 28.832C8.176 29.8453 7.808 30.656 7.072 31.264C6.34667 31.8613 5.312 32.16 3.968 32.16C2.76267 32.16 1.68533 31.9307 0.736 31.472V29.216C1.28 29.4507 1.84 29.6693 2.416 29.872C3.00267 30.064 3.584 30.16 4.16 30.16C4.75733 30.16 5.17867 30.048 5.424 29.824C5.68 29.5893 5.808 29.296 5.808 28.944C5.808 28.656 5.70667 28.4107 5.504 28.208C5.312 28.0053 5.05067 27.8187 4.72 27.648C4.38933 27.4667 4.01067 27.2747 3.584 27.072C3.31733 26.944 3.02933 26.7947 2.72 26.624C2.41067 26.4427 2.112 26.224 1.824 25.968C1.54667 25.7013 1.31733 25.3813 1.136 25.008C0.954667 24.6347 0.864 24.1867 0.864 23.664C0.864 22.64 1.21067 21.8453 1.904 21.28C2.59733 20.704 3.54133 20.416 4.736 20.416C5.33333 20.416 5.89867 20.4853 6.432 20.624C6.976 20.7627 7.54133 20.96 8.128 21.216L7.344 23.104C6.82133 22.8907 6.352 22.7253 5.936 22.608C5.52 22.4907 5.09333 22.432 4.656 22.432C4.19733 22.432 3.84533 22.5387 3.6 22.752C3.35467 22.9653 3.232 23.2427 3.232 23.584C3.232 23.9893 3.41333 24.3093 3.776 24.544C4.13867 24.7787 4.67733 25.0667 5.392 25.408C5.97867 25.6853 6.47467 25.9733 6.88 26.272C7.296 26.5707 7.616 26.9227 7.84 27.328C8.064 27.7333 8.176 28.2347 8.176 28.832ZM18.7805 27.328C18.7805 28.288 18.6205 29.1307 18.3005 29.856C17.9805 30.5707 17.4792 31.1307 16.7965 31.536C16.1245 31.9307 15.2498 32.128 14.1725 32.128C13.1165 32.128 12.2472 31.9307 11.5645 31.536C10.8818 31.1307 10.3752 30.5653 10.0445 29.84C9.7245 29.1147 9.5645 28.272 9.5645 27.312C9.5645 26.352 9.72983 25.5147 10.0605 24.8C10.3912 24.0747 10.8978 23.5147 11.5805 23.12C12.2632 22.7253 13.1325 22.528 14.1885 22.528C15.2552 22.528 16.1245 22.7307 16.7965 23.136C17.4792 23.5307 17.9805 24.0853 18.3005 24.8C18.6205 25.5147 18.7805 26.3573 18.7805 27.328ZM11.9485 27.328C11.9485 28.2453 12.1245 28.9653 12.4765 29.488C12.8285 30.0107 13.3938 30.272 14.1725 30.272C14.9725 30.272 15.5378 30.0107 15.8685 29.488C16.2098 28.9653 16.3805 28.2453 16.3805 27.328C16.3805 26.4107 16.2098 25.6907 15.8685 25.168C15.5378 24.6347 14.9778 24.368 14.1885 24.368C13.3992 24.368 12.8285 24.6347 12.4765 25.168C12.1245 25.6907 11.9485 26.4107 11.9485 27.328ZM23.8353 22.688C25.0726 22.688 25.9846 22.944 26.5713 23.456C27.1579 23.968 27.4513 24.688 27.4513 25.616C27.4513 26.16 27.3339 26.6773 27.0993 27.168C26.8753 27.648 26.4913 28.0373 25.9473 28.336C25.4139 28.6347 24.6833 28.784 23.7552 28.784H22.9553V32H20.6513V22.688H23.8353ZM22.9553 26.976H23.5153C23.9953 26.976 24.3846 26.8693 24.6833 26.656C24.9819 26.4427 25.1313 26.1067 25.1313 25.648C25.1313 24.8693 24.6779 24.48 23.7713 24.48H22.9553V26.976ZM37.1836 22.688V32H34.8796V28.08H31.4396V32H29.1356V22.688H31.4396V26.24H34.8796V22.688H37.1836ZM38.7605 32V30.72L39.9445 30.256V24.432L38.7605 23.936V22.688H43.4005V23.936L42.2325 24.432V30.256L43.4005 30.72V32H38.7605ZM50.9314 29.312C50.9314 30.112 50.6274 30.784 50.0194 31.328C49.4114 31.8613 48.4994 32.128 47.2834 32.128C46.206 32.128 45.2674 31.936 44.4674 31.552V29.536C44.9474 29.76 45.438 29.9467 45.9394 30.096C46.4514 30.2453 46.9367 30.32 47.3954 30.32C47.854 30.32 48.1794 30.2347 48.3714 30.064C48.574 29.8933 48.6754 29.6907 48.6754 29.456C48.6754 29.1467 48.5154 28.9013 48.1954 28.72C47.8754 28.5387 47.4327 28.3147 46.8674 28.048C46.4834 27.8773 46.1154 27.6853 45.7634 27.472C45.4114 27.248 45.1234 26.96 44.8994 26.608C44.6754 26.2453 44.5634 25.792 44.5634 25.248C44.5634 24.3733 44.8727 23.7067 45.4914 23.248C46.11 22.7787 46.9367 22.544 47.9714 22.544C48.526 22.544 49.038 22.608 49.5074 22.736C49.9874 22.864 50.4567 23.0187 50.9154 23.2L50.1954 24.912C49.7687 24.7413 49.3687 24.608 48.9954 24.512C48.622 24.4053 48.254 24.352 47.8914 24.352C47.5287 24.352 47.2567 24.4267 47.0754 24.576C46.894 24.7147 46.8034 24.9067 46.8034 25.152C46.8034 25.4187 46.9474 25.648 47.2354 25.84C47.5234 26.0213 47.998 26.256 48.6594 26.544C49.3847 26.8747 49.9447 27.2373 50.3394 27.632C50.734 28.0267 50.9314 28.5867 50.9314 29.312ZM58.9899 22.688V24.512H56.4779V32H54.2059V24.512H51.7099V22.688H58.9899ZM59.7293 32V30.72L60.9133 30.256V24.432L59.7293 23.936V22.688H64.3693V23.936L63.2013 24.432V30.256L64.3693 30.72V32H59.7293ZM70.1401 24.384C69.4361 24.384 68.8921 24.6507 68.5081 25.184C68.1241 25.7067 67.9321 26.432 67.9321 27.36C67.9321 28.3093 68.1135 29.04 68.4761 29.552C68.8495 30.0533 69.4255 30.304 70.2041 30.304C70.6095 30.304 71.0095 30.256 71.4041 30.16C71.7988 30.0533 72.2095 29.92 72.6361 29.76V31.648C71.8255 31.968 70.9348 32.128 69.9641 32.128C68.9508 32.128 68.1188 31.9307 67.4681 31.536C66.8281 31.1307 66.3535 30.5707 66.0441 29.856C65.7348 29.1307 65.5801 28.2933 65.5801 27.344C65.5801 26.4053 65.7561 25.5787 66.1081 24.864C66.4601 24.1387 66.9775 23.5733 67.6601 23.168C68.3428 22.752 69.1748 22.544 70.1561 22.544C70.6255 22.544 71.1055 22.6027 71.5961 22.72C72.0868 22.8267 72.5615 22.9867 73.0201 23.2L72.3161 24.976C71.9535 24.816 71.5908 24.6773 71.2281 24.56C70.8761 24.4427 70.5135 24.384 70.1401 24.384ZM73.4844 32L76.7644 22.64H79.6764L82.9884 32H80.5244L79.9004 30H76.5884L75.9644 32H73.4844ZM79.3884 28.144L78.8284 26.272C78.775 26.112 78.711 25.904 78.6364 25.648C78.5617 25.3813 78.487 25.1093 78.4124 24.832C78.3377 24.5547 78.2737 24.32 78.2204 24.128C78.1884 24.32 78.135 24.5547 78.0604 24.832C77.9857 25.1093 77.911 25.3813 77.8364 25.648C77.7617 25.9147 77.703 26.1227 77.6604 26.272L77.0844 28.144H79.3884ZM90.1461 22.688V24.512H87.6341V32H85.3621V24.512H82.8661V22.688H90.1461ZM91.5575 22.688H97.1735V24.48H93.8615V26.272H96.9495V28.064H93.8615V30.192H97.1735V32H91.5575V22.688ZM107.09 27.2C107.09 28.8 106.626 30 105.698 30.8C104.781 31.6 103.522 32 101.922 32H99.0263V22.688H102.178C103.704 22.688 104.904 23.0773 105.778 23.856C106.653 24.624 107.09 25.7387 107.09 27.2ZM104.722 27.264C104.722 25.408 103.901 24.48 102.258 24.48H101.33V30.176H102.066C102.973 30.176 103.64 29.936 104.066 29.456C104.504 28.976 104.722 28.2453 104.722 27.264ZM115.441 30.144L115.553 30.32C115.414 30.8853 115.217 31.504 114.961 32.176C114.705 32.848 114.443 33.4773 114.177 34.064H112.465C112.614 33.4347 112.763 32.7627 112.913 32.048C113.062 31.3333 113.174 30.6987 113.249 30.144H115.441ZM124.112 22.688V30.192H127.904V32H121.808V22.688H124.112ZM128.391 32L131.671 22.64H134.583L137.895 32H135.431L134.807 30H131.495L130.871 32H128.391ZM134.295 28.144L133.735 26.272C133.681 26.112 133.617 25.904 133.543 25.648C133.468 25.3813 133.393 25.1093 133.319 24.832C133.244 24.5547 133.18 24.32 133.127 24.128C133.095 24.32 133.041 24.5547 132.967 24.832C132.892 25.1093 132.817 25.3813 132.743 25.648C132.668 25.9147 132.609 26.1227 132.567 26.272L131.991 28.144H134.295ZM143.046 24.384C142.342 24.384 141.798 24.6507 141.414 25.184C141.03 25.7067 140.838 26.432 140.838 27.36C140.838 28.3093 141.02 29.04 141.382 29.552C141.756 30.0533 142.332 30.304 143.11 30.304C143.516 30.304 143.916 30.256 144.31 30.16C144.705 30.0533 145.116 29.92 145.542 29.76V31.648C144.732 31.968 143.841 32.128 142.87 32.128C141.857 32.128 141.025 31.9307 140.374 31.536C139.734 31.1307 139.26 30.5707 138.95 29.856C138.641 29.1307 138.486 28.2933 138.486 27.344C138.486 26.4053 138.662 25.5787 139.014 24.864C139.366 24.1387 139.884 23.5733 140.566 23.168C141.249 22.752 142.081 22.544 143.062 22.544C143.532 22.544 144.012 22.6027 144.502 22.72C144.993 22.8267 145.468 22.9867 145.926 23.2L145.222 24.976C144.86 24.816 144.497 24.6773 144.134 24.56C143.782 24.4427 143.42 24.384 143.046 24.384ZM156.202 27.328C156.202 28.288 156.042 29.1307 155.722 29.856C155.402 30.5707 154.901 31.1307 154.218 31.536C153.546 31.9307 152.672 32.128 151.594 32.128C150.538 32.128 149.669 31.9307 148.986 31.536C148.304 31.1307 147.797 30.5653 147.466 29.84C147.146 29.1147 146.986 28.272 146.986 27.312C146.986 26.352 147.152 25.5147 147.482 24.8C147.813 24.0747 148.32 23.5147 149.002 23.12C149.685 22.7253 150.554 22.528 151.61 22.528C152.677 22.528 153.546 22.7307 154.218 23.136C154.901 23.5307 155.402 24.0853 155.722 24.8C156.042 25.5147 156.202 26.3573 156.202 27.328ZM149.37 27.328C149.37 28.2453 149.546 28.9653 149.898 29.488C150.25 30.0107 150.816 30.272 151.594 30.272C152.394 30.272 152.96 30.0107 153.29 29.488C153.632 28.9653 153.802 28.2453 153.802 27.328C153.802 26.4107 153.632 25.6907 153.29 25.168C152.96 24.6347 152.4 24.368 151.61 24.368C150.821 24.368 150.25 24.6347 149.898 25.168C149.546 25.6907 149.37 26.4107 149.37 27.328ZM166.873 22.688V32H163.945L160.057 25.168H159.993C160.004 25.328 160.014 25.552 160.025 25.84C160.046 26.1173 160.062 26.4213 160.073 26.752C160.094 27.072 160.11 27.3867 160.121 27.696V32H158.073V22.688H161.017L164.905 29.44H164.937C164.926 29.1947 164.91 28.8373 164.889 28.368C164.868 27.888 164.852 27.4347 164.841 27.008V22.688H166.873ZM168.479 32V30.72L169.663 30.256V24.432L168.479 23.936V22.688H173.119V23.936L171.951 24.432V30.256L173.119 30.72V32H168.479ZM178.89 24.384C178.186 24.384 177.642 24.6507 177.258 25.184C176.874 25.7067 176.682 26.432 176.682 27.36C176.682 28.3093 176.863 29.04 177.226 29.552C177.599 30.0533 178.175 30.304 178.954 30.304C179.359 30.304 179.759 30.256 180.154 30.16C180.549 30.0533 180.959 29.92 181.386 29.76V31.648C180.575 31.968 179.685 32.128 178.714 32.128C177.701 32.128 176.869 31.9307 176.218 31.536C175.578 31.1307 175.103 30.5707 174.794 29.856C174.485 29.1307 174.33 28.2933 174.33 27.344C174.33 26.4053 174.506 25.5787 174.858 24.864C175.21 24.1387 175.727 23.5733 176.41 23.168C177.093 22.752 177.925 22.544 178.906 22.544C179.375 22.544 179.855 22.6027 180.346 22.72C180.837 22.8267 181.311 22.9867 181.77 23.2L181.066 24.976C180.703 24.816 180.341 24.6773 179.978 24.56C179.626 24.4427 179.263 24.384 178.89 24.384ZM185.706 30.144L185.818 30.32C185.68 30.8853 185.482 31.504 185.226 32.176C184.97 32.848 184.709 33.4773 184.442 34.064H182.73C182.88 33.4347 183.029 32.7627 183.178 32.048C183.328 31.3333 183.44 30.6987 183.514 30.144H185.706ZM199.241 32L198.105 27.456C198.084 27.3493 198.041 27.152 197.977 26.864C197.913 26.576 197.849 26.2773 197.785 25.968C197.732 25.6587 197.694 25.4187 197.673 25.248C197.662 25.4187 197.625 25.6587 197.561 25.968C197.508 26.2773 197.449 26.576 197.385 26.864C197.332 27.152 197.289 27.3547 197.257 27.472L196.105 32H193.465L191.049 22.688H193.273L194.409 27.6C194.452 27.7707 194.505 28.0107 194.569 28.32C194.633 28.6293 194.697 28.944 194.761 29.264C194.836 29.5733 194.884 29.8347 194.905 30.048C194.937 29.7707 194.985 29.4453 195.049 29.072C195.124 28.688 195.198 28.32 195.273 27.968C195.348 27.616 195.412 27.344 195.465 27.152L196.617 22.688H198.761L199.897 27.152C199.95 27.344 200.014 27.616 200.089 27.968C200.164 28.32 200.238 28.688 200.313 29.072C200.388 29.4453 200.441 29.7707 200.473 30.048C200.505 29.8347 200.548 29.5733 200.601 29.264C200.654 28.944 200.713 28.6293 200.777 28.32C200.841 28.0107 200.894 27.7707 200.937 27.6L202.089 22.688H204.313L201.881 32H199.241ZM204.839 32V30.72L206.023 30.256V24.432L204.839 23.936V22.688H209.479V23.936L208.311 24.432V30.256L209.479 30.72V32H204.839ZM217.506 22.688V24.512H214.994V32H212.722V24.512H210.226V22.688H217.506ZM226.965 22.688V32H224.661V28.08H221.221V32H218.917V22.688H221.221V26.24H224.661V22.688H226.965ZM239.818 22.688V24.512H237.306V32H235.034V24.512H232.538V22.688H239.818ZM249.277 22.688V32H246.973V28.08H243.533V32H241.229V22.688H243.533V26.24H246.973V22.688H249.277ZM251.526 22.688H257.142V24.48H253.83V26.272H256.918V28.064H253.83V30.192H257.142V32H251.526V22.688ZM269.103 29.312C269.103 30.112 268.799 30.784 268.191 31.328C267.583 31.8613 266.671 32.128 265.455 32.128C264.378 32.128 263.439 31.936 262.639 31.552V29.536C263.119 29.76 263.61 29.9467 264.111 30.096C264.623 30.2453 265.109 30.32 265.567 30.32C266.026 30.32 266.351 30.2347 266.543 30.064C266.746 29.8933 266.847 29.6907 266.847 29.456C266.847 29.1467 266.687 28.9013 266.367 28.72C266.047 28.5387 265.605 28.3147 265.039 28.048C264.655 27.8773 264.287 27.6853 263.935 27.472C263.583 27.248 263.295 26.96 263.071 26.608C262.847 26.2453 262.735 25.792 262.735 25.248C262.735 24.3733 263.045 23.7067 263.663 23.248C264.282 22.7787 265.109 22.544 266.143 22.544C266.698 22.544 267.21 22.608 267.679 22.736C268.159 22.864 268.629 23.0187 269.087 23.2L268.367 24.912C267.941 24.7413 267.541 24.608 267.167 24.512C266.794 24.4053 266.426 24.352 266.063 24.352C265.701 24.352 265.429 24.4267 265.247 24.576C265.066 24.7147 264.975 24.9067 264.975 25.152C264.975 25.4187 265.119 25.648 265.407 25.84C265.695 26.0213 266.17 26.256 266.831 26.544C267.557 26.8747 268.117 27.2373 268.511 27.632C268.906 28.0267 269.103 28.5867 269.103 29.312ZM269.594 32L272.874 22.64H275.786L279.098 32H276.634L276.01 30H272.698L272.074 32H269.594ZM275.498 28.144L274.938 26.272C274.884 26.112 274.82 25.904 274.746 25.648C274.671 25.3813 274.596 25.1093 274.522 24.832C274.447 24.5547 274.383 24.32 274.33 24.128C274.298 24.32 274.244 24.5547 274.17 24.832C274.095 25.1093 274.02 25.3813 273.946 25.648C273.871 25.9147 273.812 26.1227 273.77 26.272L273.194 28.144H275.498ZM281.981 32L278.781 22.688H281.213L282.877 28.256C282.941 28.4587 283.016 28.7253 283.101 29.056C283.187 29.376 283.251 29.664 283.293 29.92C283.347 29.6533 283.416 29.3653 283.501 29.056C283.597 28.736 283.672 28.4747 283.725 28.272L285.373 22.688H287.789L284.573 32H281.981ZM297.765 27.328C297.765 28.288 297.605 29.1307 297.285 29.856C296.965 30.5707 296.464 31.1307 295.781 31.536C295.109 31.9307 294.234 32.128 293.157 32.128C292.101 32.128 291.232 31.9307 290.549 31.536C289.866 31.1307 289.36 30.5653 289.029 29.84C288.709 29.1147 288.549 28.272 288.549 27.312C288.549 26.352 288.714 25.5147 289.045 24.8C289.376 24.0747 289.882 23.5147 290.565 23.12C291.248 22.7253 292.117 22.528 293.173 22.528C294.24 22.528 295.109 22.7307 295.781 23.136C296.464 23.5307 296.965 24.0853 297.285 24.8C297.605 25.5147 297.765 26.3573 297.765 27.328ZM290.933 27.328C290.933 28.2453 291.109 28.9653 291.461 29.488C291.813 30.0107 292.378 30.272 293.157 30.272C293.957 30.272 294.522 30.0107 294.853 29.488C295.194 28.9653 295.365 28.2453 295.365 27.328C295.365 26.4107 295.194 25.6907 294.853 25.168C294.522 24.6347 293.962 24.368 293.173 24.368C292.384 24.368 291.813 24.6347 291.461 25.168C291.109 25.6907 290.933 26.4107 290.933 27.328ZM302.596 22.688C305.177 22.688 306.468 23.6107 306.468 25.456C306.468 26.064 306.302 26.5707 305.972 26.976C305.652 27.3707 305.246 27.6907 304.756 27.936L307.572 32H305.012L302.82 28.512H301.94V32H299.636V22.688H302.596ZM301.94 26.768H302.5C303.054 26.768 303.47 26.672 303.748 26.48C304.025 26.2773 304.164 25.9627 304.164 25.536C304.164 25.1627 304.03 24.8853 303.764 24.704C303.497 24.5227 303.076 24.432 302.5 24.432H301.94V26.768ZM316.156 22.688L312.972 28.384V32H310.684V28.448L307.5 22.688H309.964L311.82 26.352L313.66 22.688H316.156ZM327.881 22.688V24.512H325.369V32H323.097V24.512H320.601V22.688H327.881ZM327.766 32L331.046 22.64H333.958L337.27 32H334.806L334.182 30H330.87L330.246 32H327.766ZM333.67 28.144L333.11 26.272C333.056 26.112 332.992 25.904 332.918 25.648C332.843 25.3813 332.768 25.1093 332.694 24.832C332.619 24.5547 332.555 24.32 332.502 24.128C332.47 24.32 332.416 24.5547 332.342 24.832C332.267 25.1093 332.192 25.3813 332.118 25.648C332.043 25.9147 331.984 26.1227 331.942 26.272L331.366 28.144H333.67ZM344.338 29.312C344.338 30.112 344.034 30.784 343.426 31.328C342.818 31.8613 341.906 32.128 340.69 32.128C339.612 32.128 338.674 31.936 337.874 31.552V29.536C338.354 29.76 338.844 29.9467 339.346 30.096C339.858 30.2453 340.343 30.32 340.802 30.32C341.26 30.32 341.586 30.2347 341.778 30.064C341.98 29.8933 342.082 29.6907 342.082 29.456C342.082 29.1467 341.922 28.9013 341.602 28.72C341.282 28.5387 340.839 28.3147 340.274 28.048C339.89 27.8773 339.522 27.6853 339.17 27.472C338.818 27.248 338.53 26.96 338.306 26.608C338.082 26.2453 337.97 25.792 337.97 25.248C337.97 24.3733 338.279 23.7067 338.898 23.248C339.516 22.7787 340.343 22.544 341.378 22.544C341.932 22.544 342.444 22.608 342.914 22.736C343.394 22.864 343.863 23.0187 344.322 23.2L343.602 24.912C343.175 24.7413 342.775 24.608 342.402 24.512C342.028 24.4053 341.66 24.352 341.298 24.352C340.935 24.352 340.663 24.4267 340.482 24.576C340.3 24.7147 340.21 24.9067 340.21 25.152C340.21 25.4187 340.354 25.648 340.642 25.84C340.93 26.0213 341.404 26.256 342.066 26.544C342.791 26.8747 343.351 27.2373 343.746 27.632C344.14 28.0267 344.338 28.5867 344.338 29.312ZM352.396 22.688V24.512H349.884V32H347.612V24.512H345.116V22.688H352.396ZM353.808 22.688H359.424V24.48H356.112V26.272H359.2V28.064H356.112V30.192H359.424V32H353.808V22.688ZM9.968 47.328C9.968 48.288 9.808 49.1307 9.488 49.856C9.168 50.5707 8.66667 51.1307 7.984 51.536C7.312 51.9307 6.43733 52.128 5.36 52.128C4.304 52.128 3.43467 51.9307 2.752 51.536C2.06933 51.1307 1.56267 50.5653 1.232 49.84C0.912 49.1147 0.752 48.272 0.752 47.312C0.752 46.352 0.917333 45.5147 1.248 44.8C1.57867 44.0747 2.08533 43.5147 2.768 43.12C3.45067 42.7253 4.32 42.528 5.376 42.528C6.44267 42.528 7.312 42.7307 7.984 43.136C8.66667 43.5307 9.168 44.0853 9.488 44.8C9.808 45.5147 9.968 46.3573 9.968 47.328ZM3.136 47.328C3.136 48.2453 3.312 48.9653 3.664 49.488C4.016 50.0107 4.58133 50.272 5.36 50.272C6.16 50.272 6.72533 50.0107 7.056 49.488C7.39733 48.9653 7.568 48.2453 7.568 47.328C7.568 46.4107 7.39733 45.6907 7.056 45.168C6.72533 44.6347 6.16533 44.368 5.376 44.368C4.58667 44.368 4.016 44.6347 3.664 45.168C3.312 45.6907 3.136 46.4107 3.136 47.328ZM11.8388 42.688H17.4228V44.48H14.0948V46.592H17.1988V48.4H14.0948V52H11.8388V42.688ZM29.7711 42.688V44.512H27.2591V52H24.9871V44.512H22.4911V42.688H29.7711ZM39.2305 42.688V52H36.9265V48.08H33.4865V52H31.1825V42.688H33.4865V46.24H36.9265V42.688H39.2305ZM41.4794 42.688H47.0954V44.48H43.7834V46.272H46.8714V48.064H43.7834V50.192H47.0954V52H41.4794V42.688ZM56.2564 42.688C57.5897 42.688 58.571 42.8747 59.2004 43.248C59.8297 43.6107 60.1444 44.2027 60.1444 45.024C60.1444 45.5893 60.0004 46.048 59.7124 46.4C59.4244 46.752 59.067 46.9707 58.6404 47.056V47.12C58.939 47.184 59.2164 47.2907 59.4724 47.44C59.7284 47.5893 59.9364 47.8133 60.0964 48.112C60.267 48.4 60.3524 48.7947 60.3524 49.296C60.3524 50.1387 60.0324 50.8 59.3924 51.28C58.763 51.76 57.8937 52 56.7844 52H53.1044V42.688H56.2564ZM56.4164 46.32C56.939 46.32 57.2964 46.2347 57.4884 46.064C57.691 45.8827 57.7924 45.6373 57.7924 45.328C57.7924 45.0187 57.675 44.7947 57.4404 44.656C57.2057 44.5067 56.8377 44.432 56.3364 44.432H55.4084V46.32H56.4164ZM56.5444 50.224C57.0884 50.224 57.467 50.1173 57.6804 49.904C57.8937 49.6907 58.0004 49.4187 58.0004 49.088C58.0004 48.7787 57.8884 48.5227 57.6644 48.32C57.451 48.1067 57.0617 48 56.4964 48H55.4084V50.224H56.5444ZM62.1669 42.688H67.7829V44.48H64.4709V46.272H67.5589V48.064H64.4709V50.192H67.7829V52H62.1669V42.688ZM75.5876 49.312C75.5876 50.112 75.2836 50.784 74.6756 51.328C74.0676 51.8613 73.1556 52.128 71.9396 52.128C70.8623 52.128 69.9236 51.936 69.1236 51.552V49.536C69.6036 49.76 70.0943 49.9467 70.5956 50.096C71.1076 50.2453 71.593 50.32 72.0516 50.32C72.5103 50.32 72.8356 50.2347 73.0276 50.064C73.2303 49.8933 73.3316 49.6907 73.3316 49.456C73.3316 49.1467 73.1716 48.9013 72.8516 48.72C72.5316 48.5387 72.089 48.3147 71.5236 48.048C71.1396 47.8773 70.7716 47.6853 70.4196 47.472C70.0676 47.248 69.7796 46.96 69.5556 46.608C69.3316 46.2453 69.2196 45.792 69.2196 45.248C69.2196 44.3733 69.529 43.7067 70.1476 43.248C70.7663 42.7787 71.593 42.544 72.6276 42.544C73.1823 42.544 73.6943 42.608 74.1636 42.736C74.6436 42.864 75.113 43.0187 75.5716 43.2L74.8516 44.912C74.425 44.7413 74.025 44.608 73.6516 44.512C73.2783 44.4053 72.9103 44.352 72.5476 44.352C72.185 44.352 71.913 44.4267 71.7316 44.576C71.5503 44.7147 71.4596 44.9067 71.4596 45.152C71.4596 45.4187 71.6036 45.648 71.8916 45.84C72.1796 46.0213 72.6543 46.256 73.3156 46.544C74.041 46.8747 74.601 47.2373 74.9956 47.632C75.3903 48.0267 75.5876 48.5867 75.5876 49.312ZM83.6461 42.688V44.512H81.1341V52H78.8621V44.512H76.3661V42.688H83.6461ZM92.3978 42.688C93.6351 42.688 94.5471 42.944 95.1338 43.456C95.7204 43.968 96.0138 44.688 96.0138 45.616C96.0138 46.16 95.8964 46.6773 95.6618 47.168C95.4378 47.648 95.0538 48.0373 94.5098 48.336C93.9764 48.6347 93.2458 48.784 92.3177 48.784H91.5178V52H89.2138V42.688H92.3978ZM91.5178 46.976H92.0778C92.5578 46.976 92.9471 46.8693 93.2458 46.656C93.5444 46.4427 93.6938 46.1067 93.6938 45.648C93.6938 44.8693 93.2404 44.48 92.3338 44.48H91.5178V46.976ZM96.0938 52L99.3738 42.64H102.286L105.598 52H103.134L102.51 50H99.1978L98.5738 52H96.0938ZM101.998 48.144L101.438 46.272C101.384 46.112 101.32 45.904 101.246 45.648C101.171 45.3813 101.096 45.1093 101.022 44.832C100.947 44.5547 100.883 44.32 100.83 44.128C100.798 44.32 100.744 44.5547 100.67 44.832C100.595 45.1093 100.52 45.3813 100.446 45.648C100.371 45.9147 100.312 46.1227 100.27 46.272L99.6938 48.144H101.998ZM115.514 42.688V52H112.586L108.698 45.168H108.634C108.644 45.328 108.655 45.552 108.666 45.84C108.687 46.1173 108.703 46.4213 108.714 46.752C108.735 47.072 108.751 47.3867 108.762 47.696V52H106.714V42.688H109.658L113.546 49.44H113.578C113.567 49.1947 113.551 48.8373 113.53 48.368C113.508 47.888 113.492 47.4347 113.482 47.008V42.688H115.514ZM117.152 48.688V46.736H121.344V48.688H117.152ZM130.26 52L129.428 49.28H125.268L124.436 52H121.828L125.86 40.528H128.82L132.868 52H130.26ZM128.852 47.248L128.02 44.592C127.967 44.4107 127.897 44.1813 127.812 43.904C127.727 43.6267 127.641 43.344 127.556 43.056C127.471 42.768 127.401 42.5173 127.348 42.304C127.295 42.5173 127.22 42.784 127.124 43.104C127.039 43.4133 126.953 43.712 126.868 44C126.793 44.2773 126.735 44.4747 126.692 44.592L125.876 47.248H128.852ZM139.947 49.312C139.947 50.112 139.643 50.784 139.035 51.328C138.427 51.8613 137.515 52.128 136.299 52.128C135.222 52.128 134.283 51.936 133.483 51.552V49.536C133.963 49.76 134.454 49.9467 134.955 50.096C135.467 50.2453 135.952 50.32 136.411 50.32C136.87 50.32 137.195 50.2347 137.387 50.064C137.59 49.8933 137.691 49.6907 137.691 49.456C137.691 49.1467 137.531 48.9013 137.211 48.72C136.891 48.5387 136.448 48.3147 135.883 48.048C135.499 47.8773 135.131 47.6853 134.779 47.472C134.427 47.248 134.139 46.96 133.915 46.608C133.691 46.2453 133.579 45.792 133.579 45.248C133.579 44.3733 133.888 43.7067 134.507 43.248C135.126 42.7787 135.952 42.544 136.987 42.544C137.542 42.544 138.054 42.608 138.523 42.736C139.003 42.864 139.472 43.0187 139.931 43.2L139.211 44.912C138.784 44.7413 138.384 44.608 138.011 44.512C137.638 44.4053 137.27 44.352 136.907 44.352C136.544 44.352 136.272 44.4267 136.091 44.576C135.91 44.7147 135.819 44.9067 135.819 45.152C135.819 45.4187 135.963 45.648 136.251 45.84C136.539 46.0213 137.014 46.256 137.675 46.544C138.4 46.8747 138.96 47.2373 139.355 47.632C139.75 48.0267 139.947 48.5867 139.947 49.312ZM140.886 52V50.72L142.07 50.256V44.432L140.886 43.936V42.688H145.526V43.936L144.358 44.432V50.256L145.526 50.72V52H140.886ZM145.984 52L149.264 42.64H152.176L155.488 52H153.024L152.4 50H149.088L148.464 52H145.984ZM151.888 48.144L151.328 46.272C151.275 46.112 151.211 45.904 151.136 45.648C151.062 45.3813 150.987 45.1093 150.912 44.832C150.838 44.5547 150.774 44.32 150.72 44.128C150.688 44.32 150.635 44.5547 150.56 44.832C150.486 45.1093 150.411 45.3813 150.336 45.648C150.262 45.9147 150.203 46.1227 150.16 46.272L149.584 48.144H151.888ZM165.404 42.688V52H162.476L158.588 45.168H158.524C158.535 45.328 158.546 45.552 158.556 45.84C158.578 46.1173 158.594 46.4213 158.604 46.752C158.626 47.072 158.642 47.3867 158.652 47.696V52H156.604V42.688H159.548L163.436 49.44H163.468C163.458 49.1947 163.442 48.8373 163.42 48.368C163.399 47.888 163.383 47.4347 163.372 47.008V42.688H165.404ZM178.287 42.688V44.512H175.775V52H173.503V44.512H171.007V42.688H178.287ZM182.658 42.688C185.239 42.688 186.53 43.6107 186.53 45.456C186.53 46.064 186.365 46.5707 186.034 46.976C185.714 47.3707 185.309 47.6907 184.818 47.936L187.634 52H185.074L182.882 48.512H182.002V52H179.698V42.688H182.658ZM182.002 46.768H182.562C183.117 46.768 183.533 46.672 183.81 46.48C184.087 46.2773 184.226 45.9627 184.226 45.536C184.226 45.1627 184.093 44.8853 183.826 44.704C183.559 44.5227 183.138 44.432 182.562 44.432H182.002V46.768ZM187.562 52L190.843 42.64H193.755L197.067 52H194.603L193.979 50H190.667L190.043 52H187.562ZM193.467 48.144L192.907 46.272C192.853 46.112 192.789 45.904 192.715 45.648C192.64 45.3813 192.565 45.1093 192.491 44.832C192.416 44.5547 192.352 44.32 192.299 44.128C192.267 44.32 192.213 44.5547 192.139 44.832C192.064 45.1093 191.989 45.3813 191.915 45.648C191.84 45.9147 191.781 46.1227 191.739 46.272L191.163 48.144H193.467ZM206.247 47.2C206.247 48.8 205.783 50 204.855 50.8C203.937 51.6 202.679 52 201.079 52H198.183V42.688H201.335C202.86 42.688 204.06 43.0773 204.935 43.856C205.809 44.624 206.247 45.7387 206.247 47.2ZM203.879 47.264C203.879 45.408 203.057 44.48 201.415 44.48H200.487V50.176H201.223C202.129 50.176 202.796 49.936 203.223 49.456C203.66 48.976 203.879 48.2453 203.879 47.264ZM207.417 52V50.72L208.601 50.256V44.432L207.417 43.936V42.688H212.057V43.936L210.889 44.432V50.256L212.057 50.72V52H207.417ZM220.084 42.688V44.512H217.572V52H215.3V44.512H212.804V42.688H220.084ZM220.823 52V50.72L222.007 50.256V44.432L220.823 43.936V42.688H225.463V43.936L224.295 44.432V50.256L225.463 50.72V52H220.823ZM235.89 47.328C235.89 48.288 235.73 49.1307 235.41 49.856C235.09 50.5707 234.589 51.1307 233.906 51.536C233.234 51.9307 232.359 52.128 231.282 52.128C230.226 52.128 229.357 51.9307 228.674 51.536C227.991 51.1307 227.485 50.5653 227.154 49.84C226.834 49.1147 226.674 48.272 226.674 47.312C226.674 46.352 226.839 45.5147 227.17 44.8C227.501 44.0747 228.007 43.5147 228.69 43.12C229.373 42.7253 230.242 42.528 231.298 42.528C232.365 42.528 233.234 42.7307 233.906 43.136C234.589 43.5307 235.09 44.0853 235.41 44.8C235.73 45.5147 235.89 46.3573 235.89 47.328ZM229.058 47.328C229.058 48.2453 229.234 48.9653 229.586 49.488C229.938 50.0107 230.503 50.272 231.282 50.272C232.082 50.272 232.647 50.0107 232.978 49.488C233.319 48.9653 233.49 48.2453 233.49 47.328C233.49 46.4107 233.319 45.6907 232.978 45.168C232.647 44.6347 232.087 44.368 231.298 44.368C230.509 44.368 229.938 44.6347 229.586 45.168C229.234 45.6907 229.058 46.4107 229.058 47.328ZM246.561 42.688V52H243.633L239.745 45.168H239.681C239.691 45.328 239.702 45.552 239.713 45.84C239.734 46.1173 239.75 46.4213 239.761 46.752C239.782 47.072 239.798 47.3867 239.809 47.696V52H237.761V42.688H240.705L244.593 49.44H244.625C244.614 49.1947 244.598 48.8373 244.577 48.368C244.555 47.888 244.539 47.4347 244.529 47.008V42.688H246.561ZM254.791 49.312C254.791 50.112 254.487 50.784 253.879 51.328C253.271 51.8613 252.359 52.128 251.143 52.128C250.065 52.128 249.127 51.936 248.327 51.552V49.536C248.807 49.76 249.297 49.9467 249.799 50.096C250.311 50.2453 250.796 50.32 251.255 50.32C251.713 50.32 252.039 50.2347 252.231 50.064C252.433 49.8933 252.535 49.6907 252.535 49.456C252.535 49.1467 252.375 48.9013 252.055 48.72C251.735 48.5387 251.292 48.3147 250.727 48.048C250.343 47.8773 249.975 47.6853 249.623 47.472C249.271 47.248 248.983 46.96 248.759 46.608C248.535 46.2453 248.423 45.792 248.423 45.248C248.423 44.3733 248.732 43.7067 249.351 43.248C249.969 42.7787 250.796 42.544 251.831 42.544C252.385 42.544 252.897 42.608 253.367 42.736C253.847 42.864 254.316 43.0187 254.775 43.2L254.055 44.912C253.628 44.7413 253.228 44.608 252.855 44.512C252.481 44.4053 252.113 44.352 251.751 44.352C251.388 44.352 251.116 44.4267 250.935 44.576C250.753 44.7147 250.663 44.9067 250.663 45.152C250.663 45.4187 250.807 45.648 251.095 45.84C251.383 46.0213 251.857 46.256 252.519 46.544C253.244 46.8747 253.804 47.2373 254.199 47.632C254.593 48.0267 254.791 48.5867 254.791 49.312ZM256.193 50.88C256.193 50.3893 256.327 50.048 256.593 49.856C256.86 49.6533 257.185 49.552 257.569 49.552C257.943 49.552 258.263 49.6533 258.529 49.856C258.796 50.048 258.929 50.3893 258.929 50.88C258.929 51.3493 258.796 51.6907 258.529 51.904C258.263 52.1067 257.943 52.208 257.569 52.208C257.185 52.208 256.86 52.1067 256.593 51.904C256.327 51.6907 256.193 51.3493 256.193 50.88ZM269.84 52H267.424V42.592H264.32V40.576H272.944V42.592H269.84V52ZM282.121 42.688V52H279.817V48.08H276.377V52H274.073V42.688H276.377V46.24H279.817V42.688H282.121ZM284.37 42.688H289.986V44.48H286.674V46.272H289.762V48.064H286.674V50.192H289.986V52H284.37V42.688ZM306.571 42.688V52H304.459V47.728C304.459 47.44 304.464 47.1093 304.475 46.736C304.486 46.3627 304.496 46.016 304.507 45.696C304.528 45.3653 304.544 45.12 304.555 44.96H304.507L302.267 52H300.123L297.963 44.944H297.899C297.92 45.104 297.942 45.3493 297.963 45.68C297.984 46.0107 298 46.368 298.011 46.752C298.032 47.1253 298.043 47.472 298.043 47.792V52H295.995V42.688H299.083L301.243 49.584H301.291L303.515 42.688H306.571ZM307.719 52L310.999 42.64H313.911L317.223 52H314.759L314.135 50H310.823L310.199 52H307.719ZM313.623 48.144L313.063 46.272C313.009 46.112 312.945 45.904 312.871 45.648C312.796 45.3813 312.721 45.1093 312.647 44.832C312.572 44.5547 312.508 44.32 312.455 44.128C312.423 44.32 312.369 44.5547 312.295 44.832C312.22 45.1093 312.145 45.3813 312.071 45.648C311.996 45.9147 311.937 46.1227 311.895 46.272L311.319 48.144H313.623ZM317.667 52V50.72L318.851 50.256V44.432L317.667 43.936V42.688H322.307V43.936L321.139 44.432V50.256L322.307 50.72V52H317.667ZM332.686 42.688V52H329.758L325.87 45.168H325.806C325.816 45.328 325.827 45.552 325.838 45.84C325.859 46.1173 325.875 46.4213 325.886 46.752C325.907 47.072 325.923 47.3867 325.934 47.696V52H323.886V42.688H326.83L330.718 49.44H330.75C330.739 49.1947 330.723 48.8373 330.702 48.368C330.68 47.888 330.664 47.4347 330.654 47.008V42.688H332.686ZM5.312 64.384C4.608 64.384 4.064 64.6507 3.68 65.184C3.296 65.7067 3.104 66.432 3.104 67.36C3.104 68.3093 3.28533 69.04 3.648 69.552C4.02133 70.0533 4.59733 70.304 5.376 70.304C5.78133 70.304 6.18133 70.256 6.576 70.16C6.97067 70.0533 7.38133 69.92 7.808 69.76V71.648C6.99733 71.968 6.10667 72.128 5.136 72.128C4.12267 72.128 3.29067 71.9307 2.64 71.536C2 71.1307 1.52533 70.5707 1.216 69.856C0.906667 69.1307 0.752 68.2933 0.752 67.344C0.752 66.4053 0.928 65.5787 1.28 64.864C1.632 64.1387 2.14933 63.5733 2.832 63.168C3.51467 62.752 4.34667 62.544 5.328 62.544C5.79733 62.544 6.27733 62.6027 6.768 62.72C7.25867 62.8267 7.73333 62.9867 8.192 63.2L7.488 64.976C7.12533 64.816 6.76267 64.6773 6.4 64.56C6.048 64.4427 5.68533 64.384 5.312 64.384ZM18.468 67.328C18.468 68.288 18.308 69.1307 17.988 69.856C17.668 70.5707 17.1667 71.1307 16.484 71.536C15.812 71.9307 14.9373 72.128 13.86 72.128C12.804 72.128 11.9347 71.9307 11.252 71.536C10.5693 71.1307 10.0627 70.5653 9.732 69.84C9.412 69.1147 9.252 68.272 9.252 67.312C9.252 66.352 9.41733 65.5147 9.748 64.8C10.0787 64.0747 10.5853 63.5147 11.268 63.12C11.9507 62.7253 12.82 62.528 13.876 62.528C14.9427 62.528 15.812 62.7307 16.484 63.136C17.1667 63.5307 17.668 64.0853 17.988 64.8C18.308 65.5147 18.468 66.3573 18.468 67.328ZM11.636 67.328C11.636 68.2453 11.812 68.9653 12.164 69.488C12.516 70.0107 13.0813 70.272 13.86 70.272C14.66 70.272 15.2253 70.0107 15.556 69.488C15.8973 68.9653 16.068 68.2453 16.068 67.328C16.068 66.4107 15.8973 65.6907 15.556 65.168C15.2253 64.6347 14.6653 64.368 13.876 64.368C13.0867 64.368 12.516 64.6347 12.164 65.168C11.812 65.6907 11.636 66.4107 11.636 67.328ZM29.1388 62.688V72H26.2108L22.3228 65.168H22.2588C22.2694 65.328 22.2801 65.552 22.2908 65.84C22.3121 66.1173 22.3281 66.4213 22.3388 66.752C22.3601 67.072 22.3761 67.3867 22.3868 67.696V72H20.3388V62.688H23.2828L27.1708 69.44H27.2028C27.1921 69.1947 27.1761 68.8373 27.1548 68.368C27.1334 67.888 27.1174 67.4347 27.1068 67.008V62.688H29.1388ZM35.6089 64.384C34.9049 64.384 34.3609 64.6507 33.9769 65.184C33.5929 65.7067 33.4009 66.432 33.4009 67.36C33.4009 68.3093 33.5822 69.04 33.9449 69.552C34.3182 70.0533 34.8942 70.304 35.6729 70.304C36.0782 70.304 36.4782 70.256 36.8729 70.16C37.2675 70.0533 37.6782 69.92 38.1049 69.76V71.648C37.2942 71.968 36.4035 72.128 35.4329 72.128C34.4195 72.128 33.5875 71.9307 32.9369 71.536C32.2969 71.1307 31.8222 70.5707 31.5129 69.856C31.2035 69.1307 31.0489 68.2933 31.0489 67.344C31.0489 66.4053 31.2249 65.5787 31.5769 64.864C31.9289 64.1387 32.4462 63.5733 33.1289 63.168C33.8115 62.752 34.6435 62.544 35.6249 62.544C36.0942 62.544 36.5742 62.6027 37.0649 62.72C37.5555 62.8267 38.0302 62.9867 38.4889 63.2L37.7849 64.976C37.4222 64.816 37.0595 64.6773 36.6969 64.56C36.3449 64.4427 35.9822 64.384 35.6089 64.384ZM40.0731 62.688H45.6891V64.48H42.3771V66.272H45.4651V68.064H42.3771V70.192H45.6891V72H40.0731V62.688ZM50.7259 62.688C51.9632 62.688 52.8752 62.944 53.4619 63.456C54.0485 63.968 54.3419 64.688 54.3419 65.616C54.3419 66.16 54.2245 66.6773 53.9899 67.168C53.7659 67.648 53.3819 68.0373 52.8379 68.336C52.3045 68.6347 51.5739 68.784 50.6459 68.784H49.8459V72H47.5419V62.688H50.7259ZM49.8459 66.976H50.4059C50.8859 66.976 51.2752 66.8693 51.5739 66.656C51.8725 66.4427 52.0219 66.1067 52.0219 65.648C52.0219 64.8693 51.5685 64.48 50.6619 64.48H49.8459V66.976ZM62.4743 62.688V64.512H59.9623V72H57.6903V64.512H55.1943V62.688H62.4743ZM76.8899 67.328C76.8899 68.288 76.7299 69.1307 76.4099 69.856C76.0899 70.5707 75.5885 71.1307 74.9059 71.536C74.2339 71.9307 73.3592 72.128 72.2819 72.128C71.2259 72.128 70.3565 71.9307 69.6739 71.536C68.9912 71.1307 68.4845 70.5653 68.1539 69.84C67.8339 69.1147 67.6739 68.272 67.6739 67.312C67.6739 66.352 67.8392 65.5147 68.1699 64.8C68.5005 64.0747 69.0072 63.5147 69.6899 63.12C70.3725 62.7253 71.2419 62.528 72.2979 62.528C73.3645 62.528 74.2339 62.7307 74.9059 63.136C75.5885 63.5307 76.0899 64.0853 76.4099 64.8C76.7299 65.5147 76.8899 66.3573 76.8899 67.328ZM70.0579 67.328C70.0579 68.2453 70.2339 68.9653 70.5859 69.488C70.9379 70.0107 71.5032 70.272 72.2819 70.272C73.0819 70.272 73.6472 70.0107 73.9779 69.488C74.3192 68.9653 74.4899 68.2453 74.4899 67.328C74.4899 66.4107 74.3192 65.6907 73.9779 65.168C73.6472 64.6347 73.0872 64.368 72.2979 64.368C71.5085 64.368 70.9379 64.6347 70.5859 65.168C70.2339 65.6907 70.0579 66.4107 70.0579 67.328ZM78.7606 62.688H84.3446V64.48H81.0166V66.592H84.1206V68.4H81.0166V72H78.7606V62.688ZM96.693 62.688V64.512H94.181V72H91.909V64.512H89.413V62.688H96.693ZM106.152 62.688V72H103.848V68.08H100.408V72H98.1044V62.688H100.408V66.24H103.848V62.688H106.152ZM108.401 62.688H114.017V64.48H110.705V66.272H113.793V68.064H110.705V70.192H114.017V72H108.401V62.688ZM122.986 62.688C125.568 62.688 126.858 63.6107 126.858 65.456C126.858 66.064 126.693 66.5707 126.362 66.976C126.042 67.3707 125.637 67.6907 125.146 67.936L127.962 72H125.402L123.21 68.512H122.33V72H120.026V62.688H122.986ZM122.33 66.768H122.89C123.445 66.768 123.861 66.672 124.138 66.48C124.416 66.2773 124.554 65.9627 124.554 65.536C124.554 65.1627 124.421 64.8853 124.154 64.704C123.888 64.5227 123.466 64.432 122.89 64.432H122.33V66.768ZM129.011 62.688H134.627V64.48H131.315V66.272H134.403V68.064H131.315V70.192H134.627V72H129.011V62.688ZM142.431 69.312C142.431 70.112 142.127 70.784 141.519 71.328C140.911 71.8613 139.999 72.128 138.783 72.128C137.706 72.128 136.767 71.936 135.967 71.552V69.536C136.447 69.76 136.938 69.9467 137.439 70.096C137.951 70.2453 138.437 70.32 138.895 70.32C139.354 70.32 139.679 70.2347 139.871 70.064C140.074 69.8933 140.175 69.6907 140.175 69.456C140.175 69.1467 140.015 68.9013 139.695 68.72C139.375 68.5387 138.933 68.3147 138.367 68.048C137.983 67.8773 137.615 67.6853 137.263 67.472C136.911 67.248 136.623 66.96 136.399 66.608C136.175 66.2453 136.063 65.792 136.063 65.248C136.063 64.3733 136.373 63.7067 136.991 63.248C137.61 62.7787 138.437 62.544 139.471 62.544C140.026 62.544 140.538 62.608 141.007 62.736C141.487 62.864 141.957 63.0187 142.415 63.2L141.695 64.912C141.269 64.7413 140.869 64.608 140.495 64.512C140.122 64.4053 139.754 64.352 139.391 64.352C139.029 64.352 138.757 64.4267 138.575 64.576C138.394 64.7147 138.303 64.9067 138.303 65.152C138.303 65.4187 138.447 65.648 138.735 65.84C139.023 66.0213 139.498 66.256 140.159 66.544C140.885 66.8747 141.445 67.2373 141.839 67.632C142.234 68.0267 142.431 68.5867 142.431 69.312ZM150.49 62.688V64.512H147.978V72H145.706V64.512H143.21V62.688H150.49ZM150.375 72L153.655 62.64H156.567L159.879 72H157.415L156.791 70H153.479L152.855 72H150.375ZM156.279 68.144L155.719 66.272C155.666 66.112 155.602 65.904 155.527 65.648C155.452 65.3813 155.378 65.1093 155.303 64.832C155.228 64.5547 155.164 64.32 155.111 64.128C155.079 64.32 155.026 64.5547 154.951 64.832C154.876 65.1093 154.802 65.3813 154.727 65.648C154.652 65.9147 154.594 66.1227 154.551 66.272L153.975 68.144H156.279ZM168.979 62.688V68.528C168.979 69.232 168.83 69.856 168.531 70.4C168.232 70.9333 167.784 71.3547 167.187 71.664C166.59 71.9733 165.838 72.128 164.931 72.128C163.64 72.128 162.654 71.808 161.971 71.168C161.288 70.5173 160.947 69.6427 160.947 68.544V62.688H163.251V68.272C163.251 68.9973 163.395 69.5147 163.683 69.824C163.982 70.1227 164.408 70.272 164.963 70.272C165.582 70.272 166.024 70.112 166.291 69.792C166.558 69.472 166.691 68.96 166.691 68.256V62.688H168.979ZM174.127 62.688C176.708 62.688 177.999 63.6107 177.999 65.456C177.999 66.064 177.834 66.5707 177.503 66.976C177.183 67.3707 176.778 67.6907 176.287 67.936L179.103 72H176.543L174.351 68.512H173.471V72H171.167V62.688H174.127ZM173.471 66.768H174.031C174.586 66.768 175.002 66.672 175.279 66.48C175.556 66.2773 175.695 65.9627 175.695 65.536C175.695 65.1627 175.562 64.8853 175.295 64.704C175.028 64.5227 174.607 64.432 174.031 64.432H173.471V66.768ZM179.031 72L182.311 62.64H185.223L188.535 72H186.071L185.447 70H182.135L181.511 72H179.031ZM184.935 68.144L184.375 66.272C184.322 66.112 184.258 65.904 184.183 65.648C184.109 65.3813 184.034 65.1093 183.959 64.832C183.885 64.5547 183.821 64.32 183.767 64.128C183.735 64.32 183.682 64.5547 183.607 64.832C183.533 65.1093 183.458 65.3813 183.383 65.648C183.309 65.9147 183.25 66.1227 183.207 66.272L182.631 68.144H184.935ZM198.451 62.688V72H195.523L191.635 65.168H191.571C191.582 65.328 191.593 65.552 191.603 65.84C191.625 66.1173 191.641 66.4213 191.651 66.752C191.673 67.072 191.689 67.3867 191.699 67.696V72H189.651V62.688H192.595L196.483 69.44H196.515C196.505 69.1947 196.489 68.8373 196.467 68.368C196.446 67.888 196.43 67.4347 196.419 67.008V62.688H198.451ZM207.177 62.688V64.512H204.665V72H202.393V64.512H199.897V62.688H207.177ZM212.073 72V70.72L213.257 70.256V64.432L212.073 63.936V62.688H216.713V63.936L215.545 64.432V70.256L216.713 70.72V72H212.073ZM224.244 69.312C224.244 70.112 223.94 70.784 223.332 71.328C222.724 71.8613 221.812 72.128 220.596 72.128C219.519 72.128 218.58 71.936 217.78 71.552V69.536C218.26 69.76 218.751 69.9467 219.252 70.096C219.764 70.2453 220.249 70.32 220.708 70.32C221.167 70.32 221.492 70.2347 221.684 70.064C221.887 69.8933 221.988 69.6907 221.988 69.456C221.988 69.1467 221.828 68.9013 221.508 68.72C221.188 68.5387 220.745 68.3147 220.18 68.048C219.796 67.8773 219.428 67.6853 219.076 67.472C218.724 67.248 218.436 66.96 218.212 66.608C217.988 66.2453 217.876 65.792 217.876 65.248C217.876 64.3733 218.185 63.7067 218.804 63.248C219.423 62.7787 220.249 62.544 221.284 62.544C221.839 62.544 222.351 62.608 222.82 62.736C223.3 62.864 223.769 63.0187 224.228 63.2L223.508 64.912C223.081 64.7413 222.681 64.608 222.308 64.512C221.935 64.4053 221.567 64.352 221.204 64.352C220.841 64.352 220.569 64.4267 220.388 64.576C220.207 64.7147 220.116 64.9067 220.116 65.152C220.116 65.4187 220.26 65.648 220.548 65.84C220.836 66.0213 221.311 66.256 221.972 66.544C222.697 66.8747 223.257 67.2373 223.652 67.632C224.047 68.0267 224.244 68.5867 224.244 69.312ZM225.214 68.688V66.736H229.406V68.688H225.214ZM231.011 62.688H236.595V64.48H233.267V66.592H236.371V68.4H233.267V72H231.011V62.688ZM247.187 67.328C247.187 68.288 247.027 69.1307 246.707 69.856C246.387 70.5707 245.885 71.1307 245.203 71.536C244.531 71.9307 243.656 72.128 242.579 72.128C241.523 72.128 240.653 71.9307 239.971 71.536C239.288 71.1307 238.781 70.5653 238.451 69.84C238.131 69.1147 237.971 68.272 237.971 67.312C237.971 66.352 238.136 65.5147 238.467 64.8C238.797 64.0747 239.304 63.5147 239.987 63.12C240.669 62.7253 241.539 62.528 242.595 62.528C243.661 62.528 244.531 62.7307 245.203 63.136C245.885 63.5307 246.387 64.0853 246.707 64.8C247.027 65.5147 247.187 66.3573 247.187 67.328ZM240.355 67.328C240.355 68.2453 240.531 68.9653 240.883 69.488C241.235 70.0107 241.8 70.272 242.579 70.272C243.379 70.272 243.944 70.0107 244.275 69.488C244.616 68.9653 244.787 68.2453 244.787 67.328C244.787 66.4107 244.616 65.6907 244.275 65.168C243.944 64.6347 243.384 64.368 242.595 64.368C241.805 64.368 241.235 64.6347 240.883 65.168C240.531 65.6907 240.355 66.4107 240.355 67.328ZM257.906 67.328C257.906 68.288 257.746 69.1307 257.426 69.856C257.106 70.5707 256.604 71.1307 255.922 71.536C255.25 71.9307 254.375 72.128 253.298 72.128C252.242 72.128 251.372 71.9307 250.69 71.536C250.007 71.1307 249.5 70.5653 249.17 69.84C248.85 69.1147 248.69 68.272 248.69 67.312C248.69 66.352 248.855 65.5147 249.186 64.8C249.516 64.0747 250.023 63.5147 250.706 63.12C251.388 62.7253 252.258 62.528 253.314 62.528C254.38 62.528 255.25 62.7307 255.922 63.136C256.604 63.5307 257.106 64.0853 257.426 64.8C257.746 65.5147 257.906 66.3573 257.906 67.328ZM251.074 67.328C251.074 68.2453 251.25 68.9653 251.602 69.488C251.954 70.0107 252.519 70.272 253.298 70.272C254.098 70.272 254.663 70.0107 254.994 69.488C255.335 68.9653 255.506 68.2453 255.506 67.328C255.506 66.4107 255.335 65.6907 254.994 65.168C254.663 64.6347 254.103 64.368 253.314 64.368C252.524 64.368 251.954 64.6347 251.602 65.168C251.25 65.6907 251.074 66.4107 251.074 67.328ZM267.84 67.2C267.84 68.8 267.376 70 266.448 70.8C265.531 71.6 264.272 72 262.672 72H259.776V62.688H262.928C264.454 62.688 265.654 63.0773 266.528 63.856C267.403 64.624 267.84 65.7387 267.84 67.2ZM265.472 67.264C265.472 65.408 264.651 64.48 263.008 64.48H262.08V70.176H262.816C263.723 70.176 264.39 69.936 264.816 69.456C265.254 68.976 265.472 68.2453 265.472 67.264ZM272.719 72L275.999 62.64H278.911L282.223 72H279.759L279.135 70H275.823L275.199 72H272.719ZM278.623 68.144L278.063 66.272C278.009 66.112 277.945 65.904 277.871 65.648C277.796 65.3813 277.721 65.1093 277.647 64.832C277.572 64.5547 277.508 64.32 277.455 64.128C277.423 64.32 277.369 64.5547 277.295 64.832C277.22 65.1093 277.145 65.3813 277.071 65.648C276.996 65.9147 276.937 66.1227 276.895 66.272L276.319 68.144H278.623ZM292.139 62.688V72H289.211L285.323 65.168H285.259C285.269 65.328 285.28 65.552 285.291 65.84C285.312 66.1173 285.328 66.4213 285.339 66.752C285.36 67.072 285.376 67.3867 285.387 67.696V72H283.339V62.688H286.283L290.171 69.44H290.203C290.192 69.1947 290.176 68.8373 290.155 68.368C290.133 67.888 290.117 67.4347 290.107 67.008V62.688H292.139ZM302.481 67.2C302.481 68.8 302.017 70 301.089 70.8C300.172 71.6 298.913 72 297.313 72H294.417V62.688H297.569C299.094 62.688 300.294 63.0773 301.169 63.856C302.044 64.624 302.481 65.7387 302.481 67.2ZM300.113 67.264C300.113 65.408 299.292 64.48 297.649 64.48H296.721V70.176H297.457C298.364 70.176 299.03 69.936 299.457 69.456C299.894 68.976 300.113 68.2453 300.113 67.264ZM316.543 67.2C316.543 68.8 316.079 70 315.151 70.8C314.234 71.6 312.975 72 311.375 72H308.479V62.688H311.631C313.157 62.688 314.357 63.0773 315.231 63.856C316.106 64.624 316.543 65.7387 316.543 67.2ZM314.175 67.264C314.175 65.408 313.354 64.48 311.711 64.48H310.783V70.176H311.519C312.426 70.176 313.093 69.936 313.519 69.456C313.957 68.976 314.175 68.2453 314.175 67.264ZM317.109 72L320.389 62.64H323.301L326.613 72H324.149L323.525 70H320.213L319.589 72H317.109ZM323.013 68.144L322.453 66.272C322.4 66.112 322.336 65.904 322.261 65.648C322.187 65.3813 322.112 65.1093 322.037 64.832C321.963 64.5547 321.899 64.32 321.845 64.128C321.813 64.32 321.76 64.5547 321.685 64.832C321.611 65.1093 321.536 65.3813 321.461 65.648C321.387 65.9147 321.328 66.1227 321.285 66.272L320.709 68.144H323.013ZM336.529 62.688V72H333.601L329.713 65.168H329.649C329.66 65.328 329.671 65.552 329.681 65.84C329.703 66.1173 329.719 66.4213 329.729 66.752C329.751 67.072 329.767 67.3867 329.777 67.696V72H327.729V62.688H330.673L334.561 69.44H334.593C334.583 69.1947 334.567 68.8373 334.545 68.368C334.524 67.888 334.508 67.4347 334.497 67.008V62.688H336.529ZM343 64.384C342.296 64.384 341.752 64.6507 341.368 65.184C340.984 65.7067 340.792 66.432 340.792 67.36C340.792 68.3093 340.973 69.04 341.336 69.552C341.709 70.0533 342.285 70.304 343.064 70.304C343.469 70.304 343.869 70.256 344.264 70.16C344.658 70.0533 345.069 69.92 345.496 69.76V71.648C344.685 71.968 343.794 72.128 342.824 72.128C341.81 72.128 340.978 71.9307 340.328 71.536C339.688 71.1307 339.213 70.5707 338.904 69.856C338.594 69.1307 338.44 68.2933 338.44 67.344C338.44 66.4053 338.616 65.5787 338.968 64.864C339.32 64.1387 339.837 63.5733 340.52 63.168C341.202 62.752 342.034 62.544 343.016 62.544C343.485 62.544 343.965 62.6027 344.456 62.72C344.946 62.8267 345.421 62.9867 345.88 63.2L345.176 64.976C344.813 64.816 344.45 64.6773 344.088 64.56C343.736 64.4427 343.373 64.384 343 64.384ZM347.464 62.688H353.08V64.48H349.768V66.272H352.856V68.064H349.768V70.192H353.08V72H347.464V62.688ZM354.725 70.88C354.725 70.3893 354.858 70.048 355.125 69.856C355.391 69.6533 355.717 69.552 356.101 69.552C356.474 69.552 356.794 69.6533 357.061 69.856C357.327 70.048 357.461 70.3893 357.461 70.88C357.461 71.3493 357.327 71.6907 357.061 71.904C356.794 72.1067 356.474 72.208 356.101 72.208C355.717 72.208 355.391 72.1067 355.125 71.904C354.858 71.6907 354.725 71.3493 354.725 70.88Z" fill="#EBB385"/>
</svg>
