<svg width="220" height="206" viewBox="0 0 220 206" fill="none" xmlns="http://www.w3.org/2000/svg">
<path d="M57.6152 203.614V195.009H62.4262V195.918H58.8418V198.677H61.8447V199.576H58.8418V202.694H62.68V203.603H57.6152V203.614Z" fill="#E7BB89"/>
<path d="M65.4502 205.485V202.546H66.1269C66.7613 201.521 67.216 200.517 67.4697 199.512C67.7235 198.519 67.8504 197.282 67.8504 195.813V195.02H72.5451V202.546H73.7293V205.485H72.5451V203.624H66.6344V205.485H65.4502ZM71.3291 202.546V195.918H69.0769V196.056C69.0769 198.593 68.5588 200.76 67.5332 202.546H71.3291Z" fill="#E7BB89"/>
<path d="M76.2461 203.614L79.6614 195.009H80.8667L84.2291 203.614H82.9074L81.977 201.235H78.3291L77.3775 203.614H76.2461ZM78.678 200.326H81.6175L80.1477 196.616L78.678 200.326Z" fill="#E7BB89"/>
<path d="M93.3652 203.614V195.009H94.5812V201.849L98.7366 195.009H99.9526V203.614H98.7366V196.764L94.5812 203.614H93.3652Z" fill="#E7BB89"/>
<path d="M112.122 203.614V195.929H109.066V195.02H116.394V195.929H113.338V203.614H112.122Z" fill="#E7BB89"/>
<path d="M118.646 203.614L122.062 195.009H123.267L126.63 203.614H125.308L124.377 201.235H120.729L119.778 203.614H118.646ZM121.078 200.326H124.018L122.548 196.616L121.078 200.326Z" fill="#E7BB89"/>
<path d="M129.928 203.614V195.009H131.144V198.635H135.236V195.009H136.462V203.614H135.236V199.555H131.144V203.614H129.928Z" fill="#E7BB89"/>
<path d="M140.744 203.614V195.009H141.96V202.536H146.052V195.009H147.279V202.536H148.421V205.474H147.279V203.614H140.744Z" fill="#E7BB89"/>
<path d="M151.953 203.614V195.009H153.169V198.698H153.825C154.512 198.698 154.998 198.73 155.315 198.783C155.622 198.836 155.918 198.952 156.204 199.132C156.859 199.555 157.187 200.168 157.187 200.982C157.187 201.944 156.817 202.652 156.066 203.117C155.559 203.434 154.702 203.603 153.518 203.603H151.953V203.614ZM153.169 202.726H153.603C154.438 202.726 155.019 202.61 155.347 202.367C155.76 202.06 155.96 201.637 155.96 201.077C155.96 200.559 155.791 200.178 155.442 199.946C155.093 199.713 154.533 199.597 153.761 199.597H153.159V202.726H153.169ZM158.086 203.614V195.009H159.302V203.614H158.086Z" fill="#E7BB89"/>
<path d="M141.178 162.885L138.366 160.083L131.979 166.384L125.159 159.111L122.357 161.923L129.907 169.851V182.134H133.883V170.115L141.178 162.885Z" fill="#E7BB89"/>
<path d="M176.462 168.085L176.262 164.132L162.886 164.787V159.259L176.336 158.593L176.145 154.639L158.741 155.496L158.91 158.952V164.988H158.868L158.91 165.929V182.134H162.886V168.762L176.462 168.085Z" fill="#E7BB89"/>
<path d="M197.895 158.519L198.054 161.849C198.054 161.849 194.416 161.849 194.11 164.745C193.697 168.709 199.502 170.728 199.619 175.654C199.83 183.836 189.711 182.335 189.711 182.335L189.542 178.92C189.542 178.92 194.966 179.565 195.516 176.394C196.214 172.409 189.69 170.157 190.346 164.322C191.086 158.011 197.895 158.519 197.895 158.519Z" fill="#E7BB89"/>
<path d="M19.836 182.06L18.9584 155.432L14.9827 155.559L15.6066 174.132L4.27172 155.548H3.71132H0.306633L0 182.166L3.96509 182.176L4.18713 163.022L15.8709 182.187L19.836 182.06Z" fill="#E7BB89"/>
<path d="M30.7063 182.641C26.3499 182.641 23.4316 178.392 23.4316 172.071C23.4316 164.639 26.1702 160.379 30.96 160.379C34.0581 160.379 37.7588 162.24 37.7588 171.077C37.7588 181.521 32.821 182.641 30.7063 182.641ZM30.9494 164.343C27.7351 164.343 27.3967 169.745 27.3967 172.06C27.3967 174.343 28.084 178.667 30.7063 178.667C33.5611 178.667 33.7832 172.853 33.7832 171.077C33.7832 164.343 31.7319 164.343 30.9494 164.343Z" fill="#E7BB89"/>
<path d="M83.6896 182.504C77.3983 182.504 74.5752 175.696 74.5752 168.952C74.5752 159.386 78.0222 153.899 84.0174 153.899C89.632 153.899 92.4868 158.519 92.4868 167.62C92.4868 181.056 86.333 182.504 83.6896 182.504ZM84.0174 157.874C79.0795 157.874 78.5403 165.622 78.5403 168.952C78.5403 172.515 79.6188 178.54 83.679 178.54C88.0353 178.54 88.5112 170.908 88.5112 167.631C88.5217 158.889 85.9524 157.874 84.0174 157.874Z" fill="#E7BB89"/>
<path d="M54.5908 178.223C53.0894 178.424 50.6152 178.434 48.8071 178.35C48.8071 175.495 48.9234 170.21 49.1878 165.094C51.7254 165.221 53.8084 165.337 53.8613 165.337L54.0727 161.373C53.8718 161.362 51.8629 161.257 49.4309 161.13C49.5367 159.587 49.6636 158.128 49.801 156.838L45.8571 156.415C45.709 157.8 45.5822 159.333 45.4659 160.929C42.9388 160.802 40.6866 160.696 40.0628 160.675L39.957 164.639C40.5386 164.65 42.7379 164.756 45.2227 164.882C44.9266 170.707 44.8209 176.553 44.842 178.91C44.8526 180.675 46.2483 182.155 48.0141 182.271C48.8811 182.324 49.9279 182.356 50.9958 182.356C52.4761 182.356 53.9881 182.292 55.1089 182.144L54.5908 178.223Z" fill="#E7BB89"/>
<path d="M115.285 155.654L115.111 182.324L119.076 182.35L119.25 155.68L115.285 155.654Z" fill="#E7BB89"/>
<path d="M182.795 163.36C184.098 163.36 185.153 162.305 185.153 161.003C185.153 159.701 184.098 158.646 182.795 158.646C181.493 158.646 180.438 159.701 180.438 161.003C180.438 162.305 181.493 163.36 182.795 163.36Z" fill="#E7BB89"/>
<path d="M184.774 166.056H180.809V182.176H184.774V166.056Z" fill="#E7BB89"/>
<path d="M108.686 165.506C107.026 164.819 103.42 165.506 100.364 166.32L100.386 164.798L96.4204 164.735L96.1455 182.145L100.111 182.208L100.301 170.464C103.05 169.692 105.704 169.153 106.804 169.143C107.375 170.993 107.438 177.039 107.131 182.05L111.097 182.293C112.038 166.891 109.69 165.919 108.686 165.506Z" fill="#E7BB89"/>
<path d="M217.318 165.622C215.203 164.766 211.122 165.823 208.172 166.806L207.907 155.379L203.942 155.475L204.556 182.208L208.521 182.113L208.267 170.982C211.122 169.946 214.019 169.238 215.32 169.238C215.33 169.238 215.33 169.238 215.341 169.238C215.859 171.162 216.102 177.134 215.996 182.134L219.961 182.219C220.289 166.828 218.428 166.077 217.318 165.622Z" fill="#E7BB89"/>
<path d="M165.984 44.7247C163.827 41.934 161.648 39.0905 159.851 36.1518C158.889 35.7078 157.884 35.2744 156.837 34.841C158.519 38.7099 161.374 42.7691 164.028 46.5217C169.008 53.5618 174.146 60.824 168.479 65.1051C164.62 68.0226 157.007 67.1241 147.216 55.8663C140.745 48.435 132.941 44.0587 126.851 44.471C123.425 44.693 120.644 46.3843 118.561 49.5132C113.052 57.8007 121.924 66.7436 125.846 70.1156C138.143 75.4645 144.139 83.3925 144.139 83.3925C110.589 89.1642 93.1529 65.8979 93.1529 65.8979C94.9081 65.6759 96.5999 65.5385 98.26 65.4434L98.2705 65.4328C98.9155 64.5977 105.556 51.1729 100.406 42.304C97.9956 38.1603 93.6499 34.3654 89.4522 30.7079C88.638 29.9996 87.8133 29.2808 87.0097 28.562H58.0064C58.0064 28.562 58.0064 28.562 57.9958 28.562C59.7722 32.5366 60.6709 55.1897 57.2451 58.6041C53.8193 62.0184 36.1403 59.9783 36.1403 59.9783C36.1403 59.9783 36.098 58.9001 36.1508 57.621C36.0134 59.2383 35.6116 66.6696 39.3123 74.7879C43.2774 73.1917 47.2954 70.4011 51.2076 67.6632C58.239 62.7584 65.5031 57.6739 73.0737 59.2383C78.5085 60.3588 82.2833 63.6675 83.4147 68.2975C84.5143 72.7795 83.8588 82.1769 68.1676 95.8554C70.9167 96.4897 73.761 96.9865 76.637 97.3882C80.6761 89.809 85.7303 85.3693 91.7043 84.1853C98.7886 82.79 105.418 86.5426 108.929 90.1684C111.139 92.4622 112.534 95.1895 113.158 98.1387C114.575 98.0542 115.78 97.9696 116.732 97.9062C133.089 96.8279 143.409 91.7011 150.832 85.6018C150.779 85.2001 150.747 84.809 150.641 84.4073C149.225 78.7097 143.356 73.9528 133.671 70.6442C125.096 67.7161 119.809 62.6421 119.545 57.0819V56.9128C119.449 53.213 121.575 50.0629 125.096 48.657C129.346 46.9551 136.335 47.8325 143.187 55.4012C151.276 64.344 158.878 69.5765 164.778 70.4328C167.95 66.585 170.943 63.4666 174.675 61.9973C175.035 56.4794 170.636 50.7606 165.984 44.7247ZM67.0679 39.5556C65.2916 39.5556 63.8536 38.118 63.8536 36.3421C63.8536 34.5768 65.2916 33.1286 67.0679 33.1286C68.8443 33.1286 70.2823 34.5662 70.2823 36.3421C70.2823 38.118 68.8443 39.5556 67.0679 39.5556ZM90.4884 79.0902C88.7226 79.0902 87.274 77.6526 87.274 75.8767C87.274 74.1114 88.712 72.6632 90.4884 72.6632C92.2542 72.6632 93.7028 74.1008 93.7028 75.8767C93.7028 77.642 92.2542 79.0902 90.4884 79.0902ZM119.798 93.9844C118.033 93.9844 116.584 92.5468 116.584 90.7709C116.584 89.0056 118.022 87.5574 119.798 87.5574C121.575 87.5574 123.013 88.995 123.013 90.7709C123.013 92.5468 121.575 93.9844 119.798 93.9844Z" fill="#E7BB89"/>
<path d="M104.096 40.1583C108.664 48.0018 106.581 59.1222 103.187 65.3378C108.114 65.4224 112.587 66.0461 116.616 67.0186C112.481 61.2892 110.049 53.9425 114.702 46.9447C117.578 42.6213 121.67 40.1688 126.534 39.8517C134.168 39.3655 143.198 44.2069 150.684 52.822C159.248 62.674 164.408 62.3569 165.677 61.4055C167.612 59.9362 164.503 55.211 160.242 49.1751C156.605 44.0377 152.629 38.4035 151.244 32.7799C147.913 31.7017 144.202 30.7503 140.004 30.0209C137.498 33.9955 134.718 36.6594 131.292 36.6594C130.953 36.6594 130.604 36.6276 130.245 36.5748C128.426 36.3 126.925 35.3274 125.91 33.7841C125.032 32.4416 124.556 30.6446 124.387 28.5833C123.584 28.5622 122.791 28.541 121.955 28.541H93.4912C97.562 32.1351 101.591 35.8454 104.096 40.1583ZM144.318 35.5811C146.084 35.5811 147.533 37.0188 147.533 38.7947C147.533 40.5705 146.095 42.0082 144.318 42.0082C142.542 42.0082 141.104 40.5705 141.104 38.7947C141.104 37.0293 142.542 35.5811 144.318 35.5811ZM111.604 32.2408C113.38 32.2408 114.818 33.6784 114.818 35.4543C114.818 37.2196 113.38 38.6678 111.604 38.6678C109.827 38.6678 108.389 37.2302 108.389 35.4543C108.389 33.6784 109.838 32.2408 111.604 32.2408Z" fill="#E7BB89"/>
<path d="M67.0681 34.6826C66.1482 34.6826 65.3975 35.4331 65.3975 36.3528C65.3975 37.2725 66.1482 38.023 67.0681 38.023C67.988 38.023 68.7387 37.2725 68.7387 36.3528C68.7387 35.4226 67.988 34.6826 67.0681 34.6826Z" fill="#E7BB89"/>
<path d="M111.604 33.7842C110.684 33.7842 109.934 34.5347 109.934 35.4544C109.934 36.374 110.684 37.1245 111.604 37.1245C112.524 37.1245 113.275 36.374 113.275 35.4544C113.275 34.5241 112.524 33.7842 111.604 33.7842Z" fill="#E7BB89"/>
<path d="M144.318 40.4649C145.238 40.4649 145.989 39.7143 145.989 38.7947C145.989 37.875 145.238 37.1245 144.318 37.1245C143.398 37.1245 142.647 37.875 142.647 38.7947C142.647 39.7143 143.398 40.4649 144.318 40.4649Z" fill="#E4BB88"/>
<path d="M90.488 74.2068C89.5681 74.2068 88.8174 74.9573 88.8174 75.877C88.8174 76.7966 89.5681 77.5471 90.488 77.5471C91.4079 77.5471 92.1586 76.7966 92.1586 75.877C92.1586 74.9573 91.4079 74.2068 90.488 74.2068Z" fill="#E7BB89"/>
<path d="M119.798 89.1113C118.878 89.1113 118.127 89.8619 118.127 90.7815C118.127 91.7012 118.878 92.4517 119.798 92.4517C120.717 92.4517 121.468 91.7012 121.468 90.7815C121.468 89.8619 120.717 89.1113 119.798 89.1113Z" fill="#E7BB89"/>
<path d="M140.025 58.2977C134.643 52.357 129.61 51.4796 126.692 52.6424C124.852 53.3823 123.784 54.9256 123.826 56.7755C123.964 60.507 128.267 64.2808 135.066 66.6063C145.798 70.2744 152.322 75.5598 154.49 82.3356C157.292 79.5978 159.639 76.786 161.796 74.1327C156.425 72.6317 149.182 68.4139 140.025 58.2977Z" fill="#E7BB89"/>
<path d="M142.33 56.2047C135.88 49.08 129.42 48.192 125.539 49.7565C122.483 50.9827 120.633 53.6994 120.718 56.8601L120.728 57.0398C120.971 62.1032 125.962 66.786 134.072 69.5555C144.149 73.0016 150.271 78.0439 151.793 84.1432C151.846 84.3335 151.846 84.5343 151.888 84.7246C152.459 84.2278 153.009 83.7204 153.549 83.213C151.677 76.564 145.343 71.3526 134.706 67.7162C127.326 65.1898 122.832 61.1201 122.674 56.8178C122.61 54.4499 123.964 52.4943 126.269 51.5641C129.547 50.2533 135.108 51.1307 140.892 57.5155C150.207 67.8008 157.408 71.86 162.589 73.1707C163.044 72.5999 163.498 72.0397 163.942 71.49C157.841 70.2744 150.271 64.9784 142.33 56.2047Z" fill="#E7BB89"/>
<path d="M165.592 39.059C164.408 38.4142 163.16 37.7482 161.828 37.0823C163.382 39.429 165.159 41.7334 166.903 43.9955C171.577 50.0526 175.997 55.8031 175.88 61.6064C176.187 61.5219 176.483 61.4162 176.8 61.3527C177.128 61.2893 177.477 61.247 177.815 61.2047C177.71 54.8517 173.015 48.7418 168.447 42.8116C167.485 41.5748 166.523 40.3275 165.592 39.059Z" fill="#E7BB89"/>
<path d="M130.89 32.4204C132.349 32.6424 133.861 31.4056 135.362 29.3655C133.226 29.1012 130.985 28.9004 128.616 28.7629C128.754 29.8729 129.007 30.8137 129.452 31.4902C129.8 32.0293 130.245 32.3147 130.89 32.4204Z" fill="#E7BB89"/>
<path d="M130.425 35.4437C133.639 35.93 136.304 33.5938 138.757 29.8412C138.08 29.7355 137.404 29.6192 136.706 29.5241C134.813 32.2408 132.836 33.9004 130.711 33.5727C129.738 33.4247 129.008 32.9596 128.469 32.1351C127.909 31.2788 127.57 30.1055 127.412 28.7207C126.788 28.689 126.174 28.6573 125.54 28.6467C125.709 30.4543 126.122 32.0082 126.883 33.171C127.718 34.4289 128.945 35.2112 130.425 35.4437Z" fill="#E7BB89"/>
<path d="M91.9271 85.3271C86.4077 86.4265 81.6919 90.5385 77.8643 97.5575C78.5621 97.6421 79.2705 97.7161 79.9684 97.8006C83.426 91.7859 87.6237 88.1707 92.2972 87.2404C98.1549 86.0882 103.706 89.2595 106.688 92.3355C108.358 94.0586 109.458 96.0987 110.008 98.3292C110.695 98.2974 111.351 98.2552 111.975 98.2235C111.382 95.5385 110.092 93.0649 108.084 90.9931C104.774 87.5576 98.5462 84.0164 91.9271 85.3271Z" fill="#E7BB89"/>
<path d="M82.2836 68.5832C81.2579 64.4077 77.811 61.4162 72.8308 60.3908C65.7571 58.9426 58.694 63.8686 51.874 68.636C47.9301 71.395 43.8698 74.2068 39.8096 75.8558C40.0951 76.4267 40.4017 76.9975 40.7295 77.5789C44.9166 75.8453 48.998 73.0123 52.9737 70.2428C58.9689 66.0568 64.668 62.0822 70.2086 62.0822C70.9487 62.0822 71.6994 62.1562 72.4396 62.3041C76.7113 63.1921 79.545 65.5916 80.3909 69.0589C82.0298 75.7184 76.2355 85.1264 64.4883 94.9255C65.239 95.1369 65.9897 95.3483 66.7616 95.5386C82.6008 81.9657 83.3409 72.8643 82.2836 68.5832Z" fill="#E7BB89"/>
<path d="M100.977 93.4666C98.7462 92.1029 92.8355 89.6611 86.1636 96.5004C85.6455 97.0395 85.1909 97.6209 84.7891 98.234C85.5504 98.2868 86.3116 98.3291 87.0624 98.3714C87.2104 98.1917 87.3373 97.9909 87.5065 97.8217C91.5879 93.6357 96.0182 92.6632 99.9727 95.0733C101.379 95.9296 102.563 97.1769 103.451 98.5828C104.192 98.5617 104.921 98.5405 105.619 98.5194C104.583 96.511 102.986 94.6928 100.977 93.4666Z" fill="#E7BB89"/>
<path d="M85.3281 95.6864C92.5816 88.2446 99.116 90.9613 101.58 92.4729C103.927 93.9105 105.767 96.0775 106.919 98.4771C107.554 98.4559 108.199 98.4242 108.791 98.3925C108.273 96.4475 107.3 94.661 105.841 93.1494C103.071 90.2847 97.9107 87.3038 92.5181 88.382C88.2887 89.2171 84.4611 92.494 81.2256 97.938C81.9869 98.012 82.7376 98.0648 83.4989 98.1282C84.0276 97.2614 84.6091 96.4369 85.3281 95.6864Z" fill="#E7BB89"/>
<path d="M99.3809 96.0777C95.9868 94.0058 92.1486 94.8726 88.543 98.4666C93.3434 98.6992 97.9429 98.7098 102.088 98.6252C101.348 97.621 100.438 96.7225 99.3809 96.0777Z" fill="#E7BB89"/>
<path d="M196.224 61.8072C195.684 60.4013 194.659 59.3653 193.263 58.8262C190.345 57.6952 187.352 59.2385 184.275 62.156C184.815 62.4731 185.343 62.8431 185.84 63.2765C187.775 61.4901 189.626 60.359 191.307 60.359C191.74 60.359 192.163 60.433 192.576 60.5915C193.485 60.9404 194.109 61.5641 194.458 62.4837C195.272 64.619 194.638 67.9911 193.337 71.786C193.802 72.2828 194.289 72.7902 194.807 73.2765C196.456 68.731 197.281 64.5873 196.224 61.8072Z" fill="#E7BB89"/>
<path d="M193.369 62.8959C193.137 62.2934 192.767 61.9129 192.164 61.6803C190.684 61.1095 188.78 62.1771 186.708 64.0799C188.506 65.8769 190.25 68.287 192.439 70.7712C193.517 67.4942 194.025 64.619 193.369 62.8959Z" fill="#E7BB89"/>
<path d="M70.3245 68.6571C71.3501 68.6571 72.2383 68.9214 72.9467 69.524C73.6975 70.1582 74.0781 70.9404 74.1098 71.9235C74.279 77.2723 64.858 86.4372 58.2706 92.7479C58.905 93.0122 59.5289 93.287 60.1844 93.5302C67.2899 86.712 76.1928 77.8749 76.0025 71.8707C75.9496 70.3696 75.3152 69.0588 74.1627 68.0863C69.4046 64.08 60.988 69.9045 52.0745 76.0673C49.1985 78.0546 46.2696 80.0736 43.5205 81.712C43.9117 82.2089 44.3135 82.6951 44.747 83.1814C47.475 81.5429 50.3405 79.5662 53.1424 77.6317C59.5289 73.192 66.0951 68.6571 70.3245 68.6571Z" fill="#E7BB89"/>
<path d="M51.3771 75.116C60.6924 68.6784 69.4685 62.6108 74.9138 67.1773C76.3307 68.3612 77.1026 69.968 77.166 71.8179C77.3775 78.192 68.612 87.0292 61.4325 93.9425C62.0035 94.1433 62.5639 94.3442 63.156 94.5344C63.1878 94.5027 63.2195 94.4816 63.2512 94.4499C74.9879 84.7882 80.8245 75.6339 79.2702 69.3338C78.53 66.3211 76.0241 64.2281 72.207 63.4458C66.455 62.2619 60.2377 66.5959 53.661 71.1942C49.6747 73.9743 45.5828 76.8179 41.3428 78.5937C41.7974 79.3231 42.2944 80.0525 42.8231 80.7713C45.5511 79.1328 48.5011 77.1138 51.3771 75.116Z" fill="#E7BB89"/>
<path d="M182.563 45.4541C181.918 45.6338 181.284 45.7289 180.639 45.7395C181.907 50.3061 188.04 52.0397 195.706 53.0439C196.721 52.6951 197.99 52.2088 199.407 51.5534C191.128 50.6866 183.694 49.3864 182.563 45.4541Z" fill="#E7BB89"/>
<path d="M193.898 54.0058C186.465 52.8748 180.629 50.8769 179.402 45.8558C179.392 45.7924 179.392 45.7395 179.381 45.6867C176.177 45.2744 172.741 43.1391 168.12 40.4858C168.532 41.0249 168.955 41.5746 169.368 42.1137C174.041 48.1708 178.842 54.4181 178.979 61.1094C179.772 61.0671 180.576 61.0777 181.443 61.1834C182.056 61.2468 182.616 61.4159 183.166 61.6273C186.656 58.2236 190.124 56.3843 193.676 57.7479C195.4 58.4138 196.658 59.6718 197.314 61.4054C198.509 64.5555 197.557 69.1749 195.738 74.1326C197.768 75.919 200.19 77.5892 203.235 78.8894C203.246 78.8788 207.041 61.2997 193.898 54.0058Z" fill="#E7BB89"/>
<path d="M208.129 45.708C208.415 45.4226 208.69 45.116 208.965 44.8095C208.87 44.7989 208.785 44.7989 208.69 44.7883C201.637 44.2598 194.437 43.7101 190.715 41.6277C190.017 41.9025 189.33 42.2091 188.632 42.5262C192.248 45.2957 199.459 45.9828 207.178 46.5748C207.474 46.3105 207.781 46.0568 208.077 45.7714C208.098 45.7503 208.119 45.7291 208.129 45.708Z" fill="#E7BB89"/>
<path d="M209.917 43.7101C211.091 42.2514 212.095 40.6129 212.804 38.7524C212.804 38.7524 203.139 37.188 192.217 41.0463C196.023 42.6531 202.896 43.171 208.775 43.615C209.145 43.6467 209.526 43.6784 209.917 43.7101Z" fill="#E7BB89"/>
<path d="M187.459 43.0654C186.57 43.5094 185.672 43.9957 184.783 44.5242C184.413 44.7462 184.054 44.9153 183.694 45.0739C184.625 48.5834 193.359 49.7567 201.416 50.539C202.875 49.7567 204.387 48.7736 205.857 47.6426C198.106 47.0189 191.022 46.1944 187.459 43.0654Z" fill="#E7BB89"/>
<path d="M81.9129 54.7354C86.316 54.7354 89.8854 51.1669 89.8854 46.765C89.8854 42.3631 86.316 38.7947 81.9129 38.7947C77.5098 38.7947 73.9404 42.3631 73.9404 46.765C73.9404 51.1669 77.5098 54.7354 81.9129 54.7354Z" fill="white"/>
<path d="M81.9136 51.1413C84.3312 51.1413 86.291 49.1819 86.291 46.765C86.291 44.348 84.3312 42.3887 81.9136 42.3887C79.496 42.3887 77.5361 44.348 77.5361 46.765C77.5361 49.1819 79.496 51.1413 81.9136 51.1413Z" fill="#12100B"/>
<path d="M101.412 41.7228C106.212 49.9892 101.401 61.8284 99.5401 65.3696C100.323 65.3379 101.094 65.3273 101.866 65.3273C105.229 59.5874 107.534 48.3507 103.093 40.7398C100.471 36.2366 96.0402 32.3254 91.7157 28.5623H88.7656C89.252 28.9851 89.7278 29.4079 90.2142 29.8307C94.4859 33.5622 98.9057 37.41 101.412 41.7228Z" fill="#E7BB89"/>
<path d="M121.944 24.9046C123.361 24.9046 124.736 24.9258 126.079 24.9786C127.929 22.9173 130.012 20.1266 131.535 16.6911C135.045 8.81592 134.337 0.581299 134.337 0.581299C134.337 0.581299 127.94 5.11615 124.429 12.9914C122.494 17.3359 121.849 21.7862 121.648 24.9046H121.944Z" fill="#E7BB89"/>
<path d="M111.815 24.9046C113.718 22.8222 115.886 19.9575 117.472 16.4057C120.982 8.53052 120.274 0.295898 120.274 0.295898C120.274 0.295898 113.877 4.83075 110.366 12.706C108.368 17.188 107.744 21.7757 107.564 24.9046H111.815Z" fill="#E7BB89"/>
<path d="M97.4773 24.9047C99.444 22.8011 101.749 19.8413 103.398 16.1098C106.909 8.23462 106.2 0 106.2 0C106.2 0 99.8035 4.53486 96.293 12.4101C94.2312 17.0401 93.6285 21.7758 93.4805 24.9047H97.4773Z" fill="#E7BB89"/>
<path d="M116.732 103.319C115.485 103.403 113.803 103.519 111.794 103.636V117.103L100.925 129.967H108.305C110.23 129.967 111.001 130.041 112.016 129.576C113 129.122 113.412 128.636 114.131 127.737C114.67 127.071 115.77 126.849 116.542 127.367C117.166 127.779 117.42 128.266 117.462 129.323C117.472 129.682 117.779 129.967 118.139 129.967H122.537C122.918 129.967 123.224 129.661 123.224 129.28V102.61C121.163 102.917 119.027 103.171 116.732 103.319Z" fill="#E74910"/>
<path d="M85.6665 103.72V116.955L74.7969 129.819H82.1772C84.1016 129.819 84.8735 129.893 85.8886 129.428C86.8719 128.974 87.2843 128.488 88.0033 127.589C88.5425 126.923 89.6422 126.701 90.414 127.219C91.0379 127.631 91.2917 128.118 91.3339 129.175C91.3445 129.534 91.6512 129.819 92.0107 129.819H96.4093C96.7899 129.819 97.0965 129.513 97.0965 129.132V104.09C93.4698 104.09 89.5999 103.984 85.6665 103.72Z" fill="#E74910"/>
<path d="M58.4607 80.4434C57.5408 80.4434 56.79 81.1939 56.79 82.1135C56.79 83.0332 57.5408 83.7837 58.4607 83.7837C59.3806 83.7837 60.1313 83.0332 60.1313 82.1135C60.1313 81.1833 59.3806 80.4434 58.4607 80.4434Z" fill="#E7BB89"/>
<path d="M72.197 70.4118C69.2152 67.9171 60.6718 73.8262 53.8095 78.5724C51.0498 80.4752 48.2373 82.4202 45.541 84.0587C47.2645 85.8874 49.2841 87.6422 51.6843 89.2595C53.3337 90.38 55.1524 91.3736 57.0874 92.251C62.7865 86.7965 73.1063 76.8811 72.9477 71.9552C72.9265 71.2998 72.6939 70.8347 72.197 70.4118ZM58.4619 85.3166C56.6961 85.3166 55.2475 83.879 55.2475 82.1031C55.2475 80.3272 56.6856 78.8896 58.4619 78.8896C60.2383 78.8896 61.6763 80.3272 61.6763 82.1031C61.6763 83.879 60.2383 85.3166 58.4619 85.3166Z" fill="#E7BB89"/>
<path d="M36.2778 56.0461C36.3835 55.211 37.2717 54.5979 38.1282 54.6719C41.8818 54.9784 51.7364 55.6233 53.1955 54.1856C55.564 51.8601 54.9401 37.6847 53.0898 34.894C50.7847 31.4374 46.217 30.5494 46.1429 29.0484C46.0478 27.0822 56.7482 27.0082 57.7421 28.1076C59.6877 30.2746 60.8508 55.0313 57.2558 58.6148C53.8299 62.0291 36.1509 59.989 36.1509 59.989C36.1509 59.989 36.0452 57.896 36.2778 56.0461Z" fill="#E74910"/>
<path d="M162.917 47.3041C159.946 43.0969 156.721 38.5304 155.082 34.1329C154.342 33.8475 153.591 33.5727 152.809 33.2979C154.31 38.4035 157.99 43.6255 161.363 48.3929C166.522 55.6867 169.441 60.2744 166.501 62.4837C164.439 64.0376 158.571 63.9425 149.668 53.71C142.785 45.7925 134.622 41.1731 127.622 41.1731C127.284 41.1731 126.956 41.1836 126.628 41.2048C122.198 41.4902 118.466 43.7312 115.833 47.6952C111.223 54.6402 114.278 62.0397 118.741 67.5682C119.999 67.9277 121.215 68.3082 122.367 68.7205C117.916 64.1856 112.375 56.3315 117.419 48.7523C119.745 45.2639 122.885 43.3612 126.745 43.1075C133.247 42.6741 141.484 47.209 148.23 54.9573C157.408 65.507 164.281 66.5429 167.643 64.0059C172.264 60.5281 167.728 54.1011 162.917 47.3041Z" fill="#E7BB89"/>
<path d="M93.1533 65.8981C93.1533 65.8981 110.6 89.1643 144.139 83.3821C144.128 83.3821 127.634 61.5324 93.1533 65.8981Z" fill="white"/>
</svg>
